<svg width="267" height="103" viewBox="0 0 267 103" fill="none" xmlns="http://www.w3.org/2000/svg">
<rect x="25" y="49" width="242" height="54" rx="14" fill="url(#paint0_linear)"/>
<path d="M36.4092 72.0785C35.8861 72.0785 35.4154 71.9888 34.997 71.8095C34.5785 71.6227 34.2498 71.3612 34.0107 71.025C33.7716 70.6887 33.652 70.2964 33.652 69.8481H35.0194C35.0493 70.1844 35.18 70.4608 35.4117 70.6775C35.6508 70.8942 35.9833 71.0025 36.4092 71.0025C36.85 71.0025 37.1937 70.8979 37.4403 70.6887C37.6869 70.472 37.8102 70.1956 37.8102 69.8593C37.8102 69.5978 37.7317 69.3849 37.5748 69.2205C37.4254 69.0561 37.2348 68.9291 37.0032 68.8394C36.779 68.7497 36.4652 68.6526 36.0617 68.548C35.5536 68.4135 35.1389 68.279 34.8176 68.1445C34.5038 68.0025 34.2348 67.7859 34.0107 67.4944C33.7865 67.203 33.6744 66.8145 33.6744 66.3288C33.6744 65.8805 33.7865 65.4882 34.0107 65.152C34.2348 64.8157 34.5487 64.558 34.9521 64.3786C35.3556 64.1993 35.8226 64.1096 36.3531 64.1096C37.1078 64.1096 37.7242 64.3002 38.2024 64.6812C38.6881 65.0548 38.9571 65.5704 39.0094 66.2279H37.5972C37.5748 65.944 37.4403 65.7012 37.1937 65.4994C36.9472 65.2977 36.6221 65.1968 36.2186 65.1968C35.8525 65.1968 35.5536 65.2902 35.322 65.477C35.0904 65.6638 34.9746 65.9328 34.9746 66.284C34.9746 66.5231 35.0455 66.7211 35.1875 66.878C35.3369 67.0274 35.5237 67.147 35.7479 67.2367C35.9721 67.3263 36.2784 67.4235 36.667 67.5281C37.1825 67.67 37.601 67.812 37.9223 67.954C38.251 68.0959 38.5275 68.3164 38.7516 68.6152C38.9833 68.9066 39.0991 69.2989 39.0991 69.7921C39.0991 70.1881 38.9907 70.5617 38.7741 70.9129C38.5648 71.2641 38.2548 71.548 37.8438 71.7647C37.4403 71.9739 36.9621 72.0785 36.4092 72.0785ZM44.7761 67.9988C45.1945 68.0735 45.5494 68.2939 45.8409 68.6601C46.1323 69.0262 46.278 69.4409 46.278 69.9042C46.278 70.3002 46.1734 70.6588 45.9641 70.9801C45.7624 71.2939 45.4673 71.5443 45.0787 71.7311C44.6902 71.9104 44.2381 72 43.7225 72H40.6067V64.2105H43.5768C44.1074 64.2105 44.5631 64.3002 44.9442 64.4795C45.3253 64.6588 45.613 64.9017 45.8072 65.208C46.0015 65.5069 46.0986 65.8431 46.0986 66.2167C46.0986 66.6651 45.9791 67.0387 45.74 67.3375C45.5009 67.6364 45.1796 67.8568 44.7761 67.9988ZM41.8844 67.4832H43.4648C43.8832 67.4832 44.2082 67.3898 44.4399 67.203C44.679 67.0088 44.7985 66.7323 44.7985 66.3736C44.7985 66.0225 44.679 65.7497 44.4399 65.5555C44.2082 65.3537 43.8832 65.2528 43.4648 65.2528H41.8844V67.4832ZM43.6105 70.9577C44.0438 70.9577 44.3838 70.8531 44.6304 70.6439C44.877 70.4347 45.0003 70.1433 45.0003 69.7697C45.0003 69.3886 44.8695 69.086 44.608 68.8618C44.3465 68.6377 43.999 68.5256 43.5656 68.5256H41.8844V70.9577H43.6105ZM48.9329 64.2105V69.1756C48.9329 69.7659 49.0861 70.2105 49.3925 70.5094C49.7063 70.8083 50.1397 70.9577 50.6926 70.9577C51.253 70.9577 51.6864 70.8083 51.9927 70.5094C52.3065 70.2105 52.4634 69.7659 52.4634 69.1756V64.2105H53.7412V69.1532C53.7412 69.7883 53.6029 70.3263 53.3265 70.7672C53.05 71.208 52.6801 71.5368 52.2169 71.7535C51.7536 71.9702 51.2418 72.0785 50.6814 72.0785C50.121 72.0785 49.6092 71.9702 49.1459 71.7535C48.6901 71.5368 48.3277 71.208 48.0587 70.7672C47.7897 70.3263 47.6552 69.7883 47.6552 69.1532V64.2105H48.9329ZM58.9801 68.1109L61.401 72H59.9664L58.2067 69.1756L56.5592 72H55.1358L57.5567 68.1109L55.1246 64.2105H56.5592L58.33 67.0573L59.9888 64.2105H61.4122L58.9801 68.1109Z" fill="white"/>
<path opacity="0.7" d="M35.947 86.8923C35.4921 86.8923 35.0834 86.8131 34.7208 86.6549C34.3647 86.4901 34.0845 86.2659 33.8802 85.9824C33.6758 85.6923 33.5703 85.3594 33.5637 84.9836H34.523C34.5559 85.3067 34.6878 85.5803 34.9185 85.8044C35.1559 86.022 35.4987 86.1308 35.947 86.1308C36.3756 86.1308 36.7118 86.0253 36.9558 85.8143C37.2063 85.5967 37.3315 85.3198 37.3315 84.9836C37.3315 84.7199 37.259 84.5056 37.114 84.3408C36.9689 84.176 36.7876 84.0507 36.5701 83.965C36.3525 83.8793 36.0591 83.787 35.6899 83.6881C35.235 83.5694 34.8691 83.4507 34.5922 83.3321C34.3219 83.2134 34.0878 83.0288 33.89 82.7783C33.6988 82.5211 33.6033 82.1783 33.6033 81.7498C33.6033 81.374 33.6988 81.041 33.89 80.7509C34.0812 80.4609 34.3483 80.2367 34.6911 80.0785C35.0405 79.9202 35.4394 79.8411 35.8877 79.8411C36.5338 79.8411 37.0612 80.0027 37.47 80.3257C37.8854 80.6488 38.1194 81.0773 38.1721 81.6113H37.1832C37.1502 81.3476 37.0118 81.1169 36.7679 80.9191C36.5239 80.7147 36.2009 80.6125 35.7987 80.6125C35.4229 80.6125 35.1163 80.7114 34.879 80.9092C34.6416 81.1004 34.523 81.3707 34.523 81.7201C34.523 81.9706 34.5922 82.175 34.7306 82.3332C34.8757 82.4915 35.0504 82.6134 35.2548 82.6992C35.4658 82.7783 35.7591 82.8706 36.1349 82.9761C36.5898 83.1013 36.9558 83.2266 37.2327 83.3519C37.5096 83.4705 37.7469 83.6584 37.9447 83.9156C38.1425 84.1661 38.2414 84.5089 38.2414 84.944C38.2414 85.2803 38.1524 85.5967 37.9744 85.8934C37.7964 86.1901 37.5326 86.4307 37.1832 86.6154C36.8338 86.8 36.4217 86.8923 35.947 86.8923ZM40.6634 82.1454V85.3396C40.6634 85.6033 40.7195 85.7912 40.8315 85.9033C40.9436 86.0088 41.1381 86.0615 41.415 86.0615H42.0776V86.823H41.2667C40.7656 86.823 40.3898 86.7077 40.1393 86.4769C39.8888 86.2461 39.7635 85.8671 39.7635 85.3396V82.1454H39.0613V81.4036H39.7635V80.0389H40.6634V81.4036H42.0776V82.1454H40.6634ZM42.8317 84.0936C42.8317 83.5398 42.9438 83.0552 43.168 82.6398C43.3921 82.2179 43.6987 81.8915 44.0877 81.6608C44.4833 81.43 44.9217 81.3146 45.403 81.3146C45.8777 81.3146 46.2897 81.4168 46.6392 81.6212C46.9886 81.8256 47.249 82.0827 47.4204 82.3926V81.4036H48.3302V86.823H47.4204V85.8143C47.2424 86.1308 46.9754 86.3945 46.6194 86.6055C46.27 86.8098 45.8612 86.912 45.3931 86.912C44.9118 86.912 44.4767 86.7934 44.0877 86.556C43.6987 86.3187 43.3921 85.9857 43.168 85.5572C42.9438 85.1286 42.8317 84.6408 42.8317 84.0936ZM47.4204 84.1034C47.4204 83.6947 47.338 83.3387 47.1732 83.0354C47.0084 82.7321 46.7842 82.5014 46.5007 82.3431C46.2238 82.1783 45.9172 82.0959 45.581 82.0959C45.2448 82.0959 44.9382 82.175 44.6613 82.3332C44.3844 82.4915 44.1635 82.7222 43.9987 83.0255C43.8339 83.3288 43.7515 83.6848 43.7515 84.0936C43.7515 84.5089 43.8339 84.8715 43.9987 85.1814C44.1635 85.4847 44.3844 85.7187 44.6613 85.8835C44.9382 86.0418 45.2448 86.1209 45.581 86.1209C45.9172 86.1209 46.2238 86.0418 46.5007 85.8835C46.7842 85.7187 47.0084 85.4847 47.1732 85.1814C47.338 84.8715 47.4204 84.5122 47.4204 84.1034ZM50.751 82.2838C50.9092 81.9739 51.1334 81.7333 51.4235 81.5619C51.7201 81.3905 52.0794 81.3048 52.5014 81.3048V82.2344H52.2641C51.2553 82.2344 50.751 82.7816 50.751 83.876V86.823H49.851V81.4036H50.751V82.2838ZM54.4402 82.4124C54.6248 82.0893 54.8951 81.8256 55.2511 81.6212C55.6071 81.4168 56.0126 81.3146 56.4675 81.3146C56.9554 81.3146 57.3938 81.43 57.7828 81.6608C58.1718 81.8915 58.4783 82.2179 58.7025 82.6398C58.9267 83.0552 59.0387 83.5398 59.0387 84.0936C59.0387 84.6408 58.9267 85.1286 58.7025 85.5572C58.4783 85.9857 58.1685 86.3187 57.7729 86.556C57.3839 86.7934 56.9488 86.912 56.4675 86.912C55.9994 86.912 55.5873 86.8098 55.2313 86.6055C54.8819 86.4011 54.6182 86.1407 54.4402 85.8242V86.823H53.5402V79.5049H54.4402V82.4124ZM58.119 84.0936C58.119 83.6848 58.0366 83.3288 57.8718 83.0255C57.707 82.7222 57.4828 82.4915 57.1993 82.3332C56.9224 82.175 56.6158 82.0959 56.2796 82.0959C55.95 82.0959 55.6434 82.1783 55.3599 82.3431C55.083 82.5014 54.8588 82.7354 54.6874 83.0453C54.5226 83.3486 54.4402 83.7013 54.4402 84.1034C54.4402 84.5122 54.5226 84.8715 54.6874 85.1814C54.8588 85.4847 55.083 85.7187 55.3599 85.8835C55.6434 86.0418 55.95 86.1209 56.2796 86.1209C56.6158 86.1209 56.9224 86.0418 57.1993 85.8835C57.4828 85.7187 57.707 85.4847 57.8718 85.1814C58.0366 84.8715 58.119 84.5089 58.119 84.0936ZM65.0295 81.4036V86.823H64.1296V86.022C63.9582 86.2989 63.7176 86.5165 63.4077 86.6747C63.1044 86.8263 62.7682 86.9021 62.399 86.9021C61.977 86.9021 61.5979 86.8164 61.2617 86.645C60.9255 86.467 60.6584 86.2033 60.4607 85.8539C60.2695 85.5044 60.1739 85.0792 60.1739 84.5781V81.4036H61.0639V84.4595C61.0639 84.9935 61.1991 85.4056 61.4694 85.6956C61.7397 85.9791 62.1089 86.1209 62.577 86.1209C63.0583 86.1209 63.4374 85.9725 63.7143 85.6759C63.9912 85.3792 64.1296 84.9473 64.1296 84.3804V81.4036H65.0295ZM66.2128 84.1034C66.2128 83.5431 66.3249 83.0552 66.549 82.6398C66.7732 82.2179 67.0831 81.8915 67.4786 81.6608C67.8808 81.43 68.339 81.3146 68.8533 81.3146C69.5191 81.3146 70.0664 81.4762 70.4949 81.7992C70.93 82.1223 71.2168 82.5706 71.3553 83.1442H70.3861C70.2938 82.8145 70.1125 82.5541 69.8422 82.3629C69.5785 82.1717 69.2488 82.0761 68.8533 82.0761C68.339 82.0761 67.9237 82.2541 67.6072 82.6102C67.2907 82.9596 67.1325 83.4573 67.1325 84.1034C67.1325 84.7561 67.2907 85.2605 67.6072 85.6165C67.9237 85.9725 68.339 86.1506 68.8533 86.1506C69.2488 86.1506 69.5785 86.0582 69.8422 85.8736C70.1059 85.689 70.2872 85.4253 70.3861 85.0825H71.3553C71.2102 85.6363 70.9201 86.0813 70.485 86.4176C70.0499 86.7472 69.506 86.912 68.8533 86.912C68.339 86.912 67.8808 86.7967 67.4786 86.5659C67.0831 86.3352 66.7732 86.0088 66.549 85.5869C66.3249 85.1649 66.2128 84.6704 66.2128 84.1034ZM75.5822 86.823L73.456 84.4298V86.823H72.5561V79.5049H73.456V83.8068L75.5427 81.4036H76.7986L74.2471 84.1034L76.8085 86.823H75.5822ZM79.5642 86.912C79.1488 86.912 78.7763 86.8428 78.4467 86.7044C78.117 86.5593 77.8566 86.3615 77.6654 86.111C77.4742 85.8539 77.3687 85.5605 77.3489 85.2308H78.2785C78.3049 85.5011 78.4302 85.722 78.6543 85.8934C78.8851 86.0648 79.1851 86.1506 79.5543 86.1506C79.8971 86.1506 80.1674 86.0747 80.3652 85.9231C80.563 85.7715 80.6619 85.5803 80.6619 85.3495C80.6619 85.1122 80.5564 84.9375 80.3454 84.8254C80.1344 84.7067 79.8081 84.5913 79.3664 84.4792C78.9642 84.3738 78.6346 84.2683 78.3774 84.1628C78.1269 84.0507 77.9093 83.8892 77.7247 83.6782C77.5467 83.4606 77.4577 83.1771 77.4577 82.8277C77.4577 82.5508 77.5401 82.297 77.705 82.0662C77.8698 81.8355 78.1038 81.6542 78.4071 81.5223C78.7104 81.3839 79.0565 81.3146 79.4455 81.3146C80.0454 81.3146 80.53 81.4663 80.8992 81.7696C81.2684 82.0728 81.4662 82.4882 81.4926 83.0156H80.5927C80.5729 82.7321 80.4575 82.5047 80.2465 82.3332C80.0421 82.1618 79.7652 82.0761 79.4158 82.0761C79.0928 82.0761 78.8356 82.1454 78.6444 82.2838C78.4532 82.4223 78.3577 82.6036 78.3577 82.8277C78.3577 83.0057 78.4137 83.1541 78.5258 83.2727C78.6444 83.3848 78.7895 83.4771 78.9609 83.5496C79.1389 83.6156 79.3828 83.6914 79.6927 83.7771C80.0817 83.8826 80.3982 83.9881 80.6421 84.0936C80.886 84.1925 81.0937 84.3441 81.2651 84.5485C81.4431 84.7529 81.5354 85.0199 81.542 85.3495C81.542 85.6462 81.4596 85.9132 81.2948 86.1506C81.13 86.3879 80.8959 86.5758 80.5927 86.7142C80.296 86.8461 79.9531 86.912 79.5642 86.912ZM85.1127 83.3716C85.1127 82.6992 85.2644 82.0959 85.5676 81.5619C85.8709 81.0213 86.283 80.5993 86.8038 80.296C87.3312 79.9928 87.9147 79.8411 88.5542 79.8411C89.3058 79.8411 89.9618 80.0224 90.5222 80.385C91.0826 80.7477 91.4914 81.2619 91.7485 81.9278H90.6705C90.4794 81.5124 90.2024 81.1927 89.8398 80.9685C89.4838 80.7444 89.0553 80.6323 88.5542 80.6323C88.0729 80.6323 87.6411 80.7444 87.2587 80.9685C86.8763 81.1927 86.5763 81.5124 86.3588 81.9278C86.1412 82.3365 86.0324 82.8178 86.0324 83.3716C86.0324 83.9188 86.1412 84.4001 86.3588 84.8155C86.5763 85.2242 86.8763 85.5407 87.2587 85.7649C87.6411 85.989 88.0729 86.1011 88.5542 86.1011C89.0553 86.1011 89.4838 85.9923 89.8398 85.7748C90.2024 85.5506 90.4794 85.2308 90.6705 84.8155H91.7485C91.4914 85.4748 91.0826 85.9857 90.5222 86.3483C89.9618 86.7044 89.3058 86.8824 88.5542 86.8824C87.9147 86.8824 87.3312 86.734 86.8038 86.4373C86.283 86.1341 85.8709 85.7154 85.5676 85.1814C85.2644 84.6474 85.1127 84.0441 85.1127 83.3716ZM95.4517 86.912C94.944 86.912 94.4825 86.7967 94.0672 86.5659C93.6584 86.3352 93.3353 86.0088 93.098 85.5869C92.8672 85.1583 92.7519 84.6638 92.7519 84.1034C92.7519 83.5496 92.8705 83.0618 93.1079 82.6398C93.3518 82.2113 93.6815 81.8849 94.0968 81.6608C94.5122 81.43 94.977 81.3146 95.4912 81.3146C96.0055 81.3146 96.4703 81.43 96.8856 81.6608C97.301 81.8849 97.6273 82.208 97.8647 82.6299C98.1086 83.0519 98.2306 83.5431 98.2306 84.1034C98.2306 84.6638 98.1053 85.1583 97.8548 85.5869C97.6109 86.0088 97.2779 86.3352 96.856 86.5659C96.434 86.7967 95.9659 86.912 95.4517 86.912ZM95.4517 86.1209C95.7747 86.1209 96.078 86.0451 96.3615 85.8934C96.645 85.7418 96.8724 85.5143 97.0439 85.2111C97.2219 84.9078 97.3109 84.5386 97.3109 84.1034C97.3109 83.6683 97.2252 83.2991 97.0538 82.9958C96.8823 82.6926 96.6582 82.4684 96.3813 82.3234C96.1044 82.1717 95.8044 82.0959 95.4813 82.0959C95.1517 82.0959 94.8484 82.1717 94.5715 82.3234C94.3012 82.4684 94.0836 82.6926 93.9188 82.9958C93.754 83.2991 93.6716 83.6683 93.6716 84.1034C93.6716 84.5452 93.7507 84.9177 93.9089 85.2209C94.0738 85.5242 94.2913 85.7517 94.5616 85.9033C94.8319 86.0484 95.1286 86.1209 95.4517 86.1209ZM100.314 82.2838C100.472 81.9739 100.696 81.7333 100.986 81.5619C101.283 81.3905 101.642 81.3048 102.064 81.3048V82.2344H101.827C100.818 82.2344 100.314 82.7816 100.314 83.876V86.823H99.4138V81.4036H100.314V82.2838ZM104.003 82.4025C104.181 82.0926 104.445 81.8355 104.794 81.6311C105.15 81.4201 105.562 81.3146 106.03 81.3146C106.512 81.3146 106.947 81.43 107.336 81.6608C107.731 81.8915 108.041 82.2179 108.265 82.6398C108.489 83.0552 108.602 83.5398 108.602 84.0936C108.602 84.6408 108.489 85.1286 108.265 85.5572C108.041 85.9857 107.731 86.3187 107.336 86.556C106.947 86.7934 106.512 86.912 106.03 86.912C105.569 86.912 105.16 86.8098 104.804 86.6055C104.455 86.3945 104.188 86.1341 104.003 85.8242V89.3943H103.103V81.4036H104.003V82.4025ZM107.682 84.0936C107.682 83.6848 107.599 83.3288 107.435 83.0255C107.27 82.7222 107.046 82.4915 106.762 82.3332C106.485 82.175 106.179 82.0959 105.842 82.0959C105.513 82.0959 105.206 82.1783 104.923 82.3431C104.646 82.5014 104.422 82.7354 104.25 83.0453C104.085 83.3486 104.003 83.7013 104.003 84.1034C104.003 84.5122 104.085 84.8715 104.25 85.1814C104.422 85.4847 104.646 85.7187 104.923 85.8835C105.206 86.0418 105.513 86.1209 105.842 86.1209C106.179 86.1209 106.485 86.0418 106.762 85.8835C107.046 85.7187 107.27 85.4847 107.435 85.1814C107.599 84.8715 107.682 84.5089 107.682 84.0936ZM112.15 86.912C111.642 86.912 111.181 86.7967 110.765 86.5659C110.356 86.3352 110.033 86.0088 109.796 85.5869C109.565 85.1583 109.45 84.6638 109.45 84.1034C109.45 83.5496 109.569 83.0618 109.806 82.6398C110.05 82.2113 110.379 81.8849 110.795 81.6608C111.21 81.43 111.675 81.3146 112.189 81.3146C112.703 81.3146 113.168 81.43 113.584 81.6608C113.999 81.8849 114.325 82.208 114.563 82.6299C114.807 83.0519 114.929 83.5431 114.929 84.1034C114.929 84.6638 114.803 85.1583 114.553 85.5869C114.309 86.0088 113.976 86.3352 113.554 86.5659C113.132 86.7967 112.664 86.912 112.15 86.912ZM112.15 86.1209C112.473 86.1209 112.776 86.0451 113.059 85.8934C113.343 85.7418 113.57 85.5143 113.742 85.2111C113.92 84.9078 114.009 84.5386 114.009 84.1034C114.009 83.6683 113.923 83.2991 113.752 82.9958C113.58 82.6926 113.356 82.4684 113.079 82.3234C112.802 82.1717 112.502 82.0959 112.179 82.0959C111.85 82.0959 111.546 82.1717 111.27 82.3234C110.999 82.4684 110.782 82.6926 110.617 82.9958C110.452 83.2991 110.37 83.6683 110.37 84.1034C110.37 84.5452 110.449 84.9177 110.607 85.2209C110.772 85.5242 110.989 85.7517 111.26 85.9033C111.53 86.0484 111.827 86.1209 112.15 86.1209ZM117.012 82.2838C117.17 81.9739 117.394 81.7333 117.684 81.5619C117.981 81.3905 118.34 81.3048 118.762 81.3048V82.2344H118.525C117.516 82.2344 117.012 82.7816 117.012 83.876V86.823H116.112V81.4036H117.012V82.2838ZM119.465 84.0936C119.465 83.5398 119.577 83.0552 119.801 82.6398C120.025 82.2179 120.332 81.8915 120.721 81.6608C121.116 81.43 121.555 81.3146 122.036 81.3146C122.511 81.3146 122.923 81.4168 123.272 81.6212C123.622 81.8256 123.882 82.0827 124.053 82.3926V81.4036H124.963V86.823H124.053V85.8143C123.875 86.1308 123.608 86.3945 123.252 86.6055C122.903 86.8098 122.494 86.912 122.026 86.912C121.545 86.912 121.11 86.7934 120.721 86.556C120.332 86.3187 120.025 85.9857 119.801 85.5572C119.577 85.1286 119.465 84.6408 119.465 84.0936ZM124.053 84.1034C124.053 83.6947 123.971 83.3387 123.806 83.0354C123.641 82.7321 123.417 82.5014 123.134 82.3431C122.857 82.1783 122.55 82.0959 122.214 82.0959C121.878 82.0959 121.571 82.175 121.294 82.3332C121.017 82.4915 120.797 82.7222 120.632 83.0255C120.467 83.3288 120.385 83.6848 120.385 84.0936C120.385 84.5089 120.467 84.8715 120.632 85.1814C120.797 85.4847 121.017 85.7187 121.294 85.8835C121.571 86.0418 121.878 86.1209 122.214 86.1209C122.55 86.1209 122.857 86.0418 123.134 85.8835C123.417 85.7187 123.641 85.4847 123.806 85.1814C123.971 84.8715 124.053 84.5122 124.053 84.1034ZM127.582 82.1454V85.3396C127.582 85.6033 127.638 85.7912 127.75 85.9033C127.862 86.0088 128.057 86.0615 128.333 86.0615H128.996V86.823H128.185C127.684 86.823 127.308 86.7077 127.058 86.4769C126.807 86.2461 126.682 85.8671 126.682 85.3396V82.1454H125.98V81.4036H126.682V80.0389H127.582V81.4036H128.996V82.1454H127.582ZM130.551 80.5235C130.38 80.5235 130.235 80.4642 130.116 80.3455C129.997 80.2268 129.938 80.0818 129.938 79.9104C129.938 79.7389 129.997 79.5939 130.116 79.4752C130.235 79.3565 130.38 79.2972 130.551 79.2972C130.716 79.2972 130.854 79.3565 130.967 79.4752C131.085 79.5939 131.145 79.7389 131.145 79.9104C131.145 80.0818 131.085 80.2268 130.967 80.3455C130.854 80.4642 130.716 80.5235 130.551 80.5235ZM130.986 81.4036V86.823H130.086V81.4036H130.986ZM134.884 86.912C134.376 86.912 133.914 86.7967 133.499 86.5659C133.09 86.3352 132.767 86.0088 132.53 85.5869C132.299 85.1583 132.184 84.6638 132.184 84.1034C132.184 83.5496 132.303 83.0618 132.54 82.6398C132.784 82.2113 133.113 81.8849 133.529 81.6608C133.944 81.43 134.409 81.3146 134.923 81.3146C135.437 81.3146 135.902 81.43 136.318 81.6608C136.733 81.8849 137.059 82.208 137.297 82.6299C137.541 83.0519 137.663 83.5431 137.663 84.1034C137.663 84.6638 137.537 85.1583 137.287 85.5869C137.043 86.0088 136.71 86.3352 136.288 86.5659C135.866 86.7967 135.398 86.912 134.884 86.912ZM134.884 86.1209C135.207 86.1209 135.51 86.0451 135.793 85.8934C136.077 85.7418 136.304 85.5143 136.476 85.2111C136.654 84.9078 136.743 84.5386 136.743 84.1034C136.743 83.6683 136.657 83.2991 136.486 82.9958C136.314 82.6926 136.09 82.4684 135.813 82.3234C135.536 82.1717 135.236 82.0959 134.913 82.0959C134.584 82.0959 134.28 82.1717 134.003 82.3234C133.733 82.4684 133.516 82.6926 133.351 82.9958C133.186 83.2991 133.104 83.6683 133.104 84.1034C133.104 84.5452 133.183 84.9177 133.341 85.2209C133.506 85.5242 133.723 85.7517 133.994 85.9033C134.264 86.0484 134.561 86.1209 134.884 86.1209ZM141.486 81.3048C142.146 81.3048 142.68 81.5058 143.088 81.908C143.497 82.3036 143.702 82.8772 143.702 83.6288V86.823H142.811V83.7573C142.811 83.2167 142.676 82.8046 142.406 82.5211C142.136 82.2311 141.766 82.086 141.298 82.086C140.824 82.086 140.445 82.2344 140.161 82.531C139.884 82.8277 139.746 83.2596 139.746 83.8265V86.823H138.846V81.4036H139.746V82.175C139.924 81.8981 140.164 81.6838 140.468 81.5322C140.778 81.3806 141.117 81.3048 141.486 81.3048Z" fill="white"/>
<path d="M233.915 67.2321C233.229 66.8893 232.886 66.3487 232.886 65.6103C232.886 65.2543 232.975 64.9279 233.153 64.6312C233.331 64.3346 233.598 64.1005 233.954 63.9291C234.31 63.7511 234.745 63.6621 235.26 63.6621C235.767 63.6621 236.199 63.7511 236.555 63.9291C236.918 64.1005 237.188 64.3346 237.366 64.6312C237.544 64.9279 237.633 65.2543 237.633 65.6103C237.633 65.9795 237.538 66.3058 237.346 66.5893C237.162 66.8662 236.915 67.0805 236.605 67.2321C236.98 67.3706 237.277 67.5981 237.495 67.9145C237.712 68.2244 237.821 68.5903 237.821 69.0122C237.821 69.4408 237.712 69.8199 237.495 70.1495C237.277 70.4792 236.974 70.733 236.585 70.911C236.196 71.089 235.754 71.178 235.26 71.178C234.765 71.178 234.323 71.089 233.935 70.911C233.552 70.733 233.252 70.4792 233.035 70.1495C232.817 69.8199 232.708 69.4408 232.708 69.0122C232.708 68.5837 232.817 68.2145 233.035 67.9046C233.252 67.5948 233.546 67.3706 233.915 67.2321ZM236.555 65.7487C236.555 65.3795 236.44 65.096 236.209 64.8983C235.978 64.7005 235.662 64.6016 235.26 64.6016C234.864 64.6016 234.551 64.7005 234.32 64.8983C234.089 65.096 233.974 65.3828 233.974 65.7586C233.974 66.0883 234.093 66.3586 234.33 66.5696C234.574 66.7739 234.884 66.8761 235.26 66.8761C235.635 66.8761 235.945 66.7706 236.189 66.5597C236.433 66.3487 236.555 66.0784 236.555 65.7487ZM235.26 67.7266C234.825 67.7266 234.469 67.8354 234.192 68.053C233.921 68.2639 233.786 68.5705 233.786 68.9727C233.786 69.3485 233.918 69.655 234.182 69.8924C234.445 70.1231 234.805 70.2385 235.26 70.2385C235.708 70.2385 236.061 70.1198 236.318 69.8825C236.582 69.6452 236.713 69.3419 236.713 68.9727C236.713 68.5771 236.578 68.2705 236.308 68.053C236.044 67.8354 235.695 67.7266 235.26 67.7266ZM240.221 67.2321C239.535 66.8893 239.193 66.3487 239.193 65.6103C239.193 65.2543 239.282 64.9279 239.46 64.6312C239.638 64.3346 239.905 64.1005 240.261 63.9291C240.617 63.7511 241.052 63.6621 241.566 63.6621C242.074 63.6621 242.506 63.7511 242.862 63.9291C243.224 64.1005 243.495 64.3346 243.673 64.6312C243.851 64.9279 243.94 65.2543 243.94 65.6103C243.94 65.9795 243.844 66.3058 243.653 66.5893C243.468 66.8662 243.221 67.0805 242.911 67.2321C243.287 67.3706 243.584 67.5981 243.801 67.9145C244.019 68.2244 244.127 68.5903 244.127 69.0122C244.127 69.4408 244.019 69.8199 243.801 70.1495C243.584 70.4792 243.28 70.733 242.891 70.911C242.502 71.089 242.061 71.178 241.566 71.178C241.072 71.178 240.63 71.089 240.241 70.911C239.859 70.733 239.559 70.4792 239.341 70.1495C239.123 69.8199 239.015 69.4408 239.015 69.0122C239.015 68.5837 239.123 68.2145 239.341 67.9046C239.559 67.5948 239.852 67.3706 240.221 67.2321ZM242.862 65.7487C242.862 65.3795 242.746 65.096 242.515 64.8983C242.285 64.7005 241.968 64.6016 241.566 64.6016C241.171 64.6016 240.857 64.7005 240.627 64.8983C240.396 65.096 240.28 65.3828 240.28 65.7586C240.28 66.0883 240.399 66.3586 240.637 66.5696C240.88 66.7739 241.19 66.8761 241.566 66.8761C241.942 66.8761 242.252 66.7706 242.496 66.5597C242.74 66.3487 242.862 66.0784 242.862 65.7487ZM241.566 67.7266C241.131 67.7266 240.775 67.8354 240.498 68.053C240.228 68.2639 240.093 68.5705 240.093 68.9727C240.093 69.3485 240.224 69.655 240.488 69.8924C240.752 70.1231 241.111 70.2385 241.566 70.2385C242.014 70.2385 242.367 70.1198 242.624 69.8825C242.888 69.6452 243.02 69.3419 243.02 68.9727C243.02 68.5771 242.885 68.2705 242.614 68.053C242.351 67.8354 242.001 67.7266 241.566 67.7266ZM246.696 69.6452L245.499 72.3746H244.767L245.469 69.6452H246.696ZM247.513 65.5707C247.552 64.9576 247.786 64.4796 248.215 64.1368C248.65 63.7939 249.204 63.6225 249.876 63.6225C250.338 63.6225 250.737 63.7049 251.073 63.8698C251.409 64.0346 251.663 64.2587 251.834 64.5422C252.006 64.8257 252.091 65.1455 252.091 65.5015C252.091 65.9103 251.983 66.2597 251.765 66.5498C251.548 66.8399 251.287 67.0344 250.984 67.1333V67.1728C251.373 67.2915 251.676 67.509 251.894 67.8255C252.111 68.1354 252.22 68.5342 252.22 69.0221C252.22 69.4111 252.131 69.7572 251.953 70.0605C251.775 70.3638 251.511 70.6044 251.162 70.7824C250.812 70.9538 250.394 71.0396 249.906 71.0396C249.194 71.0396 248.607 70.8583 248.146 70.4956C247.691 70.1264 247.447 69.599 247.414 68.9133H248.502C248.528 69.2628 248.663 69.5496 248.907 69.7737C249.151 69.9913 249.481 70.1001 249.896 70.1001C250.298 70.1001 250.608 69.9913 250.826 69.7737C251.043 69.5496 251.152 69.2628 251.152 68.9133C251.152 68.4518 251.004 68.1255 250.707 67.9343C250.417 67.7365 249.968 67.6376 249.362 67.6376H249.105V66.708H249.372C249.906 66.7014 250.311 66.6124 250.588 66.441C250.872 66.2696 251.013 65.9993 251.013 65.6301C251.013 65.3136 250.911 65.0631 250.707 64.8785C250.503 64.6873 250.212 64.5917 249.837 64.5917C249.467 64.5917 249.181 64.6873 248.976 64.8785C248.772 65.0631 248.65 65.2938 248.61 65.5707H247.513ZM254.621 67.2321C253.935 66.8893 253.592 66.3487 253.592 65.6103C253.592 65.2543 253.681 64.9279 253.859 64.6312C254.037 64.3346 254.304 64.1005 254.66 63.9291C255.016 63.7511 255.451 63.6621 255.966 63.6621C256.473 63.6621 256.905 63.7511 257.261 63.9291C257.624 64.1005 257.894 64.3346 258.072 64.6312C258.25 64.9279 258.339 65.2543 258.339 65.6103C258.339 65.9795 258.243 66.3058 258.052 66.5893C257.868 66.8662 257.62 67.0805 257.311 67.2321C257.686 67.3706 257.983 67.5981 258.201 67.9145C258.418 68.2244 258.527 68.5903 258.527 69.0122C258.527 69.4408 258.418 69.8199 258.201 70.1495C257.983 70.4792 257.68 70.733 257.291 70.911C256.902 71.089 256.46 71.178 255.966 71.178C255.471 71.178 255.029 71.089 254.64 70.911C254.258 70.733 253.958 70.4792 253.74 70.1495C253.523 69.8199 253.414 69.4408 253.414 69.0122C253.414 68.5837 253.523 68.2145 253.74 67.9046C253.958 67.5948 254.251 67.3706 254.621 67.2321ZM257.261 65.7487C257.261 65.3795 257.146 65.096 256.915 64.8983C256.684 64.7005 256.368 64.6016 255.966 64.6016C255.57 64.6016 255.257 64.7005 255.026 64.8983C254.795 65.096 254.68 65.3828 254.68 65.7586C254.68 66.0883 254.799 66.3586 255.036 66.5696C255.28 66.7739 255.59 66.8761 255.966 66.8761C256.341 66.8761 256.651 66.7706 256.895 66.5597C257.139 66.3487 257.261 66.0784 257.261 65.7487ZM255.966 67.7266C255.53 67.7266 255.174 67.8354 254.898 68.053C254.627 68.2639 254.492 68.5705 254.492 68.9727C254.492 69.3485 254.624 69.655 254.888 69.8924C255.151 70.1231 255.511 70.2385 255.966 70.2385C256.414 70.2385 256.767 70.1198 257.024 69.8825C257.287 69.6452 257.419 69.3419 257.419 68.9727C257.419 68.5771 257.284 68.2705 257.014 68.053C256.75 67.8354 256.401 67.7266 255.966 67.7266Z" fill="white"/>
<path d="M237.499 83.7276H235.501V85.7747H234.453V83.7276H232.455V82.7783H234.453V80.7312H235.501V82.7783H237.499V83.7276ZM239.099 83.1244C239.099 81.9838 239.291 81.0938 239.673 80.4543C240.062 79.8081 240.728 79.4851 241.671 79.4851C242.613 79.4851 243.276 79.8081 243.658 80.4543C244.047 81.0938 244.242 81.9838 244.242 83.1244C244.242 84.2781 244.047 85.1814 243.658 85.8341C243.276 86.4802 242.613 86.8032 241.671 86.8032C240.728 86.8032 240.062 86.4802 239.673 85.8341C239.291 85.1814 239.099 84.2781 239.099 83.1244ZM243.134 83.1244C243.134 82.5904 243.098 82.1387 243.025 81.7695C242.96 81.4003 242.821 81.1004 242.61 80.8696C242.399 80.6323 242.086 80.5136 241.671 80.5136C241.255 80.5136 240.942 80.6323 240.731 80.8696C240.52 81.1004 240.378 81.4003 240.306 81.7695C240.24 82.1387 240.207 82.5904 240.207 83.1244C240.207 83.6782 240.24 84.143 240.306 84.5188C240.372 84.8946 240.51 85.1979 240.721 85.4286C240.939 85.6594 241.255 85.7747 241.671 85.7747C242.086 85.7747 242.399 85.6594 242.61 85.4286C242.828 85.1979 242.969 84.8946 243.035 84.5188C243.101 84.143 243.134 83.6782 243.134 83.1244ZM246.819 85.4682L245.623 88.1976H244.891L245.593 85.4682H246.819ZM251.533 81.285C251.46 80.9817 251.328 80.7542 251.137 80.6026C250.946 80.451 250.679 80.3751 250.336 80.3751C249.815 80.3751 249.426 80.5762 249.169 80.9784C248.912 81.374 248.777 82.0333 248.764 82.9563C248.935 82.6662 249.186 82.442 249.515 82.2838C249.845 82.1256 250.201 82.0464 250.583 82.0464C251.018 82.0464 251.401 82.142 251.73 82.3332C252.067 82.5178 252.327 82.7881 252.512 83.1442C252.703 83.5002 252.798 83.9254 252.798 84.4199C252.798 84.8814 252.706 85.2935 252.522 85.6561C252.344 86.0187 252.077 86.3055 251.721 86.5164C251.365 86.7208 250.936 86.823 250.435 86.823C249.756 86.823 249.222 86.6747 248.833 86.378C248.45 86.0747 248.18 85.6495 248.022 85.1023C247.87 84.555 247.794 83.8727 247.794 83.0552C247.794 80.6421 248.645 79.4356 250.346 79.4356C251.005 79.4356 251.523 79.6137 251.899 79.9697C252.281 80.3257 252.505 80.7641 252.571 81.285H251.533ZM250.336 82.9958C249.934 82.9958 249.591 83.1178 249.308 83.3617C249.031 83.5991 248.892 83.9452 248.892 84.4001C248.892 84.855 249.021 85.2176 249.278 85.4879C249.542 85.7517 249.907 85.8835 250.376 85.8835C250.791 85.8835 251.117 85.755 251.355 85.4978C251.599 85.2407 251.721 84.8979 251.721 84.4693C251.721 84.021 251.602 83.665 251.365 83.4013C251.134 83.131 250.791 82.9958 250.336 82.9958ZM258.57 80.4839L255.821 86.823H254.683L257.462 80.6026H253.803V79.6433H258.57V80.4839Z" fill="#23B66F"/>
<path d="M155.628 82.2771L161.562 70.1323L163.21 73.6023L164.859 72.9083L167.496 77.7662L172.111 69.4383L175.078 68.7443L176.396 65.2744L178.044 68.7443L179.693 66.3153L181.011 68.7443H182.33L183.978 66.3153L185.626 68.7443C187.274 67.125 191.032 65.3438 192.878 71.1733C193.648 68.86 195.647 65.2744 197.493 69.4383L198.812 65.2744H202.109L203.097 68.7443L204.746 69.4383L206.064 76.3782L207.712 73.6023L210.35 77.7662L212.328 73.6023L213.646 77.0722" stroke="#23B66F" stroke-width="1.31858" stroke-linecap="round" stroke-linejoin="round"/>
<path opacity="0.3" d="M161.562 70.7916L155.628 82.9364V85.7124H213.646V77.7315L212.327 74.2615L210.349 78.4255L207.712 74.2615L206.064 77.0375L204.745 70.0976L203.097 69.4036L202.108 65.9336H198.812L197.493 70.0976C195.647 65.9336 193.647 69.5192 192.878 71.8326C191.032 66.003 187.274 67.7843 185.626 69.4036L183.977 66.9746L182.329 69.4036H181.011L179.692 66.9746L178.044 69.4036L176.396 65.9336L175.077 69.4036L172.11 70.0976L167.495 78.4255L164.858 73.5675L163.21 74.2615L161.562 70.7916Z" fill="url(#paint1_linear)"/>
<path d="M155.628 83.0752H213.646" stroke="#23B66F" stroke-width="0.659292" stroke-dasharray="2.64 3.3"/>
<rect width="242" height="54" rx="14" fill="url(#paint2_linear)"/>
<path d="M15.2423 23H13.9646L10.1203 17.1831V23H8.84255V15.1993H10.1203L13.9646 21.005V15.1993H15.2423V23ZM21.2128 23L18.1979 19.5143V23H16.9202V15.2105H18.1979V18.7634L21.224 15.2105H22.8268L19.442 19.1108L22.8828 23H21.2128ZM25.2904 16.2416V18.528H27.9803V19.5704H25.2904V21.9577H28.3166V23H24.0127V15.1993H28.3166V16.2416H25.2904Z" fill="white"/>
<path opacity="0.7" d="M14.1809 37.823H13.2809L9.66142 32.3344V37.823H8.76148V30.9202H9.66142L13.2809 36.399V30.9202H14.1809V37.823ZM16.6149 30.9301V37.823H15.715V30.9301H16.6149ZM21.8869 37.823L19.0486 34.6782V37.823H18.1487V30.9301H19.0486V34.1244L21.8967 30.9301H23.034L19.909 34.3815L23.0637 37.823H21.8869ZM24.9687 31.6619V33.9662H27.4806V34.7079H24.9687V37.0813H27.7773V37.823H24.0688V30.9202H27.7773V31.6619H24.9687ZM30.0686 36.577L28.961 39.2372H28.3578L29.0797 36.577H30.0686ZM34.636 30.9301V37.823H33.736V30.9301H34.636ZM38.8102 32.3048C39.4695 32.3048 40.0035 32.5058 40.4123 32.908C40.8211 33.3036 41.0254 33.8772 41.0254 34.6288V37.823H40.1354V34.7573C40.1354 34.2167 40.0002 33.8046 39.7299 33.5211C39.4596 33.2311 39.0904 33.086 38.6223 33.086C38.1476 33.086 37.7685 33.2344 37.485 33.531C37.2081 33.8277 37.0697 34.2596 37.0697 34.8265V37.823H36.1697V32.4036H37.0697V33.175C37.2477 32.8981 37.4883 32.6838 37.7916 32.5322C38.1015 32.3806 38.441 32.3048 38.8102 32.3048ZM42.1592 35.1034C42.1592 34.5431 42.2713 34.0552 42.4955 33.6398C42.7196 33.2179 43.0295 32.8915 43.4251 32.6608C43.8272 32.43 44.2855 32.3146 44.7997 32.3146C45.4656 32.3146 46.0128 32.4762 46.4413 32.7992C46.8765 33.1223 47.1633 33.5706 47.3017 34.1442H46.3326C46.2403 33.8145 46.0589 33.5541 45.7886 33.3629C45.5249 33.1717 45.1953 33.0761 44.7997 33.0761C44.2855 33.0761 43.8701 33.2541 43.5536 33.6102C43.2372 33.9596 43.0789 34.4573 43.0789 35.1034C43.0789 35.7561 43.2372 36.2605 43.5536 36.6165C43.8701 36.9725 44.2855 37.1506 44.7997 37.1506C45.1953 37.1506 45.5249 37.0582 45.7886 36.8736C46.0524 36.689 46.2337 36.4253 46.3326 36.0825H47.3017C47.1567 36.6363 46.8666 37.0813 46.4314 37.4176C45.9963 37.7472 45.4524 37.912 44.7997 37.912C44.2855 37.912 43.8272 37.7967 43.4251 37.5659C43.0295 37.3352 42.7196 37.0088 42.4955 36.5869C42.2713 36.1649 42.1592 35.6704 42.1592 35.1034ZM48.7893 37.8824C48.6179 37.8824 48.4728 37.823 48.3542 37.7044C48.2355 37.5857 48.1762 37.4406 48.1762 37.2692C48.1762 37.0978 48.2355 36.9528 48.3542 36.8341C48.4728 36.7154 48.6179 36.6561 48.7893 36.6561C48.9541 36.6561 49.0926 36.7154 49.2046 36.8341C49.3233 36.9528 49.3827 37.0978 49.3827 37.2692C49.3827 37.4406 49.3233 37.5857 49.2046 37.7044C49.0926 37.823 48.9541 37.8824 48.7893 37.8824Z" fill="white"/>
<path d="M206.232 16.4784V15.4499H208.289V22.6593H207.152V16.4784H206.232ZM209.69 16.4784V15.4499H211.747V22.6593H210.609V16.4784H209.69ZM214.512 18.8914C213.826 18.5486 213.483 18.008 213.483 17.2696C213.483 16.9135 213.572 16.5872 213.75 16.2905C213.928 15.9938 214.195 15.7598 214.551 15.5884C214.907 15.4104 215.342 15.3213 215.857 15.3213C216.364 15.3213 216.796 15.4104 217.152 15.5884C217.515 15.7598 217.785 15.9938 217.963 16.2905C218.141 16.5872 218.23 16.9135 218.23 17.2696C218.23 17.6388 218.135 17.9651 217.943 18.2486C217.759 18.5255 217.511 18.7398 217.202 18.8914C217.577 19.0299 217.874 19.2573 218.092 19.5738C218.309 19.8837 218.418 20.2496 218.418 20.6715C218.418 21.1 218.309 21.4791 218.092 21.8088C217.874 22.1384 217.571 22.3923 217.182 22.5703C216.793 22.7483 216.351 22.8373 215.857 22.8373C215.362 22.8373 214.92 22.7483 214.531 22.5703C214.149 22.3923 213.849 22.1384 213.632 21.8088C213.414 21.4791 213.305 21.1 213.305 20.6715C213.305 20.243 213.414 19.8738 213.632 19.5639C213.849 19.254 214.143 19.0299 214.512 18.8914ZM217.152 17.408C217.152 17.0388 217.037 16.7553 216.806 16.5575C216.575 16.3597 216.259 16.2608 215.857 16.2608C215.461 16.2608 215.148 16.3597 214.917 16.5575C214.686 16.7553 214.571 17.0421 214.571 17.4179C214.571 17.7475 214.69 18.0179 214.927 18.2288C215.171 18.4332 215.481 18.5354 215.857 18.5354C216.232 18.5354 216.542 18.4299 216.786 18.2189C217.03 18.008 217.152 17.7377 217.152 17.408ZM215.857 19.3859C215.422 19.3859 215.066 19.4947 214.789 19.7122C214.518 19.9232 214.383 20.2298 214.383 20.6319C214.383 21.0077 214.515 21.3143 214.779 21.5517C215.042 21.7824 215.402 21.8978 215.857 21.8978C216.305 21.8978 216.658 21.7791 216.915 21.5418C217.179 21.3044 217.31 21.0012 217.31 20.6319C217.31 20.2364 217.175 19.9298 216.905 19.7122C216.641 19.4947 216.292 19.3859 215.857 19.3859ZM220.986 21.3044L219.79 24.0339H219.058L219.76 21.3044H220.986ZM226.471 16.4191H223.158V18.3871C223.296 18.2025 223.501 18.0475 223.771 17.9223C224.048 17.797 224.341 17.7344 224.651 17.7344C225.205 17.7344 225.653 17.853 225.996 18.0904C226.346 18.3277 226.593 18.6277 226.738 18.9903C226.89 19.3529 226.965 19.7353 226.965 20.1375C226.965 20.6254 226.87 21.0605 226.679 21.4429C226.494 21.8187 226.214 22.1154 225.838 22.3329C225.469 22.5505 225.014 22.6593 224.473 22.6593C223.755 22.6593 223.178 22.4813 222.743 22.1252C222.308 21.7692 222.047 21.2978 221.961 20.7111H223.059C223.132 21.0209 223.293 21.2682 223.544 21.4528C223.794 21.6308 224.107 21.7198 224.483 21.7198C224.951 21.7198 225.301 21.578 225.531 21.2945C225.769 21.011 225.888 20.6352 225.888 20.1671C225.888 19.6925 225.769 19.3298 225.531 19.0793C225.294 18.8222 224.945 18.6936 224.483 18.6936C224.16 18.6936 223.887 18.776 223.662 18.9409C223.445 19.0991 223.287 19.3167 223.188 19.5936H222.12V15.4301H226.471V16.4191ZM229.543 20.7012C229.609 21.0308 229.751 21.2814 229.969 21.4528C230.186 21.6242 230.48 21.7099 230.849 21.7099C231.317 21.7099 231.66 21.5253 231.877 21.1561C232.095 20.7869 232.204 20.1573 232.204 19.2672C232.045 19.4914 231.821 19.6661 231.531 19.7914C231.248 19.91 230.938 19.9694 230.601 19.9694C230.173 19.9694 229.784 19.8837 229.435 19.7122C229.085 19.5342 228.808 19.2738 228.604 18.931C228.406 18.5815 228.307 18.1596 228.307 17.6651C228.307 16.9399 228.518 16.363 228.94 15.9345C229.369 15.4994 229.955 15.2818 230.7 15.2818C231.597 15.2818 232.233 15.5818 232.609 16.1817C232.991 16.7751 233.183 17.6882 233.183 18.9211C233.183 19.7716 233.11 20.4671 232.965 21.0077C232.827 21.5484 232.583 21.9571 232.233 22.234C231.884 22.5109 231.399 22.6494 230.78 22.6494C230.074 22.6494 229.53 22.4648 229.148 22.0956C228.765 21.7264 228.551 21.2616 228.505 20.7012H229.543ZM230.799 19.02C231.195 19.02 231.505 18.898 231.729 18.6541C231.96 18.4035 232.075 18.0739 232.075 17.6651C232.075 17.2102 231.953 16.8575 231.709 16.607C231.472 16.3498 231.145 16.2213 230.73 16.2213C230.315 16.2213 229.985 16.3531 229.741 16.6169C229.504 16.874 229.385 17.2135 229.385 17.6355C229.385 18.0376 229.5 18.3706 229.731 18.6343C229.969 18.8914 230.325 19.02 230.799 19.02Z" fill="white"/>
<path d="M212.031 34.4277V35.3771H207.966V34.4277H212.031ZM213.484 34.7837C213.484 33.6431 213.675 32.7531 214.058 32.1136C214.447 31.4675 215.113 31.1444 216.055 31.1444C216.998 31.1444 217.661 31.4675 218.043 32.1136C218.432 32.7531 218.627 33.6431 218.627 34.7837C218.627 35.9375 218.432 36.8407 218.043 37.4934C217.661 38.1395 216.998 38.4626 216.055 38.4626C215.113 38.4626 214.447 38.1395 214.058 37.4934C213.675 36.8407 213.484 35.9375 213.484 34.7837ZM217.519 34.7837C217.519 34.2497 217.483 33.7981 217.41 33.4289C217.344 33.0597 217.206 32.7597 216.995 32.5289C216.784 32.2916 216.471 32.1729 216.055 32.1729C215.64 32.1729 215.327 32.2916 215.116 32.5289C214.905 32.7597 214.763 33.0597 214.691 33.4289C214.625 33.7981 214.592 34.2497 214.592 34.7837C214.592 35.3375 214.625 35.8023 214.691 36.1781C214.757 36.5539 214.895 36.8572 215.106 37.0879C215.324 37.3187 215.64 37.4341 216.055 37.4341C216.471 37.4341 216.784 37.3187 216.995 37.0879C217.213 36.8572 217.354 36.5539 217.42 36.1781C217.486 35.8023 217.519 35.3375 217.519 34.7837ZM221.204 37.1275L220.008 39.857H219.276L219.978 37.1275H221.204ZM225.917 32.9443C225.845 32.641 225.713 32.4135 225.522 32.2619C225.331 32.1103 225.064 32.0345 224.721 32.0345C224.2 32.0345 223.811 32.2355 223.554 32.6377C223.297 33.0333 223.162 33.6926 223.148 34.6156C223.32 34.3255 223.57 34.1013 223.9 33.9431C224.23 33.7849 224.586 33.7058 224.968 33.7058C225.403 33.7058 225.786 33.8014 226.115 33.9926C226.452 34.1772 226.712 34.4475 226.897 34.8035C227.088 35.1595 227.183 35.5847 227.183 36.0792C227.183 36.5407 227.091 36.9528 226.906 37.3154C226.728 37.678 226.461 37.9648 226.105 38.1758C225.749 38.3801 225.321 38.4823 224.82 38.4823C224.141 38.4823 223.607 38.334 223.218 38.0373C222.835 37.734 222.565 37.3088 222.407 36.7616C222.255 36.2144 222.179 35.532 222.179 34.7145C222.179 32.3015 223.03 31.095 224.731 31.095C225.39 31.095 225.908 31.273 226.283 31.629C226.666 31.985 226.89 32.4234 226.956 32.9443H225.917ZM224.721 34.6551C224.319 34.6551 223.976 34.7771 223.692 35.021C223.415 35.2584 223.277 35.6045 223.277 36.0594C223.277 36.5143 223.406 36.877 223.663 37.1473C223.926 37.411 224.292 37.5428 224.76 37.5428C225.176 37.5428 225.502 37.4143 225.739 37.1572C225.983 36.9 226.105 36.5572 226.105 36.1287C226.105 35.6803 225.987 35.3243 225.749 35.0606C225.519 34.7903 225.176 34.6551 224.721 34.6551ZM229.602 34.7145C228.917 34.3716 228.574 33.831 228.574 33.0926C228.574 32.7366 228.663 32.4102 228.841 32.1136C229.019 31.8169 229.286 31.5828 229.642 31.4114C229.998 31.2334 230.433 31.1444 230.947 31.1444C231.455 31.1444 231.887 31.2334 232.243 31.4114C232.605 31.5828 232.876 31.8169 233.054 32.1136C233.232 32.4102 233.321 32.7366 233.321 33.0926C233.321 33.4618 233.225 33.7882 233.034 34.0717C232.849 34.3486 232.602 34.5628 232.292 34.7145C232.668 34.8529 232.965 35.0804 233.182 35.3968C233.4 35.7067 233.509 36.0726 233.509 36.4946C233.509 36.9231 233.4 37.3022 233.182 37.6318C232.965 37.9615 232.661 38.2153 232.272 38.3933C231.883 38.5713 231.442 38.6603 230.947 38.6603C230.453 38.6603 230.011 38.5713 229.622 38.3933C229.24 38.2153 228.94 37.9615 228.722 37.6318C228.505 37.3022 228.396 36.9231 228.396 36.4946C228.396 36.066 228.505 35.6968 228.722 35.387C228.94 35.0771 229.233 34.8529 229.602 34.7145ZM232.243 33.2311C232.243 32.8619 232.127 32.5784 231.897 32.3806C231.666 32.1828 231.349 32.0839 230.947 32.0839C230.552 32.0839 230.239 32.1828 230.008 32.3806C229.777 32.5784 229.662 32.8652 229.662 33.241C229.662 33.5706 229.78 33.8409 230.018 34.0519C230.262 34.2563 230.571 34.3585 230.947 34.3585C231.323 34.3585 231.633 34.253 231.877 34.042C232.121 33.831 232.243 33.5607 232.243 33.2311ZM230.947 35.2089C230.512 35.2089 230.156 35.3177 229.879 35.5353C229.609 35.7463 229.474 36.0528 229.474 36.455C229.474 36.8308 229.606 37.1374 229.869 37.3747C230.133 37.6055 230.492 37.7208 230.947 37.7208C231.396 37.7208 231.748 37.6022 232.005 37.3648C232.269 37.1275 232.401 36.8242 232.401 36.455C232.401 36.0594 232.266 35.7529 231.996 35.5353C231.732 35.3177 231.382 35.2089 230.947 35.2089Z" fill="#CF252F"/>
<path d="M130.961 22.9679L134.629 17.9394C135.852 20.0625 138.364 24.577 138.63 25.6497C138.897 26.7225 140.298 26.0967 140.964 25.6497L143.632 19.9508L146.633 22.2974L148.3 21.2917L148.967 22.2974L150.968 20.6212L152.635 23.9736C153.524 23.3031 155.636 22.1633 156.969 22.9679L158.637 19.9508L160.304 23.9736L164.638 25.6497L165.972 23.9736L167.306 26.6554L170.307 21.2917L172.307 22.2974L173.641 17.9394L175.642 16.9337L177.976 20.6212L179.643 19.2803L181.31 23.9736L182.644 22.2974L185.645 26.6554L187.312 21.2917L188.646 24.9793" stroke="#CF252F" stroke-width="1.31858" stroke-linecap="round" stroke-linejoin="round"/>
<path d="M134.629 18.6098L130.628 23.6383V36.7124H188.646V25.3145L187.312 21.9621L185.645 27.3259L182.644 22.9678L181.31 24.644L179.643 19.9507L177.976 21.2917L175.642 17.6041L173.641 18.6098L172.307 22.9678L170.307 21.9621L167.306 27.3259L165.972 24.644L164.638 26.3202L160.304 24.644L158.636 20.6212L156.969 23.6383C155.636 22.8337 153.524 23.9735 152.635 24.644L150.967 21.2917L148.967 22.9678L148.3 21.9621L146.633 22.9678L143.632 20.6212L140.964 26.3202C140.298 26.7671 138.897 27.3929 138.63 26.3202C138.364 25.2474 135.852 20.7329 134.629 18.6098Z" fill="url(#paint3_linear)" fill-opacity="0.4"/>
<path d="M130.628 18.2522H188.646" stroke="#CF252F" stroke-width="0.659292" stroke-dasharray="2.64 3.3"/>
<defs>
<linearGradient id="paint0_linear" x1="146" y1="49" x2="146" y2="103" gradientUnits="userSpaceOnUse">
<stop stop-color="#26284A"/>
<stop offset="1" stop-color="#1C1E3A" stop-opacity="0.67"/>
</linearGradient>
<linearGradient id="paint1_linear" x1="184.637" y1="65.9336" x2="184.637" y2="85.7124" gradientUnits="userSpaceOnUse">
<stop stop-color="#06BFA1"/>
<stop offset="1" stop-color="#06BFA1" stop-opacity="0"/>
</linearGradient>
<linearGradient id="paint2_linear" x1="121" y1="0" x2="121" y2="54" gradientUnits="userSpaceOnUse">
<stop stop-color="#26284A"/>
<stop offset="1" stop-color="#1E2040" stop-opacity="0.31"/>
</linearGradient>
<linearGradient id="paint3_linear" x1="159.637" y1="17.6041" x2="159.637" y2="36.7124" gradientUnits="userSpaceOnUse">
<stop stop-color="#F1424D"/>
<stop offset="1" stop-color="#F1424D" stop-opacity="0"/>
</linearGradient>
</defs>
</svg>
