<svg width="272" height="152" viewBox="0 0 272 152" fill="none" xmlns="http://www.w3.org/2000/svg">
<rect width="272" height="152" rx="14" fill="url(#paint0_linear)"/>
<rect opacity="0.2" x="11.6079" y="11.5809" width="248.789" height="28.9524" rx="14.4762" fill="#637793"/>
<path opacity="0.8" d="M25.5082 28.885C25.0744 28.885 24.6847 28.8096 24.3389 28.6587C23.9995 28.5016 23.7323 28.2878 23.5374 28.0175C23.3426 27.7409 23.242 27.4235 23.2357 27.0652H24.1504C24.1818 27.3732 24.3075 27.6341 24.5275 27.8478C24.7538 28.0553 25.0807 28.159 25.5082 28.159C25.9168 28.159 26.2374 28.0584 26.47 27.8572C26.7088 27.6498 26.8283 27.3858 26.8283 27.0652C26.8283 26.8137 26.7591 26.6094 26.6208 26.4523C26.4825 26.2951 26.3097 26.1757 26.1022 26.094C25.8948 26.0122 25.615 25.9242 25.263 25.8299C24.8293 25.7168 24.4804 25.6036 24.2164 25.4905C23.9586 25.3773 23.7355 25.2013 23.5469 24.9624C23.3646 24.7173 23.2734 24.3904 23.2734 23.9818C23.2734 23.6235 23.3646 23.306 23.5469 23.0294C23.7292 22.7528 23.9838 22.5391 24.3106 22.3882C24.6438 22.2374 25.0241 22.1619 25.4516 22.1619C26.0676 22.1619 26.5705 22.3159 26.9603 22.624C27.3563 22.932 27.5795 23.3406 27.6298 23.8498H26.6868C26.6554 23.5983 26.5234 23.3783 26.2908 23.1897C26.0582 22.9948 25.7502 22.8974 25.3667 22.8974C25.0084 22.8974 24.7161 22.9917 24.4898 23.1803C24.2635 23.3626 24.1504 23.6203 24.1504 23.9535C24.1504 24.1924 24.2164 24.3872 24.3484 24.5381C24.4867 24.689 24.6532 24.8053 24.8481 24.887C25.0493 24.9624 25.329 25.0504 25.6873 25.151C26.1211 25.2705 26.47 25.3899 26.734 25.5093C26.998 25.6225 27.2243 25.8016 27.4129 26.0468C27.6015 26.2857 27.6958 26.6126 27.6958 27.0275C27.6958 27.3481 27.6109 27.6498 27.4412 27.9327C27.2715 28.2156 27.02 28.445 26.6868 28.621C26.3537 28.797 25.9608 28.885 25.5082 28.885ZM33.6732 26.0374C33.6732 26.2008 33.6637 26.3737 33.6449 26.556H29.5148C29.5463 27.0652 29.7191 27.4643 30.0334 27.7535C30.354 28.0364 30.7406 28.1778 31.1933 28.1778C31.5641 28.1778 31.8722 28.093 32.1173 27.9232C32.3688 27.7472 32.5448 27.5146 32.6454 27.2255H33.5694C33.4311 27.7221 33.1546 28.1275 32.7397 28.4419C32.3248 28.7499 31.8093 28.9039 31.1933 28.9039C30.7029 28.9039 30.2629 28.7939 29.8731 28.5739C29.4897 28.3539 29.1879 28.0427 28.9679 27.6404C28.7479 27.2318 28.6379 26.7603 28.6379 26.226C28.6379 25.6916 28.7448 25.2233 28.9585 24.821C29.1722 24.4187 29.4708 24.1106 29.8543 23.8969C30.244 23.6769 30.6904 23.5669 31.1933 23.5669C31.6836 23.5669 32.1173 23.6738 32.4945 23.8875C32.8717 24.1012 33.1608 24.3967 33.362 24.7738C33.5694 25.1447 33.6732 25.5659 33.6732 26.0374ZM32.7868 25.8582C32.7868 25.5313 32.7145 25.2516 32.5699 25.019C32.4254 24.7801 32.2273 24.601 31.9759 24.4815C31.7307 24.3558 31.4573 24.293 31.1555 24.293C30.7218 24.293 30.3509 24.4312 30.0429 24.7078C29.7411 24.9844 29.5683 25.3679 29.5243 25.8582H32.7868ZM34.4852 26.2165C34.4852 25.6885 34.5921 25.2265 34.8058 24.8304C35.0195 24.4281 35.3118 24.1169 35.6827 23.8969C36.0599 23.6769 36.4779 23.5669 36.9368 23.5669C37.3894 23.5669 37.7823 23.6643 38.1155 23.8592C38.4487 24.0541 38.697 24.2992 38.8604 24.5947V23.6518H39.7279V28.819H38.8604V27.8572C38.6907 28.159 38.4361 28.4104 38.0966 28.6116C37.7635 28.8065 37.3737 28.9039 36.9274 28.9039C36.4685 28.9039 36.0536 28.7907 35.6827 28.5644C35.3118 28.3381 35.0195 28.0207 34.8058 27.6121C34.5921 27.2035 34.4852 26.7383 34.4852 26.2165ZM38.8604 26.226C38.8604 25.8362 38.7818 25.4968 38.6247 25.2076C38.4675 24.9184 38.2538 24.6984 37.9835 24.5475C37.7195 24.3904 37.4271 24.3118 37.1065 24.3118C36.786 24.3118 36.4936 24.3872 36.2296 24.5381C35.9656 24.689 35.755 24.909 35.5979 25.1982C35.4407 25.4873 35.3621 25.8268 35.3621 26.2165C35.3621 26.6126 35.4407 26.9583 35.5979 27.2538C35.755 27.5429 35.9656 27.7661 36.2296 27.9232C36.4936 28.0741 36.786 28.1495 37.1065 28.1495C37.4271 28.1495 37.7195 28.0741 37.9835 27.9232C38.2538 27.7661 38.4675 27.5429 38.6247 27.2538C38.7818 26.9583 38.8604 26.6157 38.8604 26.226ZM42.036 24.491C42.1869 24.1955 42.4006 23.9661 42.6772 23.8026C42.9601 23.6392 43.3027 23.5575 43.705 23.5575V24.4438H43.4787C42.5169 24.4438 42.036 24.9656 42.036 26.0091V28.819H41.178V23.6518H42.036V24.491ZM44.3749 26.226C44.3749 25.6916 44.4818 25.2265 44.6955 24.8304C44.9093 24.4281 45.2047 24.1169 45.5819 23.8969C45.9654 23.6769 46.4023 23.5669 46.8926 23.5669C47.5275 23.5669 48.0492 23.7209 48.4578 24.0289C48.8727 24.337 49.1462 24.7644 49.2782 25.3113H48.3541C48.2661 24.997 48.0932 24.7487 47.8355 24.5664C47.5841 24.3841 47.2698 24.293 46.8926 24.293C46.4023 24.293 46.0062 24.4627 45.7045 24.8021C45.4027 25.1353 45.2519 25.6099 45.2519 26.226C45.2519 26.8483 45.4027 27.3292 45.7045 27.6687C46.0062 28.0081 46.4023 28.1778 46.8926 28.1778C47.2698 28.1778 47.5841 28.0898 47.8355 27.9138C48.087 27.7378 48.2598 27.4864 48.3541 27.1595H49.2782C49.1399 27.6875 48.8633 28.1118 48.4484 28.4324C48.0335 28.7467 47.5149 28.9039 46.8926 28.9039C46.4023 28.9039 45.9654 28.7939 45.5819 28.5739C45.2047 28.3539 44.9093 28.0427 44.6955 27.6404C44.4818 27.238 44.3749 26.7666 44.3749 26.226ZM52.9879 23.5575C53.3777 23.5575 53.7297 23.6423 54.044 23.8121C54.3583 23.9755 54.6035 24.2238 54.7795 24.557C54.9618 24.8901 55.0529 25.2956 55.0529 25.7734V28.819H54.2043V25.8959C54.2043 25.3805 54.0754 24.9876 53.8177 24.7173C53.56 24.4407 53.2079 24.3024 52.7616 24.3024C52.309 24.3024 51.9475 24.4438 51.6772 24.7267C51.4132 25.0096 51.2812 25.4213 51.2812 25.9619V28.819H50.4231V21.8413H51.2812V24.3872C51.4509 24.1232 51.6835 23.9189 51.979 23.7743C52.2807 23.6298 52.617 23.5575 52.9879 23.5575Z" fill="white"/>
<g opacity="0.8">
<path d="M246.081 25.7904C246.081 28.0394 244.254 29.8651 241.997 29.8651C239.739 29.8651 237.912 28.0394 237.912 25.7904C237.912 23.5415 239.739 21.7158 241.997 21.7158C244.254 21.7158 246.081 23.5415 246.081 25.7904Z" stroke="white" stroke-width="1.45067"/>
<path d="M245.204 28.9904L247.341 31.1238" stroke="white" stroke-width="1.45067" stroke-linecap="round" stroke-linejoin="round"/>
</g>
<line opacity="0.12" x1="11.605" y1="97.3516" x2="260.394" y2="97.3516" stroke="white" stroke-width="0.725333"/>
<path d="M18.7326 113.296C18.5106 112.869 18.2024 112.548 17.8078 112.335C17.4132 112.113 16.957 112.002 16.4391 112.002C15.8719 112.002 15.3663 112.129 14.9224 112.384C14.4785 112.639 14.1291 113 13.8743 113.469C13.6277 113.938 13.5044 114.48 13.5044 115.097C13.5044 115.713 13.6277 116.26 13.8743 116.737C14.1291 117.205 14.4785 117.567 14.9224 117.822C15.3663 118.077 15.8719 118.204 16.4391 118.204C17.2036 118.204 17.8242 117.99 18.301 117.563C18.7778 117.135 19.0696 116.556 19.1765 115.824H15.9582V114.702H20.6808V115.799C20.5904 116.465 20.352 117.078 19.9657 117.637C19.5875 118.196 19.0902 118.644 18.4737 118.981C17.8653 119.31 17.1872 119.474 16.4391 119.474C15.6335 119.474 14.8978 119.289 14.2319 118.919C13.566 118.541 13.0358 118.019 12.6412 117.353C12.2549 116.687 12.0617 115.935 12.0617 115.097C12.0617 114.258 12.2549 113.506 12.6412 112.84C13.0358 112.174 13.566 111.656 14.2319 111.286C14.906 110.908 15.6417 110.719 16.4391 110.719C17.3516 110.719 18.1613 110.945 18.8682 111.397C19.5834 111.841 20.1013 112.474 20.4219 113.296H18.7326ZM23.473 111.965V114.48H26.4323V115.627H23.473V118.253H26.8022V119.4H22.0673V110.818H26.8022V111.965H23.473Z" fill="white"/>
<path opacity="0.7" d="M18.1874 130.386C17.977 129.943 17.6724 129.602 17.2735 129.363C16.8745 129.117 16.4103 128.993 15.8808 128.993C15.3513 128.993 14.8726 129.117 14.4447 129.363C14.024 129.602 13.6903 129.951 13.4437 130.408C13.2043 130.857 13.0847 131.38 13.0847 131.974C13.0847 132.569 13.2043 133.091 13.4437 133.541C13.6903 133.991 14.024 134.339 14.4447 134.586C14.8726 134.825 15.3513 134.945 15.8808 134.945C16.6207 134.945 17.2299 134.723 17.7087 134.281C18.1874 133.838 18.4666 133.24 18.5464 132.486H15.5218V131.681H19.6018V132.442C19.5438 133.066 19.3479 133.639 19.0143 134.161C18.6806 134.676 18.2418 135.086 17.6978 135.391C17.1538 135.688 16.5481 135.837 15.8808 135.837C15.1772 135.837 14.5353 135.674 13.9551 135.347C13.3748 135.013 12.9142 134.553 12.5733 133.965C12.2396 133.378 12.0728 132.714 12.0728 131.974C12.0728 131.234 12.2396 130.571 12.5733 129.983C12.9142 129.389 13.3748 128.928 13.9551 128.602C14.5353 128.268 15.1772 128.101 15.8808 128.101C16.6859 128.101 17.3968 128.301 18.0133 128.699C18.6371 129.098 19.0904 129.661 19.3733 130.386H18.1874ZM26.3509 132.562C26.3509 132.75 26.34 132.95 26.3182 133.16H21.5528C21.5891 133.748 21.7885 134.208 22.1512 134.542C22.5211 134.868 22.9672 135.032 23.4894 135.032C23.9174 135.032 24.2728 134.934 24.5557 134.738C24.8458 134.535 25.0489 134.266 25.1649 133.933H26.2312C26.0716 134.506 25.7525 134.974 25.2737 135.336C24.795 135.692 24.2003 135.869 23.4894 135.869C22.9237 135.869 22.4159 135.742 21.9662 135.489C21.5238 135.235 21.1756 134.876 20.9217 134.411C20.6679 133.94 20.5409 133.396 20.5409 132.779C20.5409 132.163 20.6643 131.623 20.9109 131.158C21.1575 130.694 21.502 130.339 21.9445 130.092C22.3942 129.838 22.9092 129.711 23.4894 129.711C24.0552 129.711 24.5557 129.835 24.9909 130.081C25.4261 130.328 25.7597 130.669 25.9918 131.104C26.2312 131.532 26.3509 132.018 26.3509 132.562ZM25.3281 132.355C25.3281 131.978 25.2447 131.655 25.0779 131.387C24.9111 131.111 24.6826 130.904 24.3925 130.767C24.1096 130.622 23.7941 130.549 23.4459 130.549C22.9454 130.549 22.5175 130.709 22.1621 131.028C21.8139 131.347 21.6144 131.789 21.5637 132.355H25.3281ZM30.5627 129.7C31.288 129.7 31.8756 129.922 32.3253 130.364C32.775 130.799 32.9998 131.43 32.9998 132.257V135.771H32.0206V132.399C32.0206 131.804 31.8719 131.351 31.5745 131.039C31.2772 130.719 30.871 130.56 30.356 130.56C29.8337 130.56 29.4167 130.723 29.1048 131.05C28.8001 131.376 28.6478 131.851 28.6478 132.475V135.771H27.6577V129.809H28.6478V130.658C28.8437 130.353 29.1084 130.117 29.4421 129.951C29.783 129.784 30.1565 129.7 30.5627 129.7ZM40.0571 132.562C40.0571 132.75 40.0462 132.95 40.0245 133.16H35.259C35.2953 133.748 35.4948 134.208 35.8574 134.542C36.2274 134.868 36.6734 135.032 37.1957 135.032C37.6236 135.032 37.979 134.934 38.2619 134.738C38.5521 134.535 38.7551 134.266 38.8712 133.933H39.9374C39.7779 134.506 39.4587 134.974 38.98 135.336C38.5013 135.692 37.9065 135.869 37.1957 135.869C36.6299 135.869 36.1222 135.742 35.6725 135.489C35.23 135.235 34.8819 134.876 34.628 134.411C34.3741 133.94 34.2472 133.396 34.2472 132.779C34.2472 132.163 34.3705 131.623 34.6171 131.158C34.8637 130.694 35.2083 130.339 35.6507 130.092C36.1004 129.838 36.6154 129.711 37.1957 129.711C37.7614 129.711 38.2619 129.835 38.6971 130.081C39.1323 130.328 39.466 130.669 39.6981 131.104C39.9374 131.532 40.0571 132.018 40.0571 132.562ZM39.0344 132.355C39.0344 131.978 38.951 131.655 38.7842 131.387C38.6173 131.111 38.3889 130.904 38.0987 130.767C37.8158 130.622 37.5003 130.549 37.1522 130.549C36.6517 130.549 36.2237 130.709 35.8683 131.028C35.5202 131.347 35.3207 131.789 35.2699 132.355H39.0344ZM42.3541 130.778C42.5282 130.437 42.7748 130.172 43.0939 129.983C43.4203 129.795 43.8156 129.7 44.2798 129.7V130.723H44.0187C42.909 130.723 42.3541 131.325 42.3541 132.529V135.771H41.364V129.809H42.3541V130.778ZM45.0528 132.769C45.0528 132.159 45.1761 131.626 45.4227 131.169C45.6694 130.705 46.0066 130.346 46.4346 130.092C46.8698 129.838 47.3521 129.711 47.8816 129.711C48.4039 129.711 48.8572 129.824 49.2416 130.049C49.6261 130.273 49.9126 130.556 50.1011 130.897V129.809H51.1021V135.771H50.1011V134.662C49.9053 135.01 49.6115 135.3 49.2199 135.532C48.8354 135.757 48.3857 135.869 47.8707 135.869C47.3413 135.869 46.8625 135.739 46.4346 135.478C46.0066 135.217 45.6694 134.85 45.4227 134.379C45.1761 133.907 45.0528 133.371 45.0528 132.769ZM50.1011 132.779C50.1011 132.33 50.0105 131.938 49.8291 131.604C49.6478 131.271 49.4012 131.017 49.0893 130.843C48.7847 130.661 48.4474 130.571 48.0775 130.571C47.7075 130.571 47.3703 130.658 47.0656 130.832C46.761 131.006 46.518 131.26 46.3367 131.594C46.1553 131.927 46.0647 132.319 46.0647 132.769C46.0647 133.226 46.1553 133.624 46.3367 133.965C46.518 134.299 46.761 134.557 47.0656 134.738C47.3703 134.912 47.7075 134.999 48.0775 134.999C48.4474 134.999 48.7847 134.912 49.0893 134.738C49.4012 134.557 49.6478 134.299 49.8291 133.965C50.0105 133.624 50.1011 133.229 50.1011 132.779ZM53.7653 127.72V135.771H52.7752V127.72H53.7653ZM59.3435 128.993V131.528H62.107V132.344H59.3435V134.955H62.4334V135.771H58.3534V128.177H62.4334V128.993H59.3435ZM64.9216 127.72V135.771H63.9315V127.72H64.9216ZM72.049 132.562C72.049 132.75 72.0381 132.95 72.0164 133.16H67.2509C67.2872 133.748 67.4866 134.208 67.8493 134.542C68.2192 134.868 68.6653 135.032 69.1876 135.032C69.6155 135.032 69.9709 134.934 70.2538 134.738C70.5439 134.535 70.747 134.266 70.8631 133.933H71.9293C71.7697 134.506 71.4506 134.974 70.9719 135.336C70.4932 135.692 69.8984 135.869 69.1876 135.869C68.6218 135.869 68.1141 135.742 67.6644 135.489C67.2219 135.235 66.8737 134.876 66.6199 134.411C66.366 133.94 66.2391 133.396 66.2391 132.779C66.2391 132.163 66.3624 131.623 66.609 131.158C66.8556 130.694 67.2001 130.339 67.6426 130.092C68.0923 129.838 68.6073 129.711 69.1876 129.711C69.7533 129.711 70.2538 129.835 70.689 130.081C71.1242 130.328 71.4579 130.669 71.69 131.104C71.9293 131.532 72.049 132.018 72.049 132.562ZM71.0263 132.355C71.0263 131.978 70.9429 131.655 70.776 131.387C70.6092 131.111 70.3807 130.904 70.0906 130.767C69.8077 130.622 69.4922 130.549 69.144 130.549C68.6436 130.549 68.2156 130.709 67.8602 131.028C67.512 131.347 67.3126 131.789 67.2618 132.355H71.0263ZM72.986 132.779C72.986 132.163 73.1093 131.626 73.3559 131.169C73.6025 130.705 73.9434 130.346 74.3786 130.092C74.821 129.838 75.3252 129.711 75.8909 129.711C76.6235 129.711 77.2255 129.889 77.697 130.244C78.1757 130.6 78.4912 131.093 78.6436 131.724H77.5773C77.4758 131.361 77.2763 131.075 76.9789 130.865C76.6888 130.654 76.3261 130.549 75.8909 130.549C75.3252 130.549 74.8682 130.745 74.52 131.137C74.1719 131.521 73.9978 132.069 73.9978 132.779C73.9978 133.498 74.1719 134.052 74.52 134.444C74.8682 134.836 75.3252 135.032 75.8909 135.032C76.3261 135.032 76.6888 134.93 76.9789 134.727C77.269 134.524 77.4685 134.234 77.5773 133.857H78.6436C78.484 134.466 78.1648 134.955 77.6861 135.325C77.2074 135.688 76.609 135.869 75.8909 135.869C75.3252 135.869 74.821 135.742 74.3786 135.489C73.9434 135.235 73.6025 134.876 73.3559 134.411C73.1093 133.947 72.986 133.403 72.986 132.779ZM81.1723 130.625V134.139C81.1723 134.43 81.234 134.636 81.3573 134.76C81.4806 134.876 81.6945 134.934 81.9992 134.934H82.7281V135.771H81.836C81.2847 135.771 80.8713 135.645 80.5957 135.391C80.32 135.137 80.1822 134.72 80.1822 134.139V130.625H79.4097V129.809H80.1822V128.308H81.1723V129.809H82.7281V130.625H81.1723ZM84.9178 130.778C85.0919 130.437 85.3385 130.172 85.6577 129.983C85.9841 129.795 86.3794 129.7 86.8436 129.7V130.723H86.5825C85.4727 130.723 84.9178 131.325 84.9178 132.529V135.771H83.9277V129.809H84.9178V130.778ZM88.4979 128.841C88.3093 128.841 88.1497 128.776 88.0191 128.645C87.8886 128.514 87.8233 128.355 87.8233 128.166C87.8233 127.978 87.8886 127.818 88.0191 127.688C88.1497 127.557 88.3093 127.492 88.4979 127.492C88.6792 127.492 88.8315 127.557 88.9548 127.688C89.0854 127.818 89.1507 127.978 89.1507 128.166C89.1507 128.355 89.0854 128.514 88.9548 128.645C88.8315 128.776 88.6792 128.841 88.4979 128.841ZM88.9766 129.809V135.771H87.9865V129.809H88.9766ZM90.2941 132.779C90.2941 132.163 90.4174 131.626 90.664 131.169C90.9106 130.705 91.2515 130.346 91.6867 130.092C92.1292 129.838 92.6333 129.711 93.199 129.711C93.9316 129.711 94.5337 129.889 95.0051 130.244C95.4838 130.6 95.7994 131.093 95.9517 131.724H94.8854C94.7839 131.361 94.5844 131.075 94.287 130.865C93.9969 130.654 93.6342 130.549 93.199 130.549C92.6333 130.549 92.1763 130.745 91.8282 131.137C91.48 131.521 91.3059 132.069 91.3059 132.779C91.3059 133.498 91.48 134.052 91.8282 134.444C92.1763 134.836 92.6333 135.032 93.199 135.032C93.6342 135.032 93.9969 134.93 94.287 134.727C94.5772 134.524 94.7766 134.234 94.8854 133.857H95.9517C95.7921 134.466 95.473 134.955 94.9942 135.325C94.5155 135.688 93.9171 135.869 93.199 135.869C92.6333 135.869 92.1292 135.742 91.6867 135.489C91.2515 135.235 90.9106 134.876 90.664 134.411C90.4174 133.947 90.2941 133.403 90.2941 132.779Z" fill="white"/>
<path d="M242.851 112.307C242.771 111.974 242.626 111.723 242.415 111.557C242.205 111.39 241.911 111.306 241.534 111.306C240.961 111.306 240.533 111.527 240.25 111.97C239.967 112.405 239.819 113.13 239.804 114.146C239.993 113.827 240.268 113.58 240.631 113.406C240.994 113.232 241.385 113.145 241.806 113.145C242.285 113.145 242.705 113.25 243.068 113.461C243.438 113.664 243.725 113.961 243.928 114.353C244.138 114.744 244.243 115.212 244.243 115.756C244.243 116.264 244.142 116.717 243.939 117.116C243.743 117.515 243.449 117.831 243.057 118.063C242.666 118.288 242.194 118.4 241.643 118.4C240.896 118.4 240.308 118.237 239.88 117.91C239.46 117.577 239.162 117.109 238.988 116.507C238.821 115.905 238.738 115.154 238.738 114.255C238.738 111.6 239.674 110.273 241.545 110.273C242.27 110.273 242.84 110.469 243.253 110.86C243.674 111.252 243.92 111.734 243.993 112.307H242.851ZM241.534 114.189C241.092 114.189 240.714 114.324 240.403 114.592C240.098 114.853 239.946 115.234 239.946 115.734C239.946 116.235 240.087 116.634 240.37 116.931C240.66 117.221 241.063 117.366 241.578 117.366C242.035 117.366 242.394 117.225 242.655 116.942C242.923 116.659 243.057 116.282 243.057 115.811C243.057 115.317 242.927 114.926 242.666 114.636C242.412 114.338 242.035 114.189 241.534 114.189ZM247.089 116.909L245.773 119.912H244.968L245.74 116.909H247.089ZM253.037 111.426L250.012 118.4H248.761L251.818 111.557H247.792V110.501H253.037V111.426ZM259.212 111.535H255.567V113.7C255.719 113.497 255.944 113.326 256.241 113.189C256.546 113.051 256.869 112.982 257.21 112.982C257.819 112.982 258.312 113.112 258.689 113.373C259.074 113.635 259.346 113.965 259.505 114.364C259.672 114.762 259.756 115.183 259.756 115.626C259.756 116.162 259.651 116.641 259.44 117.062C259.237 117.475 258.929 117.802 258.515 118.041C258.109 118.28 257.609 118.4 257.014 118.4C256.223 118.4 255.589 118.204 255.11 117.813C254.631 117.421 254.345 116.902 254.25 116.257H255.458C255.538 116.598 255.716 116.87 255.991 117.073C256.267 117.269 256.611 117.366 257.025 117.366C257.54 117.366 257.924 117.21 258.178 116.899C258.439 116.587 258.57 116.173 258.57 115.658C258.57 115.136 258.439 114.737 258.178 114.461C257.917 114.179 257.533 114.037 257.025 114.037C256.669 114.037 256.368 114.128 256.122 114.309C255.882 114.483 255.708 114.723 255.6 115.027H254.424V110.447H259.212V111.535Z" fill="white"/>
<path d="M235.942 132.366H233.744V134.618H232.591V132.366H230.393V131.322H232.591V129.069H233.744V131.322H235.942V132.366ZM237.703 131.702C237.703 130.448 237.913 129.468 238.334 128.765C238.762 128.054 239.495 127.698 240.532 127.698C241.569 127.698 242.298 128.054 242.719 128.765C243.147 129.468 243.361 130.448 243.361 131.702C243.361 132.972 243.147 133.965 242.719 134.683C242.298 135.394 241.569 135.75 240.532 135.75C239.495 135.75 238.762 135.394 238.334 134.683C237.913 133.965 237.703 132.972 237.703 131.702ZM242.142 131.702C242.142 131.115 242.102 130.618 242.022 130.212C241.95 129.806 241.798 129.476 241.566 129.222C241.333 128.961 240.989 128.83 240.532 128.83C240.075 128.83 239.73 128.961 239.498 129.222C239.266 129.476 239.11 129.806 239.03 130.212C238.958 130.618 238.922 131.115 238.922 131.702C238.922 132.312 238.958 132.823 239.03 133.236C239.103 133.65 239.255 133.984 239.487 134.237C239.727 134.491 240.075 134.618 240.532 134.618C240.989 134.618 241.333 134.491 241.566 134.237C241.805 133.984 241.961 133.65 242.033 133.236C242.106 132.823 242.142 132.312 242.142 131.702ZM246.196 134.281L244.88 137.284H244.075L244.847 134.281H246.196ZM251.382 129.679C251.302 129.345 251.157 129.095 250.947 128.928C250.736 128.761 250.443 128.678 250.065 128.678C249.492 128.678 249.064 128.899 248.781 129.341C248.499 129.777 248.35 130.502 248.335 131.517C248.524 131.198 248.8 130.952 249.162 130.778C249.525 130.603 249.917 130.516 250.337 130.516C250.816 130.516 251.237 130.622 251.599 130.832C251.969 131.035 252.256 131.332 252.459 131.724C252.669 132.116 252.774 132.584 252.774 133.128C252.774 133.635 252.673 134.089 252.47 134.488C252.274 134.887 251.98 135.202 251.589 135.434C251.197 135.659 250.725 135.771 250.174 135.771C249.427 135.771 248.84 135.608 248.412 135.282C247.991 134.948 247.693 134.48 247.519 133.878C247.353 133.276 247.269 132.526 247.269 131.626C247.269 128.971 248.205 127.644 250.076 127.644C250.802 127.644 251.371 127.84 251.784 128.232C252.205 128.623 252.452 129.106 252.524 129.679H251.382ZM250.065 131.561C249.623 131.561 249.246 131.695 248.934 131.963C248.629 132.225 248.477 132.605 248.477 133.106C248.477 133.606 248.618 134.005 248.901 134.303C249.191 134.593 249.594 134.738 250.109 134.738C250.566 134.738 250.925 134.596 251.186 134.314C251.454 134.031 251.589 133.653 251.589 133.182C251.589 132.689 251.458 132.297 251.197 132.007C250.943 131.71 250.566 131.561 250.065 131.561ZM259.211 128.906H255.566V131.071C255.719 130.868 255.943 130.698 256.241 130.56C256.545 130.422 256.868 130.353 257.209 130.353C257.818 130.353 258.312 130.484 258.689 130.745C259.073 131.006 259.345 131.336 259.505 131.735C259.672 132.134 259.755 132.555 259.755 132.997C259.755 133.534 259.65 134.013 259.44 134.433C259.236 134.847 258.928 135.173 258.515 135.412C258.109 135.652 257.608 135.771 257.013 135.771C256.223 135.771 255.588 135.576 255.109 135.184C254.631 134.792 254.344 134.274 254.25 133.628H255.457C255.537 133.969 255.715 134.241 255.991 134.444C256.266 134.64 256.611 134.738 257.024 134.738C257.539 134.738 257.924 134.582 258.177 134.27C258.439 133.958 258.569 133.545 258.569 133.03C258.569 132.507 258.439 132.109 258.177 131.833C257.916 131.55 257.532 131.409 257.024 131.409C256.669 131.409 256.368 131.499 256.121 131.681C255.882 131.855 255.708 132.094 255.599 132.399H254.424V127.818H259.211V128.906Z" fill="#23B66F"/>
<path d="M146.517 130.857L153.045 117.524L154.858 121.333L156.672 120.571L159.573 125.905L164.65 116.762L167.914 116L169.365 112.19L171.178 116L172.992 113.333L174.442 116H175.893L177.706 113.333L179.52 116C181.333 114.222 185.467 112.267 187.498 118.667C188.345 116.127 190.545 112.19 192.576 116.762L194.026 112.19H197.653L198.741 116L200.554 116.762L202.005 124.381L203.818 121.333L206.72 125.905L208.896 121.333L210.346 125.143" stroke="#23B66F" stroke-width="1.45067" stroke-linecap="round" stroke-linejoin="round"/>
<path opacity="0.3" d="M153.044 118.248L146.516 131.581V134.629H210.345V125.867L208.894 122.057L206.718 126.629L203.817 122.057L202.004 125.105L200.553 117.486L198.74 116.724L197.652 112.914H194.025L192.574 117.486C190.543 112.914 188.343 116.851 187.497 119.39C185.466 112.99 181.332 114.946 179.518 116.724L177.705 114.057L175.892 116.724H174.441L172.99 114.057L171.177 116.724L169.364 112.914L167.913 116.724L164.649 117.486L159.572 126.629L156.67 121.295L154.857 122.057L153.044 118.248Z" fill="url(#paint1_linear)"/>
<path d="M146.516 131.733H210.345" stroke="#23B66F" stroke-width="0.725333" stroke-dasharray="2.9 3.63"/>
<path d="M238.221 88.386C238.221 88.8067 238.076 89.1573 237.786 89.4378C237.5 89.7134 237.063 89.8512 236.473 89.8512H235.501V91.9619H234.841V86.9063H236.473C237.043 86.9063 237.476 87.0442 237.771 87.3198C238.071 87.5954 238.221 87.9508 238.221 88.386ZM236.473 89.3072C236.84 89.3072 237.111 89.2274 237.285 89.0678C237.459 88.9083 237.546 88.681 237.546 88.386C237.546 87.7622 237.188 87.4503 236.473 87.4503H235.501V89.3072H236.473ZM241.703 91.9619L240.499 89.8947H239.701V91.9619H239.041V86.9063H240.673C241.055 86.9063 241.377 86.9716 241.638 87.1022C241.904 87.2327 242.102 87.4092 242.233 87.6317C242.363 87.8541 242.428 88.108 242.428 88.3933C242.428 88.7414 242.327 89.0485 242.124 89.3144C241.926 89.5804 241.626 89.7569 241.224 89.8439L242.494 91.9619H241.703ZM239.701 89.3652H240.673C241.031 89.3652 241.299 89.2782 241.478 89.1041C241.657 88.9252 241.747 88.6882 241.747 88.3933C241.747 88.0935 241.657 87.8614 241.478 87.697C241.304 87.5325 241.036 87.4503 240.673 87.4503H239.701V89.3652ZM244.114 86.9063V91.9619H243.454V86.9063H244.114ZM244.992 89.4305C244.992 88.9373 245.104 88.4948 245.326 88.1031C245.549 87.7066 245.851 87.3971 246.233 87.1747C246.62 86.9523 247.048 86.8411 247.517 86.8411C248.068 86.8411 248.549 86.974 248.96 87.24C249.371 87.5059 249.671 87.8831 249.859 88.3715H249.069C248.929 88.0669 248.726 87.8323 248.46 87.6679C248.198 87.5035 247.884 87.4213 247.517 87.4213C247.164 87.4213 246.847 87.5035 246.566 87.6679C246.286 87.8323 246.066 88.0669 245.906 88.3715C245.747 88.6713 245.667 89.0243 245.667 89.4305C245.667 89.8319 245.747 90.1848 245.906 90.4895C246.066 90.7893 246.286 91.0214 246.566 91.1858C246.847 91.3502 247.164 91.4324 247.517 91.4324C247.884 91.4324 248.198 91.3526 248.46 91.1931C248.726 91.0287 248.929 90.7941 249.069 90.4895H249.859C249.671 90.973 249.371 91.3478 248.96 91.6138C248.549 91.8749 248.068 92.0054 247.517 92.0054C247.048 92.0054 246.62 91.8966 246.233 91.679C245.851 91.4566 245.549 91.1495 245.326 90.7579C245.104 90.3662 244.992 89.9237 244.992 89.4305ZM251.502 87.4431V89.1331H253.344V89.6771H251.502V91.4179H253.562V91.9619H250.842V86.8991H253.562V87.4431H251.502Z" fill="white"/>
<path d="M14.6949 89.358C14.8787 89.387 15.0455 89.4619 15.1954 89.5828C15.3501 89.7037 15.471 89.8536 15.558 90.0325C15.6499 90.2114 15.6959 90.4024 15.6959 90.6055C15.6959 90.8618 15.6306 91.0939 15.5 91.3019C15.3695 91.505 15.1785 91.6669 14.927 91.7878C14.6804 91.9039 14.3878 91.9619 14.0494 91.9619H12.1635V86.9063H13.9768C14.3201 86.9063 14.6127 86.9644 14.8545 87.0804C15.0963 87.1916 15.2776 87.344 15.3985 87.5374C15.5194 87.7308 15.5798 87.9484 15.5798 88.1902C15.5798 88.49 15.4976 88.739 15.3332 88.9373C15.1736 89.1307 14.9609 89.2709 14.6949 89.358ZM12.8235 89.0896H13.9333C14.2428 89.0896 14.4821 89.0171 14.6514 88.872C14.8206 88.7269 14.9052 88.5263 14.9052 88.27C14.9052 88.0137 14.8206 87.813 14.6514 87.6679C14.4821 87.5229 14.2379 87.4503 13.9188 87.4503H12.8235V89.0896ZM13.9913 91.4179C14.3201 91.4179 14.5764 91.3405 14.7602 91.1858C14.9439 91.0311 15.0358 90.8159 15.0358 90.5403C15.0358 90.2598 14.9391 90.0398 14.7457 89.8802C14.5523 89.7158 14.2935 89.6336 13.9696 89.6336H12.8235V91.4179H13.9913ZM20.1514 86.9063L18.5049 90.0543V91.9619H17.8449V90.0543L16.1911 86.9063H16.9237L18.1713 89.4668L19.4189 86.9063H20.1514ZM26.1615 88.386C26.1615 88.8067 26.0164 89.1573 25.7263 89.4378C25.441 89.7134 25.0033 89.8512 24.4134 89.8512H23.4415V91.9619H22.7814V86.9063H24.4134C24.984 86.9063 25.4168 87.0442 25.7118 87.3198C26.0116 87.5954 26.1615 87.9508 26.1615 88.386ZM24.4134 89.3072C24.7809 89.3072 25.0517 89.2274 25.2258 89.0678C25.3999 88.9083 25.4869 88.681 25.4869 88.386C25.4869 87.7622 25.1291 87.4503 24.4134 87.4503H23.4415V89.3072H24.4134ZM29.2739 92.0127C28.8048 92.0127 28.3769 91.9039 27.99 91.6863C27.6032 91.4639 27.2961 91.1568 27.0689 90.7651C26.8464 90.3686 26.7352 89.9237 26.7352 89.4305C26.7352 88.9373 26.8464 88.4948 27.0689 88.1031C27.2961 87.7066 27.6032 87.3996 27.99 87.182C28.3769 86.9595 28.8048 86.8483 29.2739 86.8483C29.7478 86.8483 30.1781 86.9595 30.565 87.182C30.9518 87.3996 31.2565 87.7042 31.4789 88.0959C31.7013 88.4876 31.8125 88.9324 31.8125 89.4305C31.8125 89.9286 31.7013 90.3734 31.4789 90.7651C31.2565 91.1568 30.9518 91.4639 30.565 91.6863C30.1781 91.9039 29.7478 92.0127 29.2739 92.0127ZM29.2739 91.4397C29.6269 91.4397 29.9436 91.3575 30.2241 91.1931C30.5094 91.0287 30.7318 90.7941 30.8914 90.4895C31.0558 90.1848 31.138 89.8319 31.138 89.4305C31.138 89.0243 31.0558 88.6713 30.8914 88.3715C30.7318 88.0669 30.5118 87.8323 30.2313 87.6679C29.9509 87.5035 29.6317 87.4213 29.2739 87.4213C28.916 87.4213 28.5969 87.5035 28.3164 87.6679C28.036 87.8323 27.8135 88.0669 27.6491 88.3715C27.4896 88.6713 27.4098 89.0243 27.4098 89.4305C27.4098 89.8319 27.4896 90.1848 27.6491 90.4895C27.8135 90.7941 28.036 91.0287 28.3164 91.1931C28.6017 91.3575 28.9209 91.4397 29.2739 91.4397ZM36.064 88.386C36.064 88.8067 35.9189 89.1573 35.6288 89.4378C35.3435 89.7134 34.9058 89.8512 34.3159 89.8512H33.344V91.9619H32.6839V86.9063H34.3159C34.8865 86.9063 35.3193 87.0442 35.6143 87.3198C35.9141 87.5954 36.064 87.9508 36.064 88.386ZM34.3159 89.3072C34.6834 89.3072 34.9542 89.2274 35.1283 89.0678C35.3024 88.9083 35.3894 88.681 35.3894 88.386C35.3894 87.7622 35.0316 87.4503 34.3159 87.4503H33.344V89.3072H34.3159ZM37.5299 86.9063V90.1051C37.5299 90.5548 37.6387 90.8884 37.8563 91.106C38.0787 91.3236 38.3858 91.4324 38.7774 91.4324C39.1643 91.4324 39.4665 91.3236 39.6841 91.106C39.9065 90.8884 40.0178 90.5548 40.0178 90.1051V86.9063H40.6778V90.0978C40.6778 90.5185 40.5932 90.8739 40.4239 91.164C40.2547 91.4493 40.025 91.6621 39.7349 91.8023C39.4496 91.9426 39.128 92.0127 38.7702 92.0127C38.4124 92.0127 38.0884 91.9426 37.7982 91.8023C37.5129 91.6621 37.2857 91.4493 37.1164 91.164C36.952 90.8739 36.8698 90.5185 36.8698 90.0978V86.9063H37.5299ZM42.439 91.4252H44.2088V91.9619H41.7789V86.9063H42.439V91.4252ZM47.8981 90.8376H45.6931L45.2869 91.9619H44.5906L46.4184 86.9354H47.18L49.0006 91.9619H48.3043L47.8981 90.8376ZM47.7095 90.3009L46.7956 87.7477L45.8817 90.3009H47.7095ZM52.4592 91.9619L51.2552 89.8947H50.4573V91.9619H49.7972V86.9063H51.4292C51.8112 86.9063 52.1328 86.9716 52.3939 87.1022C52.6599 87.2327 52.8581 87.4092 52.9887 87.6317C53.1193 87.8541 53.1845 88.108 53.1845 88.3933C53.1845 88.7414 53.083 89.0485 52.8799 89.3144C52.6816 89.5804 52.3818 89.7569 51.9805 89.8439L53.2498 91.9619H52.4592ZM50.4573 89.3652H51.4292C51.7871 89.3652 52.0554 89.2782 52.2344 89.1041C52.4133 88.9252 52.5027 88.6882 52.5027 88.3933C52.5027 88.0935 52.4133 87.8614 52.2344 87.697C52.0603 87.5325 51.7919 87.4503 51.4292 87.4503H50.4573V89.3652ZM54.8702 86.9063V91.9619H54.2102V86.9063H54.8702ZM59.1068 86.9063V87.4431H57.7287V91.9619H57.0686V87.4431H55.6833V86.9063H59.1068ZM63.4589 86.9063L61.8124 90.0543V91.9619H61.1524V90.0543L59.4986 86.9063H60.2312L61.4788 89.4668L62.7264 86.9063H63.4589Z" fill="white"/>
<path d="M256.042 89.0286L258.218 90.4762L260.394 89.0286" stroke="white" stroke-width="0.725333" stroke-linecap="round" stroke-linejoin="round"/>
<path d="M66.7305 89.7524L68.9065 88.3048L71.0825 89.7524" stroke="white" stroke-width="0.725333" stroke-linecap="round" stroke-linejoin="round"/>
<rect x="11.605" y="49.2191" width="62.3787" height="23.1619" rx="11.581" fill="#261F70"/>
<path d="M24.1091 57.247V62.2351C24.1091 62.738 23.9551 63.1435 23.6471 63.4515C23.339 63.7532 22.9273 63.9041 22.4118 63.9041C21.8775 63.9041 21.45 63.7438 21.1294 63.4232C20.8151 63.0963 20.658 62.6563 20.658 62.1031H21.3275C21.3337 62.4614 21.4217 62.7537 21.5915 62.98C21.7675 63.2063 22.0409 63.3195 22.4118 63.3195C22.7639 63.3195 23.0247 63.2158 23.1945 63.0083C23.3642 62.8009 23.4491 62.5431 23.4491 62.2351V57.247H24.1091ZM25.4671 61.2545C25.4671 60.7264 25.5709 60.2644 25.7783 59.8684C25.992 59.466 26.2844 59.158 26.6552 58.9443C27.0324 58.7243 27.4567 58.6143 27.9282 58.6143C28.4185 58.6143 28.8397 58.7274 29.1917 58.9537C29.5501 59.18 29.8078 59.4692 29.9649 59.8212V58.6897H30.625V63.8381H29.9649V62.6972C29.8015 63.0492 29.5406 63.3415 29.1823 63.5741C28.8303 63.8004 28.4091 63.9135 27.9188 63.9135C27.4536 63.9135 27.0324 63.8035 26.6552 63.5835C26.2844 63.3635 25.992 63.0523 25.7783 62.65C25.5709 62.2477 25.4671 61.7825 25.4671 61.2545ZM29.9649 61.2639C29.9649 60.849 29.8801 60.4844 29.7103 60.1701C29.5406 59.8558 29.308 59.6138 29.0126 59.444C28.7234 59.2743 28.4028 59.1894 28.0508 59.1894C27.6862 59.1894 27.3593 59.2712 27.0701 59.4346C26.781 59.598 26.5515 59.8369 26.3818 60.1512C26.2184 60.4593 26.1366 60.827 26.1366 61.2545C26.1366 61.6756 26.2184 62.0465 26.3818 62.3671C26.5515 62.6814 26.781 62.9235 27.0701 63.0932C27.3593 63.2566 27.6862 63.3383 28.0508 63.3383C28.4028 63.3383 28.7234 63.2535 29.0126 63.0838C29.308 62.914 29.5406 62.672 29.7103 62.3577C29.8801 62.0434 29.9649 61.6788 29.9649 61.2639ZM32.7825 59.8212C32.9459 59.4755 33.2036 59.1894 33.5557 58.9631C33.914 58.7305 34.3383 58.6143 34.8286 58.6143C35.2938 58.6143 35.7118 58.7243 36.0827 58.9443C36.4599 59.158 36.7522 59.466 36.9597 59.8684C37.1734 60.2644 37.2803 60.7264 37.2803 61.2545C37.2803 61.7825 37.1734 62.2477 36.9597 62.65C36.7522 63.0523 36.4599 63.3635 36.0827 63.5835C35.7118 63.8035 35.2938 63.9135 34.8286 63.9135C34.3446 63.9135 33.9234 63.8004 33.5651 63.5741C33.2068 63.3415 32.9459 63.0523 32.7825 62.7066V66.2709H32.1318V58.6897H32.7825V59.8212ZM36.6108 61.2545C36.6108 60.827 36.5259 60.4593 36.3562 60.1512C36.1927 59.8369 35.9664 59.598 35.6773 59.4346C35.3881 59.2712 35.0612 59.1894 34.6966 59.1894C34.3446 59.1894 34.0209 59.2743 33.7254 59.444C33.4362 59.6138 33.2068 59.8558 33.0371 60.1701C32.8673 60.4844 32.7825 60.849 32.7825 61.2639C32.7825 61.6788 32.8673 62.0434 33.0371 62.3577C33.2068 62.672 33.4362 62.914 33.7254 63.0838C34.0209 63.2535 34.3446 63.3383 34.6966 63.3383C35.0612 63.3383 35.3881 63.2566 35.6773 63.0932C35.9664 62.9235 36.1927 62.6814 36.3562 62.3671C36.5259 62.0465 36.6108 61.6756 36.6108 61.2545ZM38.1931 61.2545C38.1931 60.7264 38.2968 60.2644 38.5042 59.8684C38.718 59.466 39.0103 59.158 39.3812 58.9443C39.7583 58.7243 40.1827 58.6143 40.6541 58.6143C41.1444 58.6143 41.5656 58.7274 41.9177 58.9537C42.276 59.18 42.5337 59.4692 42.6909 59.8212V58.6897H43.3509V63.8381H42.6909V62.6972C42.5274 63.0492 42.2665 63.3415 41.9082 63.5741C41.5562 63.8004 41.135 63.9135 40.6447 63.9135C40.1795 63.9135 39.7583 63.8035 39.3812 63.5835C39.0103 63.3635 38.718 63.0523 38.5042 62.65C38.2968 62.2477 38.1931 61.7825 38.1931 61.2545ZM42.6909 61.2639C42.6909 60.849 42.606 60.4844 42.4363 60.1701C42.2665 59.8558 42.0339 59.6138 41.7385 59.444C41.4493 59.2743 41.1287 59.1894 40.7767 59.1894C40.4121 59.1894 40.0852 59.2712 39.7961 59.4346C39.5069 59.598 39.2774 59.8369 39.1077 60.1512C38.9443 60.4593 38.8625 60.827 38.8625 61.2545C38.8625 61.6756 38.9443 62.0465 39.1077 62.3671C39.2774 62.6814 39.5069 62.9235 39.7961 63.0932C40.0852 63.2566 40.4121 63.3383 40.7767 63.3383C41.1287 63.3383 41.4493 63.2535 41.7385 63.0838C42.0339 62.914 42.2665 62.672 42.4363 62.3577C42.606 62.0434 42.6909 61.6788 42.6909 61.2639ZM47.2717 58.5954C47.8877 58.5954 48.3906 58.7871 48.7804 59.1706C49.1701 59.5478 49.365 60.0978 49.365 60.8207V63.8381H48.7144V60.8962C48.7144 60.3367 48.5729 59.9092 48.29 59.6138C48.0134 59.3183 47.6331 59.1706 47.1491 59.1706C46.6525 59.1706 46.2564 59.3277 45.961 59.6421C45.6655 59.9564 45.5178 60.4184 45.5178 61.0282V63.8381H44.8578V58.6897H45.5178V59.5666C45.6813 59.2523 45.917 59.0134 46.225 58.85C46.533 58.6803 46.8819 58.5954 47.2717 58.5954Z" fill="white"/>
<path opacity="0.6" d="M59.4771 57.9048L65.2797 63.6953M59.4771 63.6953L65.2797 57.9048" stroke="white" stroke-width="0.725333" stroke-linecap="round" stroke-linejoin="round"/>
<rect x="82.689" y="49.2191" width="94.2933" height="23.1619" rx="11.581" fill="#261F70"/>
<path d="M105.993 57.247C106.722 57.247 107.348 57.379 107.87 57.643C108.391 57.9071 108.79 58.2874 109.067 58.784C109.344 59.2806 109.482 59.8715 109.482 60.5567C109.482 61.2356 109.344 61.8234 109.067 62.32C108.79 62.8103 108.391 63.1875 107.87 63.4515C107.348 63.7092 106.722 63.8381 105.993 63.8381H104.041V57.247H105.993ZM105.993 63.2912C106.911 63.2912 107.609 63.0523 108.086 62.5746C108.57 62.0905 108.813 61.4179 108.813 60.5567C108.813 59.6892 108.57 59.0134 108.086 58.5294C107.609 58.0391 106.911 57.7939 105.993 57.7939H104.701V63.2912H105.993ZM112.952 63.9135C112.468 63.9135 112.032 63.8067 111.642 63.5929C111.258 63.3729 110.953 63.0649 110.727 62.6689C110.507 62.2665 110.397 61.7982 110.397 61.2639C110.397 60.7296 110.51 60.2644 110.737 59.8684C110.963 59.466 111.271 59.158 111.661 58.9443C112.05 58.7243 112.487 58.6143 112.971 58.6143C113.455 58.6143 113.892 58.7243 114.282 58.9443C114.678 59.158 114.986 59.466 115.206 59.8684C115.432 60.2644 115.546 60.7296 115.546 61.2639C115.546 61.7919 115.432 62.2571 115.206 62.6594C114.98 63.0618 114.669 63.3729 114.273 63.5929C113.877 63.8067 113.437 63.9135 112.952 63.9135ZM112.952 63.3383C113.292 63.3383 113.606 63.2629 113.895 63.112C114.185 62.9549 114.417 62.7223 114.593 62.4143C114.775 62.1 114.867 61.7165 114.867 61.2639C114.867 60.8113 114.779 60.431 114.603 60.1229C114.427 59.8086 114.194 59.576 113.905 59.4252C113.616 59.268 113.301 59.1894 112.962 59.1894C112.622 59.1894 112.308 59.268 112.019 59.4252C111.73 59.576 111.497 59.8086 111.321 60.1229C111.151 60.431 111.067 60.8113 111.067 61.2639C111.067 61.7165 111.151 62.1 111.321 62.4143C111.497 62.7223 111.727 62.9549 112.01 63.112C112.299 63.2629 112.613 63.3383 112.952 63.3383ZM123.538 58.6897L121.925 63.8381H121.265L119.842 59.5195L118.418 63.8381H117.748L116.136 58.6897H116.805L118.088 63.1686L119.53 58.6897H120.19L121.614 63.1781L122.887 58.6897H123.538ZM126.852 58.5954C127.468 58.5954 127.971 58.7871 128.36 59.1706C128.75 59.5478 128.945 60.0978 128.945 60.8207V63.8381H128.294V60.8962C128.294 60.3367 128.153 59.9092 127.87 59.6138C127.593 59.3183 127.213 59.1706 126.729 59.1706C126.232 59.1706 125.836 59.3277 125.541 59.6421C125.245 59.9564 125.098 60.4184 125.098 61.0282V63.8381H124.438V58.6897H125.098V59.5666C125.261 59.2523 125.497 59.0134 125.805 58.85C126.113 58.6803 126.462 58.5954 126.852 58.5954ZM137.194 58.6897L135.581 63.8381H134.921L133.498 59.5195L132.074 63.8381H131.404L129.792 58.6897H130.461L131.744 63.1686L133.186 58.6897H133.846L135.27 63.1781L136.543 58.6897H137.194ZM137.792 61.2545C137.792 60.7264 137.896 60.2644 138.103 59.8684C138.317 59.466 138.609 59.158 138.98 58.9443C139.357 58.7243 139.782 58.6143 140.253 58.6143C140.743 58.6143 141.164 58.7274 141.517 58.9537C141.875 59.18 142.133 59.4692 142.29 59.8212V58.6897H142.95V63.8381H142.29V62.6972C142.126 63.0492 141.865 63.3415 141.507 63.5741C141.155 63.8004 140.734 63.9135 140.244 63.9135C139.778 63.9135 139.357 63.8035 138.98 63.5835C138.609 63.3635 138.317 63.0523 138.103 62.65C137.896 62.2477 137.792 61.7825 137.792 61.2545ZM142.29 61.2639C142.29 60.849 142.205 60.4844 142.035 60.1701C141.865 59.8558 141.633 59.6138 141.337 59.444C141.048 59.2743 140.728 59.1894 140.376 59.1894C140.011 59.1894 139.684 59.2712 139.395 59.4346C139.106 59.598 138.876 59.8369 138.707 60.1512C138.543 60.4593 138.461 60.827 138.461 61.2545C138.461 61.6756 138.543 62.0465 138.707 62.3671C138.876 62.6814 139.106 62.9235 139.395 63.0932C139.684 63.2566 140.011 63.3383 140.376 63.3383C140.728 63.3383 141.048 63.2535 141.337 63.0838C141.633 62.914 141.865 62.672 142.035 62.3577C142.205 62.0434 142.29 61.6788 142.29 61.2639ZM145.117 59.6043C145.261 59.2837 145.481 59.0354 145.777 58.8594C146.078 58.6834 146.446 58.5954 146.88 58.5954V59.2837H146.701C146.223 59.2837 145.84 59.4126 145.55 59.6703C145.261 59.9281 145.117 60.3587 145.117 60.9622V63.8381H144.457V58.6897H145.117V59.6043ZM147.571 61.2545C147.571 60.7264 147.678 60.2644 147.892 59.8684C148.106 59.466 148.398 59.158 148.769 58.9443C149.146 58.7243 149.57 58.6143 150.042 58.6143C150.494 58.6143 150.903 58.7243 151.267 58.9443C151.632 59.1643 151.899 59.4503 152.069 59.8023V56.8604H152.729V63.8381H152.069V62.6877C151.912 63.046 151.654 63.3415 151.296 63.5741C150.937 63.8004 150.516 63.9135 150.032 63.9135C149.561 63.9135 149.136 63.8035 148.759 63.5835C148.388 63.3635 148.096 63.0523 147.882 62.65C147.675 62.2477 147.571 61.7825 147.571 61.2545ZM152.069 61.2639C152.069 60.849 151.984 60.4844 151.814 60.1701C151.645 59.8558 151.412 59.6138 151.117 59.444C150.827 59.2743 150.507 59.1894 150.155 59.1894C149.79 59.1894 149.463 59.2712 149.174 59.4346C148.885 59.598 148.656 59.8369 148.486 60.1512C148.322 60.4593 148.241 60.827 148.241 61.2545C148.241 61.6756 148.322 62.0465 148.486 62.3671C148.656 62.6814 148.885 62.9235 149.174 63.0932C149.463 63.2566 149.79 63.3383 150.155 63.3383C150.507 63.3383 150.827 63.2535 151.117 63.0838C151.412 62.914 151.645 62.672 151.814 62.3577C151.984 62.0434 152.069 61.6788 152.069 61.2639Z" fill="white"/>
<path d="M94.5494 65.3993C94.4078 65.5409 94.1782 65.5409 94.0365 65.3993L91.7285 63.0913C91.5869 62.9497 91.5869 62.7201 91.7285 62.5784C91.8702 62.4368 92.0998 62.4368 92.2414 62.5784L94.293 64.63L96.3445 62.5784C96.4862 62.4368 96.7158 62.4368 96.8574 62.5784C96.999 62.7201 96.999 62.9497 96.8574 63.0913L94.5494 65.3993ZM94.6556 56.4572L94.6556 65.1429L93.9303 65.1429L93.9303 56.4572L94.6556 56.4572Z" fill="white"/>
<path opacity="0.6" d="M162.475 57.9048L168.278 63.6953M162.475 63.6953L168.278 57.9048" stroke="white" stroke-width="0.725333" stroke-linecap="round" stroke-linejoin="round"/>
<defs>
<linearGradient id="paint0_linear" x1="136" y1="0" x2="136" y2="152" gradientUnits="userSpaceOnUse">
<stop stop-color="#26284A"/>
<stop offset="1" stop-color="#1C1E3A" stop-opacity="0.92"/>
</linearGradient>
<linearGradient id="paint1_linear" x1="178.43" y1="112.914" x2="178.43" y2="134.629" gradientUnits="userSpaceOnUse">
<stop stop-color="#06BFA1"/>
<stop offset="1" stop-color="#06BFA1" stop-opacity="0"/>
</linearGradient>
</defs>
</svg>
