<svg width="268" height="102" viewBox="0 0 268 102" fill="none" xmlns="http://www.w3.org/2000/svg">
<rect x="25.2075" width="242.792" height="54.4903" rx="14" fill="url(#paint0_linear)"/>
<path d="M41.9434 18.3044C41.7455 17.9233 41.4706 17.6374 41.1188 17.4469C40.767 17.249 40.3602 17.15 39.8985 17.15C39.3928 17.15 38.942 17.2636 38.5462 17.4908C38.1505 17.7181 37.839 18.0405 37.6118 18.4583C37.3919 18.8761 37.2819 19.3598 37.2819 19.9095C37.2819 20.4592 37.3919 20.9466 37.6118 21.3717C37.839 21.7895 38.1505 22.112 38.5462 22.3392C38.942 22.5664 39.3928 22.68 39.8985 22.68C40.5801 22.68 41.1335 22.4894 41.5586 22.1083C41.9837 21.7272 42.2439 21.2105 42.3392 20.5582H39.4697V19.5577H43.6804V20.5362C43.5998 21.1298 43.3872 21.6759 43.0428 22.1743C42.7056 22.6727 42.2622 23.0721 41.7125 23.3726C41.1701 23.6658 40.5655 23.8124 39.8985 23.8124C39.1802 23.8124 38.5243 23.6475 37.9306 23.3176C37.3369 22.9805 36.8642 22.5151 36.5124 21.9214C36.1679 21.3277 35.9956 20.6571 35.9956 19.9095C35.9956 19.1619 36.1679 18.4913 36.5124 17.8976C36.8642 17.3039 37.3369 16.8422 37.9306 16.5124C38.5316 16.1752 39.1876 16.0067 39.8985 16.0067C40.712 16.0067 41.434 16.2082 42.0643 16.6113C42.702 17.0071 43.1637 17.5715 43.4495 18.3044H41.9434ZM46.1699 17.117V19.3598H48.8084V20.3823H46.1699V22.724H49.1382V23.7464H44.9165V16.0946H49.1382V17.117H46.1699Z" fill="white"/>
<path opacity="0.7" d="M41.4577 33.6063C41.2702 33.2118 40.9985 32.9079 40.6429 32.6945C40.2872 32.4746 39.8733 32.3647 39.4012 32.3647C38.9291 32.3647 38.5023 32.4746 38.1207 32.6945C37.7456 32.9079 37.4481 33.2183 37.2283 33.6257C37.0148 34.0267 36.9081 34.4923 36.9081 35.0226C36.9081 35.5529 37.0148 36.0185 37.2283 36.4195C37.4481 36.8204 37.7456 37.1309 38.1207 37.3507C38.5023 37.5641 38.9291 37.6709 39.4012 37.6709C40.0608 37.6709 40.604 37.4736 41.0309 37.0791C41.4577 36.6846 41.7067 36.1511 41.7778 35.4785H39.0811V34.7607H42.7188V35.4397C42.667 35.9959 42.4924 36.5068 42.1949 36.9724C41.8975 37.4316 41.5062 37.797 41.0212 38.0686C40.5361 38.3337 39.9961 38.4663 39.4012 38.4663C38.7739 38.4663 38.2015 38.3208 37.6842 38.0298C37.1668 37.7323 36.7562 37.3216 36.4522 36.7978C36.1547 36.274 36.006 35.6822 36.006 35.0226C36.006 34.363 36.1547 33.7712 36.4522 33.2474C36.7562 32.7171 37.1668 32.3065 37.6842 32.0154C38.2015 31.718 38.7739 31.5692 39.4012 31.5692C40.119 31.5692 40.7528 31.7471 41.3025 32.1027C41.8587 32.4584 42.2628 32.9596 42.5151 33.6063H41.4577ZM48.7362 35.5464C48.7362 35.7146 48.7265 35.8924 48.7071 36.08H44.4583C44.4906 36.6038 44.6684 37.0145 44.9918 37.3119C45.3216 37.603 45.7193 37.7485 46.185 37.7485C46.5665 37.7485 46.8834 37.6612 47.1356 37.4865C47.3943 37.3055 47.5754 37.0662 47.6789 36.7687H48.6295C48.4872 37.2796 48.2027 37.6967 47.7759 38.0201C47.349 38.337 46.8187 38.4954 46.185 38.4954C45.6805 38.4954 45.2278 38.3822 44.8269 38.1559C44.4324 37.9295 44.122 37.6094 43.8956 37.1955C43.6693 36.7752 43.5561 36.2901 43.5561 35.7404C43.5561 35.1907 43.6661 34.709 43.8859 34.2951C44.1058 33.8812 44.413 33.5643 44.8075 33.3444C45.2084 33.1181 45.6676 33.0049 46.185 33.0049C46.6894 33.0049 47.1356 33.1148 47.5236 33.3347C47.9117 33.5546 48.2091 33.8585 48.4161 34.2466C48.6295 34.6281 48.7362 35.0614 48.7362 35.5464ZM47.8244 35.3621C47.8244 35.0258 47.75 34.7381 47.6012 34.4988C47.4525 34.253 47.2488 34.0687 46.9901 33.9458C46.7379 33.8165 46.4566 33.7518 46.1462 33.7518C45.6999 33.7518 45.3184 33.8941 45.0015 34.1787C44.6911 34.4632 44.5132 34.8577 44.468 35.3621H47.8244ZM52.4915 32.9952C53.1382 32.9952 53.662 33.1924 54.0629 33.5869C54.4639 33.9749 54.6644 34.5376 54.6644 35.2748V38.4081H53.7913V35.4009C53.7913 34.8706 53.6588 34.4664 53.3936 34.1884C53.1285 33.9038 52.7663 33.7615 52.3071 33.7615C51.8415 33.7615 51.4697 33.907 51.1916 34.1981C50.92 34.4891 50.7842 34.9127 50.7842 35.4688V38.4081H49.9014V33.0922H50.7842V33.8488C50.9588 33.5772 51.1948 33.367 51.4923 33.2183C51.7963 33.0696 52.1293 32.9952 52.4915 32.9952ZM60.9566 35.5464C60.9566 35.7146 60.9469 35.8924 60.9275 36.08H56.6787C56.711 36.6038 56.8889 37.0145 57.2122 37.3119C57.542 37.603 57.9397 37.7485 58.4054 37.7485C58.7869 37.7485 59.1038 37.6612 59.356 37.4865C59.6147 37.3055 59.7958 37.0662 59.8993 36.7687H60.8499C60.7076 37.2796 60.4231 37.6967 59.9963 38.0201C59.5694 38.337 59.0391 38.4954 58.4054 38.4954C57.9009 38.4954 57.4483 38.3822 57.0473 38.1559C56.6528 37.9295 56.3424 37.6094 56.116 37.1955C55.8897 36.7752 55.7765 36.2901 55.7765 35.7404C55.7765 35.1907 55.8865 34.709 56.1063 34.2951C56.3262 33.8812 56.6334 33.5643 57.0279 33.3444C57.4289 33.1181 57.888 33.0049 58.4054 33.0049C58.9098 33.0049 59.356 33.1148 59.7441 33.3347C60.1321 33.5546 60.4296 33.8585 60.6365 34.2466C60.8499 34.6281 60.9566 35.0614 60.9566 35.5464ZM60.0448 35.3621C60.0448 35.0258 59.9704 34.7381 59.8217 34.4988C59.6729 34.253 59.4692 34.0687 59.2105 33.9458C58.9583 33.8165 58.677 33.7518 58.3666 33.7518C57.9203 33.7518 57.5388 33.8941 57.2219 34.1787C56.9115 34.4632 56.7336 34.8577 56.6884 35.3621H60.0448ZM63.0046 33.9555C63.1598 33.6516 63.3797 33.4156 63.6642 33.2474C63.9552 33.0793 64.3077 32.9952 64.7216 32.9952V33.907H64.4888C63.4993 33.907 63.0046 34.4438 63.0046 35.5173V38.4081H62.1218V33.0922H63.0046V33.9555ZM65.4108 35.7307C65.4108 35.1875 65.5207 34.7122 65.7406 34.3048C65.9605 33.8909 66.2612 33.5708 66.6427 33.3444C67.0308 33.1181 67.4608 33.0049 67.9329 33.0049C68.3985 33.0049 68.8027 33.1051 69.1455 33.3056C69.4882 33.5061 69.7437 33.7583 69.9118 34.0623V33.0922H70.8043V38.4081H69.9118V37.4186C69.7372 37.7291 69.4753 37.9877 69.1261 38.1947C68.7833 38.3952 68.3824 38.4954 67.9232 38.4954C67.4511 38.4954 67.0243 38.379 66.6427 38.1462C66.2612 37.9134 65.9605 37.5868 65.7406 37.1664C65.5207 36.7461 65.4108 36.2675 65.4108 35.7307ZM69.9118 35.7404C69.9118 35.3395 69.831 34.9903 69.6693 34.6928C69.5076 34.3953 69.2877 34.169 69.0097 34.0138C68.738 33.8521 68.4373 33.7712 68.1075 33.7712C67.7777 33.7712 67.477 33.8488 67.2054 34.004C66.9337 34.1593 66.7171 34.3856 66.5554 34.6831C66.3937 34.9806 66.3129 35.3298 66.3129 35.7307C66.3129 36.1382 66.3937 36.4939 66.5554 36.7978C66.7171 37.0953 66.9337 37.3249 67.2054 37.4865C67.477 37.6418 67.7777 37.7194 68.1075 37.7194C68.4373 37.7194 68.738 37.6418 69.0097 37.4865C69.2877 37.3249 69.5076 37.0953 69.6693 36.7978C69.831 36.4939 69.9118 36.1414 69.9118 35.7404ZM73.1788 31.2297V38.4081H72.296V31.2297H73.1788ZM78.1522 32.3647V34.6249H80.6161V35.3524H78.1522V37.6806H80.9071V38.4081H77.2694V31.6371H80.9071V32.3647H78.1522ZM83.1256 31.2297V38.4081H82.2429V31.2297H83.1256ZM89.4804 35.5464C89.4804 35.7146 89.4707 35.8924 89.4513 36.08H85.2024C85.2348 36.6038 85.4126 37.0145 85.736 37.3119C86.0658 37.603 86.4635 37.7485 86.9291 37.7485C87.3107 37.7485 87.6276 37.6612 87.8798 37.4865C88.1385 37.3055 88.3195 37.0662 88.423 36.7687H89.3737C89.2314 37.2796 88.9469 37.6967 88.52 38.0201C88.0932 38.337 87.5629 38.4954 86.9291 38.4954C86.4247 38.4954 85.972 38.3822 85.5711 38.1559C85.1766 37.9295 84.8662 37.6094 84.6398 37.1955C84.4135 36.7752 84.3003 36.2901 84.3003 35.7404C84.3003 35.1907 84.4102 34.709 84.6301 34.2951C84.85 33.8812 85.1572 33.5643 85.5517 33.3444C85.9526 33.1181 86.4118 33.0049 86.9291 33.0049C87.4336 33.0049 87.8798 33.1148 88.2678 33.3347C88.6558 33.5546 88.9533 33.8585 89.1603 34.2466C89.3737 34.6281 89.4804 35.0614 89.4804 35.5464ZM88.5685 35.3621C88.5685 35.0258 88.4942 34.7381 88.3454 34.4988C88.1967 34.253 87.993 34.0687 87.7343 33.9458C87.4821 33.8165 87.2008 33.7518 86.8903 33.7518C86.4441 33.7518 86.0626 33.8941 85.7457 34.1787C85.4353 34.4632 85.2574 34.8577 85.2121 35.3621H88.5685ZM90.3158 35.7404C90.3158 35.1907 90.4257 34.7122 90.6456 34.3048C90.8655 33.8909 91.1694 33.5708 91.5574 33.3444C91.9519 33.1181 92.4014 33.0049 92.9058 33.0049C93.559 33.0049 94.0957 33.1633 94.5161 33.4802C94.9429 33.7971 95.2242 34.2369 95.36 34.7995H94.4094C94.3189 34.4761 94.141 34.2207 93.8759 34.0332C93.6172 33.8456 93.2938 33.7518 92.9058 33.7518C92.4014 33.7518 91.994 33.9264 91.6835 34.2757C91.3731 34.6184 91.2179 35.1067 91.2179 35.7404C91.2179 36.3807 91.3731 36.8754 91.6835 37.2246C91.994 37.5738 92.4014 37.7485 92.9058 37.7485C93.2938 37.7485 93.6172 37.6579 93.8759 37.4768C94.1345 37.2958 94.3124 37.0371 94.4094 36.7008H95.36C95.2178 37.244 94.9332 37.6806 94.5064 38.0104C94.0796 38.3337 93.546 38.4954 92.9058 38.4954C92.4014 38.4954 91.9519 38.3822 91.5574 38.1559C91.1694 37.9295 90.8655 37.6094 90.6456 37.1955C90.4257 36.7816 90.3158 36.2966 90.3158 35.7404ZM97.6147 33.8197V36.953C97.6147 37.2117 97.6696 37.396 97.7796 37.5059C97.8895 37.6094 98.0803 37.6612 98.3519 37.6612H99.0018V38.4081H98.2064C97.7149 38.4081 97.3463 38.2949 97.1005 38.0686C96.8548 37.8422 96.7319 37.4704 96.7319 36.953V33.8197H96.0432V33.0922H96.7319V31.7535H97.6147V33.0922H99.0018V33.8197H97.6147ZM100.954 33.9555C101.109 33.6516 101.329 33.4156 101.614 33.2474C101.905 33.0793 102.257 32.9952 102.671 32.9952V33.907H102.438C101.449 33.907 100.954 34.4438 100.954 35.5173V38.4081H100.071V33.0922H100.954V33.9555ZM104.146 32.2289C103.978 32.2289 103.836 32.1706 103.719 32.0542C103.603 31.9378 103.545 31.7956 103.545 31.6274C103.545 31.4593 103.603 31.317 103.719 31.2006C103.836 31.0842 103.978 31.026 104.146 31.026C104.308 31.026 104.444 31.0842 104.554 31.2006C104.67 31.317 104.728 31.4593 104.728 31.6274C104.728 31.7956 104.67 31.9378 104.554 32.0542C104.444 32.1706 104.308 32.2289 104.146 32.2289ZM104.573 33.0922V38.4081H103.69V33.0922H104.573ZM105.748 35.7404C105.748 35.1907 105.858 34.7122 106.077 34.3048C106.297 33.8909 106.601 33.5708 106.989 33.3444C107.384 33.1181 107.833 33.0049 108.338 33.0049C108.991 33.0049 109.528 33.1633 109.948 33.4802C110.375 33.7971 110.656 34.2369 110.792 34.7995H109.841C109.751 34.4761 109.573 34.2207 109.308 34.0332C109.049 33.8456 108.726 33.7518 108.338 33.7518C107.833 33.7518 107.426 33.9264 107.115 34.2757C106.805 34.6184 106.65 35.1067 106.65 35.7404C106.65 36.3807 106.805 36.8754 107.115 37.2246C107.426 37.5738 107.833 37.7485 108.338 37.7485C108.726 37.7485 109.049 37.6579 109.308 37.4768C109.566 37.2958 109.744 37.0371 109.841 36.7008H110.792C110.65 37.244 110.365 37.6806 109.938 38.0104C109.511 38.3337 108.978 38.4954 108.338 38.4954C107.833 38.4954 107.384 38.3822 106.989 38.1559C106.601 37.9295 106.297 37.6094 106.077 37.1955C105.858 36.7816 105.748 36.2966 105.748 35.7404Z" fill="white"/>
<path d="M215.242 17.3142C215.171 17.0167 215.042 16.7936 214.854 16.6448C214.667 16.4961 214.405 16.4217 214.068 16.4217C213.558 16.4217 213.176 16.619 212.924 17.0134C212.672 17.4015 212.539 18.0482 212.526 18.9535C212.694 18.669 212.94 18.4491 213.263 18.2939C213.587 18.1387 213.936 18.0611 214.311 18.0611C214.738 18.0611 215.113 18.1549 215.436 18.3424C215.766 18.5235 216.022 18.7886 216.203 19.1379C216.39 19.4871 216.484 19.9042 216.484 20.3892C216.484 20.8419 216.393 21.2461 216.212 21.6018C216.038 21.9575 215.776 22.2388 215.427 22.4457C215.077 22.6462 214.657 22.7465 214.165 22.7465C213.499 22.7465 212.976 22.601 212.594 22.3099C212.219 22.0125 211.954 21.5953 211.799 21.0586C211.65 20.5218 211.575 19.8525 211.575 19.0506C211.575 16.6836 212.41 15.5002 214.078 15.5002C214.725 15.5002 215.233 15.6748 215.601 16.024C215.976 16.3732 216.196 16.8033 216.261 17.3142H215.242ZM214.068 18.9923C213.674 18.9923 213.338 19.112 213.06 19.3513C212.788 19.5841 212.652 19.9236 212.652 20.3698C212.652 20.8161 212.778 21.1717 213.031 21.4369C213.289 21.6956 213.648 21.8249 214.107 21.8249C214.515 21.8249 214.835 21.6988 215.068 21.4466C215.307 21.1944 215.427 20.8581 215.427 20.4377C215.427 19.998 215.31 19.6488 215.077 19.3901C214.851 19.1249 214.515 18.9923 214.068 18.9923ZM219.022 21.4175L217.848 24.0948H217.13L217.819 21.4175H219.022ZM224.324 16.5284L221.627 22.7465H220.512L223.238 16.6448H219.648V15.7039H224.324V16.5284ZM229.83 16.6254H226.58V18.5558C226.716 18.3747 226.916 18.2228 227.182 18.0999C227.453 17.977 227.741 17.9156 228.045 17.9156C228.588 17.9156 229.028 18.032 229.364 18.2648C229.707 18.4976 229.949 18.7919 230.092 19.1476C230.24 19.5032 230.315 19.8783 230.315 20.2728C230.315 20.7514 230.221 21.1782 230.033 21.5533C229.852 21.9219 229.578 22.2129 229.209 22.4263C228.847 22.6398 228.401 22.7465 227.87 22.7465C227.165 22.7465 226.599 22.5719 226.173 22.2226C225.746 21.8734 225.49 21.411 225.406 20.8355H226.483C226.554 21.1394 226.713 21.3819 226.958 21.563C227.204 21.7376 227.511 21.8249 227.88 21.8249C228.339 21.8249 228.682 21.6859 228.908 21.4078C229.141 21.1297 229.257 20.7611 229.257 20.3019C229.257 19.8363 229.141 19.4806 228.908 19.2349C228.675 18.9826 228.333 18.8565 227.88 18.8565C227.563 18.8565 227.295 18.9374 227.075 19.0991C226.861 19.2543 226.706 19.4677 226.609 19.7393H225.562V15.6554H229.83V16.6254Z" fill="white"/>
<path d="M209.083 35.3718H207.123V37.3798H206.095V35.3718H204.136V34.4406H206.095V32.4326H207.123V34.4406H209.083V35.3718ZM210.653 34.7801C210.653 33.6613 210.841 32.7882 211.216 32.1609C211.597 31.5272 212.25 31.2103 213.175 31.2103C214.1 31.2103 214.75 31.5272 215.125 32.1609C215.507 32.7882 215.697 33.6613 215.697 34.7801C215.697 35.9118 215.507 36.7978 215.125 37.438C214.75 38.0718 214.1 38.3887 213.175 38.3887C212.25 38.3887 211.597 38.0718 211.216 37.438C210.841 36.7978 210.653 35.9118 210.653 34.7801ZM214.611 34.7801C214.611 34.2563 214.575 33.8133 214.504 33.4511C214.44 33.089 214.304 32.7947 214.097 32.5684C213.89 32.3356 213.583 32.2192 213.175 32.2192C212.768 32.2192 212.461 32.3356 212.254 32.5684C212.047 32.7947 211.908 33.089 211.837 33.4511C211.772 33.8133 211.74 34.2563 211.74 34.7801C211.74 35.3233 211.772 35.7792 211.837 36.1479C211.901 36.5165 212.037 36.814 212.244 37.0403C212.457 37.2667 212.768 37.3798 213.175 37.3798C213.583 37.3798 213.89 37.2667 214.097 37.0403C214.31 36.814 214.449 36.5165 214.514 36.1479C214.579 35.7792 214.611 35.3233 214.611 34.7801ZM218.226 37.0791L217.052 39.7565H216.334L217.023 37.0791H218.226ZM222.849 32.9758C222.778 32.6783 222.648 32.4552 222.461 32.3065C222.273 32.1577 222.011 32.0833 221.675 32.0833C221.164 32.0833 220.783 32.2806 220.531 32.6751C220.278 33.0631 220.146 33.7098 220.133 34.6152C220.301 34.3306 220.547 34.1108 220.87 33.9555C221.193 33.8003 221.543 33.7227 221.918 33.7227C222.345 33.7227 222.72 33.8165 223.043 34.004C223.373 34.1851 223.628 34.4503 223.809 34.7995C223.997 35.1487 224.091 35.5658 224.091 36.0509C224.091 36.5036 224 36.9077 223.819 37.2634C223.644 37.6191 223.382 37.9004 223.033 38.1074C222.684 38.3079 222.264 38.4081 221.772 38.4081C221.106 38.4081 220.582 38.2626 220.201 37.9716C219.826 37.6741 219.56 37.257 219.405 36.7202C219.256 36.1834 219.182 35.5141 219.182 34.7122C219.182 32.3453 220.016 31.1618 221.685 31.1618C222.332 31.1618 222.839 31.3364 223.208 31.6856C223.583 32.0348 223.803 32.4649 223.867 32.9758H222.849ZM221.675 34.654C221.281 34.654 220.944 34.7736 220.666 35.0129C220.395 35.2457 220.259 35.5852 220.259 36.0315C220.259 36.4777 220.385 36.8334 220.637 37.0985C220.896 37.3572 221.255 37.4865 221.714 37.4865C222.121 37.4865 222.442 37.3604 222.674 37.1082C222.914 36.856 223.033 36.5197 223.033 36.0994C223.033 35.6596 222.917 35.3104 222.684 35.0517C222.458 34.7866 222.121 34.654 221.675 34.654ZM229.829 32.2871H226.58V34.2175C226.716 34.0364 226.916 33.8844 227.181 33.7615C227.453 33.6387 227.741 33.5772 228.045 33.5772C228.588 33.5772 229.028 33.6936 229.364 33.9264C229.707 34.1593 229.949 34.4535 230.091 34.8092C230.24 35.1649 230.314 35.54 230.314 35.9345C230.314 36.413 230.221 36.8398 230.033 37.2149C229.852 37.5836 229.577 37.8746 229.209 38.088C228.846 38.3014 228.4 38.4081 227.87 38.4081C227.165 38.4081 226.599 38.2335 226.172 37.8843C225.746 37.535 225.49 37.0727 225.406 36.4971H226.483C226.554 36.801 226.712 37.0436 226.958 37.2246C227.204 37.3992 227.511 37.4865 227.88 37.4865C228.339 37.4865 228.682 37.3475 228.908 37.0694C229.141 36.7913 229.257 36.4227 229.257 35.9636C229.257 35.4979 229.141 35.1422 228.908 34.8965C228.675 34.6443 228.332 34.5182 227.88 34.5182C227.563 34.5182 227.294 34.599 227.075 34.7607C226.861 34.9159 226.706 35.1293 226.609 35.4009H225.561V31.317H229.829V32.2871Z" fill="#23B66F"/>
<g clip-path="url(#clip0)">
<path d="M250.68 32.2216C250.954 32.845 251.574 33.2812 252.294 33.2812C253.015 33.2812 253.635 32.845 253.909 32.2216H250.68Z" fill="white"/>
<path d="M252.295 22.6573C252.77 22.6573 253.226 22.7416 253.65 22.896V22.8435C253.65 22.122 253.066 21.535 252.349 21.535H252.241C251.524 21.535 250.94 22.122 250.94 22.8435V22.8953C251.363 22.7414 251.819 22.6573 252.295 22.6573Z" fill="white"/>
<path d="M256.571 31.5322H248.018C247.856 31.5322 247.708 31.4225 247.675 31.2632C247.641 31.1056 247.713 30.9501 247.858 30.8827C247.892 30.8603 248.151 30.6783 248.41 30.1276C248.886 29.1162 248.986 27.6916 248.986 26.6745C248.986 24.8395 250.47 23.3466 252.295 23.3466C254.115 23.3466 255.596 24.8323 255.603 26.6613C255.604 26.6657 255.604 26.6701 255.604 26.6745C255.604 27.6916 255.703 29.1162 256.179 30.1276C256.438 30.6783 256.697 30.8603 256.732 30.8827C256.877 30.9501 256.948 31.1056 256.915 31.2632C256.881 31.4224 256.733 31.5322 256.571 31.5322ZM256.736 30.8852H256.736H256.736Z" fill="white"/>
</g>
<rect y="47.5097" width="242.792" height="54.4903" rx="14" fill="url(#paint1_linear)"/>
<path d="M16.7139 65.8849C16.516 65.5038 16.2411 65.2179 15.8893 65.0274C15.5375 64.8295 15.1307 64.7305 14.669 64.7305C14.1633 64.7305 13.7125 64.8441 13.3167 65.0713C12.921 65.2985 12.6095 65.621 12.3823 66.0388C12.1624 66.4566 12.0524 66.9403 12.0524 67.49C12.0524 68.0397 12.1624 68.5271 12.3823 68.9522C12.6095 69.37 12.921 69.6925 13.3167 69.9197C13.7125 70.1469 14.1633 70.2605 14.669 70.2605C15.3506 70.2605 15.904 70.0699 16.3291 69.6888C16.7542 69.3077 17.0144 68.791 17.1097 68.1386H14.2402V67.1382H18.4509V68.1167C18.3703 68.7103 18.1577 69.2564 17.8133 69.7548C17.4761 70.2531 17.0327 70.6526 16.483 70.9531C15.9406 71.2463 15.336 71.3929 14.669 71.3929C13.9507 71.3929 13.2948 71.2279 12.7011 70.8981C12.1074 70.561 11.6347 70.0956 11.2829 69.5019C10.9384 68.9082 10.7662 68.2376 10.7662 67.49C10.7662 66.7424 10.9384 66.0718 11.2829 65.4781C11.6347 64.8844 12.1074 64.4227 12.7011 64.0929C13.3021 63.7557 13.9581 63.5871 14.669 63.5871C15.4826 63.5871 16.2045 63.7887 16.8348 64.1918C17.4725 64.5876 17.9342 65.152 18.22 65.8849H16.7139ZM20.9404 64.6975V66.9403H23.5789V67.9627H20.9404V70.3045H23.9087V71.3269H19.6871V63.6751H23.9087V64.6975H20.9404Z" fill="white"/>
<path opacity="0.7" d="M15.9015 80.8702C15.714 80.4757 15.4424 80.1717 15.0867 79.9583C14.731 79.7384 14.3171 79.6285 13.845 79.6285C13.3729 79.6285 12.9461 79.7384 12.5646 79.9583C12.1895 80.1717 11.892 80.4821 11.6721 80.8896C11.4587 81.2905 11.352 81.7562 11.352 82.2864C11.352 82.8167 11.4587 83.2824 11.6721 83.6833C11.892 84.0843 12.1895 84.3947 12.5646 84.6146C12.9461 84.828 13.3729 84.9347 13.845 84.9347C14.5047 84.9347 15.0479 84.7375 15.4747 84.343C15.9015 83.9485 16.1505 83.4149 16.2217 82.7424H13.5249V82.0245H17.1626V82.7036C17.1109 83.2597 16.9363 83.7706 16.6388 84.2363C16.3413 84.6954 15.95 85.0608 15.465 85.3324C14.98 85.5976 14.44 85.7301 13.845 85.7301C13.2177 85.7301 12.6454 85.5846 12.128 85.2936C11.6107 84.9961 11.2 84.5855 10.8961 84.0616C10.5986 83.5378 10.4498 82.9461 10.4498 82.2864C10.4498 81.6268 10.5986 81.0351 10.8961 80.5112C11.2 79.981 11.6107 79.5703 12.128 79.2793C12.6454 78.9818 13.2177 78.8331 13.845 78.8331C14.5629 78.8331 15.1966 79.0109 15.7463 79.3666C16.3025 79.7223 16.7067 80.2235 16.9589 80.8702H15.9015ZM23.1801 82.8103C23.1801 82.9784 23.1704 83.1563 23.151 83.3438H18.9021C18.9345 83.8676 19.1123 84.2783 19.4356 84.5758C19.7655 84.8668 20.1632 85.0123 20.6288 85.0123C21.0104 85.0123 21.3273 84.925 21.5795 84.7504C21.8381 84.5693 22.0192 84.33 22.1227 84.0325H23.0734C22.9311 84.5434 22.6465 84.9606 22.2197 85.2839C21.7929 85.6008 21.2626 85.7592 20.6288 85.7592C20.1244 85.7592 19.6717 85.6461 19.2707 85.4197C18.8762 85.1934 18.5658 84.8733 18.3395 84.4594C18.1131 84.039 18 83.554 18 83.0043C18 82.4546 18.1099 81.9728 18.3298 81.5589C18.5497 81.145 18.8568 80.8281 19.2513 80.6083C19.6523 80.3819 20.1115 80.2687 20.6288 80.2687C21.1332 80.2687 21.5795 80.3787 21.9675 80.5986C22.3555 80.8184 22.653 81.1224 22.8599 81.5104C23.0734 81.892 23.1801 82.3252 23.1801 82.8103ZM22.2682 82.626C22.2682 82.2897 22.1938 82.0019 22.0451 81.7626C21.8964 81.5169 21.6926 81.3326 21.434 81.2097C21.1817 81.0803 20.9004 81.0157 20.59 81.0157C20.1438 81.0157 19.7622 81.158 19.4453 81.4425C19.1349 81.727 18.9571 82.1215 18.9118 82.626H22.2682ZM26.9353 80.259C27.582 80.259 28.1058 80.4563 28.5068 80.8508C28.9077 81.2388 29.1082 81.8014 29.1082 82.5387V85.6719H28.2352V82.6648C28.2352 82.1345 28.1026 81.7303 27.8375 81.4522C27.5723 81.1677 27.2102 81.0254 26.751 81.0254C26.2854 81.0254 25.9135 81.1709 25.6354 81.4619C25.3638 81.7529 25.228 82.1765 25.228 82.7327V85.6719H24.3453V80.356H25.228V81.1127C25.4026 80.8411 25.6387 80.6309 25.9361 80.4821C26.2401 80.3334 26.5732 80.259 26.9353 80.259ZM35.4005 82.8103C35.4005 82.9784 35.3908 83.1563 35.3714 83.3438H31.1225C31.1549 83.8676 31.3327 84.2783 31.6561 84.5758C31.9859 84.8668 32.3836 85.0123 32.8492 85.0123C33.2308 85.0123 33.5477 84.925 33.7999 84.7504C34.0586 84.5693 34.2396 84.33 34.3431 84.0325H35.2938C35.1515 84.5434 34.8669 84.9606 34.4401 85.2839C34.0133 85.6008 33.483 85.7592 32.8492 85.7592C32.3448 85.7592 31.8921 85.6461 31.4911 85.4197C31.0967 85.1934 30.7862 84.8733 30.5599 84.4594C30.3335 84.039 30.2204 83.554 30.2204 83.0043C30.2204 82.4546 30.3303 81.9728 30.5502 81.5589C30.7701 81.145 31.0773 80.8281 31.4717 80.6083C31.8727 80.3819 32.3319 80.2687 32.8492 80.2687C33.3537 80.2687 33.7999 80.3787 34.1879 80.5986C34.5759 80.8184 34.8734 81.1224 35.0803 81.5104C35.2938 81.892 35.4005 82.3252 35.4005 82.8103ZM34.4886 82.626C34.4886 82.2897 34.4142 82.0019 34.2655 81.7626C34.1168 81.5169 33.913 81.3326 33.6544 81.2097C33.4022 81.0803 33.1208 81.0157 32.8104 81.0157C32.3642 81.0157 31.9826 81.158 31.6658 81.4425C31.3553 81.727 31.1775 82.1215 31.1322 82.626H34.4886ZM37.4484 81.2194C37.6036 80.9154 37.8235 80.6794 38.1081 80.5112C38.3991 80.3431 38.7515 80.259 39.1654 80.259V81.1709H38.9326C37.9431 81.1709 37.4484 81.7076 37.4484 82.7812V85.6719H36.5657V80.356H37.4484V81.2194ZM39.8546 82.9946C39.8546 82.4514 39.9645 81.976 40.1844 81.5686C40.4043 81.1547 40.705 80.8346 41.0866 80.6083C41.4746 80.3819 41.9047 80.2687 42.3767 80.2687C42.8424 80.2687 43.2466 80.369 43.5893 80.5695C43.9321 80.7699 44.1875 81.0221 44.3557 81.3261V80.356H45.2481V85.6719H44.3557V84.6825C44.1811 84.9929 43.9191 85.2516 43.5699 85.4585C43.2272 85.659 42.8262 85.7592 42.367 85.7592C41.895 85.7592 41.4681 85.6428 41.0866 85.41C40.705 85.1772 40.4043 84.8506 40.1844 84.4303C39.9645 84.0099 39.8546 83.5313 39.8546 82.9946ZM44.3557 83.0043C44.3557 82.6033 44.2748 82.2541 44.1131 81.9566C43.9515 81.6591 43.7316 81.4328 43.4535 81.2776C43.1819 81.1159 42.8812 81.0351 42.5514 81.0351C42.2215 81.0351 41.9208 81.1127 41.6492 81.2679C41.3776 81.4231 41.1609 81.6494 40.9993 81.9469C40.8376 82.2444 40.7568 82.5936 40.7568 82.9946C40.7568 83.402 40.8376 83.7577 40.9993 84.0616C41.1609 84.3591 41.3776 84.5887 41.6492 84.7504C41.9208 84.9056 42.2215 84.9832 42.5514 84.9832C42.8812 84.9832 43.1819 84.9056 43.4535 84.7504C43.7316 84.5887 43.9515 84.3591 44.1131 84.0616C44.2748 83.7577 44.3557 83.4052 44.3557 83.0043ZM47.6226 78.4935V85.6719H46.7399V78.4935H47.6226ZM52.596 79.6285V81.8887H55.06V82.6163H52.596V84.9444H55.351V85.6719H51.7133V78.901H55.351V79.6285H52.596ZM57.5695 78.4935V85.6719H56.6867V78.4935H57.5695ZM63.9242 82.8103C63.9242 82.9784 63.9145 83.1563 63.8951 83.3438H59.6463C59.6786 83.8676 59.8565 84.2783 60.1798 84.5758C60.5096 84.8668 60.9074 85.0123 61.373 85.0123C61.7545 85.0123 62.0714 84.925 62.3236 84.7504C62.5823 84.5693 62.7634 84.33 62.8669 84.0325H63.8175C63.6752 84.5434 63.3907 84.9606 62.9639 85.2839C62.5371 85.6008 62.0068 85.7592 61.373 85.7592C60.8686 85.7592 60.4159 85.6461 60.0149 85.4197C59.6204 85.1934 59.31 84.8733 59.0837 84.4594C58.8573 84.039 58.7441 83.554 58.7441 83.0043C58.7441 82.4546 58.8541 81.9728 59.074 81.5589C59.2938 81.145 59.601 80.8281 59.9955 80.6083C60.3965 80.3819 60.8556 80.2687 61.373 80.2687C61.8774 80.2687 62.3236 80.3787 62.7117 80.5986C63.0997 80.8184 63.3972 81.1224 63.6041 81.5104C63.8175 81.892 63.9242 82.3252 63.9242 82.8103ZM63.0124 82.626C63.0124 82.2897 62.938 82.0019 62.7893 81.7626C62.6405 81.5169 62.4368 81.3326 62.1781 81.2097C61.9259 81.0803 61.6446 81.0157 61.3342 81.0157C60.888 81.0157 60.5064 81.158 60.1895 81.4425C59.8791 81.727 59.7013 82.1215 59.656 82.626H63.0124ZM64.7596 83.0043C64.7596 82.4546 64.8696 81.976 65.0894 81.5686C65.3093 81.1547 65.6133 80.8346 66.0013 80.6083C66.3958 80.3819 66.8452 80.2687 67.3497 80.2687C68.0028 80.2687 68.5396 80.4272 68.9599 80.7441C69.3868 81.0609 69.6681 81.5007 69.8039 82.0633H68.8532C68.7627 81.74 68.5849 81.4845 68.3197 81.297C68.061 81.1094 67.7377 81.0157 67.3497 81.0157C66.8452 81.0157 66.4378 81.1903 66.1274 81.5395C65.817 81.8823 65.6618 82.3705 65.6618 83.0043C65.6618 83.6445 65.817 84.1393 66.1274 84.4885C66.4378 84.8377 66.8452 85.0123 67.3497 85.0123C67.7377 85.0123 68.061 84.9218 68.3197 84.7407C68.5784 84.5596 68.7562 84.3009 68.8532 83.9646H69.8039C69.6616 84.5079 69.3771 84.9444 68.9502 85.2742C68.5234 85.5976 67.9899 85.7592 67.3497 85.7592C66.8452 85.7592 66.3958 85.6461 66.0013 85.4197C65.6133 85.1934 65.3093 84.8733 65.0894 84.4594C64.8696 84.0455 64.7596 83.5605 64.7596 83.0043ZM72.0585 81.0836V84.2169C72.0585 84.4755 72.1135 84.6598 72.2234 84.7698C72.3334 84.8733 72.5241 84.925 72.7958 84.925H73.4457V85.6719H72.6502C72.1588 85.6719 71.7901 85.5588 71.5444 85.3324C71.2986 85.1061 71.1758 84.7342 71.1758 84.2169V81.0836H70.487V80.356H71.1758V79.0174H72.0585V80.356H73.4457V81.0836H72.0585ZM75.398 81.2194C75.5532 80.9154 75.7731 80.6794 76.0576 80.5112C76.3487 80.3431 76.7011 80.259 77.115 80.259V81.1709H76.8822C75.8927 81.1709 75.398 81.7076 75.398 82.7812V85.6719H74.5153V80.356H75.398V81.2194ZM78.5899 79.4927C78.4218 79.4927 78.2795 79.4345 78.1631 79.3181C78.0467 79.2017 77.9885 79.0594 77.9885 78.8913C77.9885 78.7231 78.0467 78.5808 78.1631 78.4644C78.2795 78.348 78.4218 78.2898 78.5899 78.2898C78.7516 78.2898 78.8874 78.348 78.9974 78.4644C79.1138 78.5808 79.172 78.7231 79.172 78.8913C79.172 79.0594 79.1138 79.2017 78.9974 79.3181C78.8874 79.4345 78.7516 79.4927 78.5899 79.4927ZM79.0168 80.356V85.6719H78.134V80.356H79.0168ZM80.1914 83.0043C80.1914 82.4546 80.3014 81.976 80.5212 81.5686C80.7411 81.1547 81.0451 80.8346 81.4331 80.6083C81.8276 80.3819 82.277 80.2687 82.7815 80.2687C83.4346 80.2687 83.9714 80.4272 84.3918 80.7441C84.8186 81.0609 85.0999 81.5007 85.2357 82.0633H84.2851C84.1945 81.74 84.0167 81.4845 83.7515 81.297C83.4928 81.1094 83.1695 81.0157 82.7815 81.0157C82.277 81.0157 81.8696 81.1903 81.5592 81.5395C81.2488 81.8823 81.0936 82.3705 81.0936 83.0043C81.0936 83.6445 81.2488 84.1393 81.5592 84.4885C81.8696 84.8377 82.277 85.0123 82.7815 85.0123C83.1695 85.0123 83.4928 84.9218 83.7515 84.7407C84.0102 84.5596 84.1881 84.3009 84.2851 83.9646H85.2357C85.0934 84.5079 84.8089 84.9444 84.3821 85.2742C83.9552 85.5976 83.4217 85.7592 82.7815 85.7592C82.277 85.7592 81.8276 85.6461 81.4331 85.4197C81.0451 85.1934 80.7411 84.8733 80.5212 84.4594C80.3014 84.0455 80.1914 83.5605 80.1914 83.0043Z" fill="white"/>
<path d="M191.033 65.1034C190.961 64.8059 190.832 64.5828 190.645 64.4341C190.457 64.2854 190.195 64.211 189.859 64.211C189.348 64.211 188.966 64.4082 188.714 64.8027C188.462 65.1907 188.329 65.8374 188.316 66.7428C188.485 66.4583 188.73 66.2384 189.054 66.0832C189.377 65.928 189.726 65.8504 190.101 65.8504C190.528 65.8504 190.903 65.9441 191.227 66.1317C191.556 66.3128 191.812 66.5779 191.993 66.9271C192.18 67.2764 192.274 67.6935 192.274 68.1785C192.274 68.6312 192.184 69.0354 192.003 69.3911C191.828 69.7468 191.566 70.0281 191.217 70.235C190.868 70.4355 190.447 70.5357 189.956 70.5357C189.29 70.5357 188.766 70.3902 188.384 70.0992C188.009 69.8017 187.744 69.3846 187.589 68.8478C187.44 68.3111 187.366 67.6417 187.366 66.8398C187.366 64.4729 188.2 63.2894 189.868 63.2894C190.515 63.2894 191.023 63.464 191.391 63.8133C191.767 64.1625 191.986 64.5925 192.051 65.1034H191.033ZM189.859 66.7816C189.464 66.7816 189.128 66.9013 188.85 67.1405C188.578 67.3734 188.443 67.7129 188.443 68.1591C188.443 68.6053 188.569 68.961 188.821 69.2262C189.08 69.4848 189.438 69.6142 189.898 69.6142C190.305 69.6142 190.625 69.4881 190.858 69.2359C191.097 68.9836 191.217 68.6474 191.217 68.227C191.217 67.7872 191.1 67.438 190.868 67.1793C190.641 66.9142 190.305 66.7816 189.859 66.7816ZM194.812 69.2068L193.638 71.8841H192.92L193.609 69.2068H194.812ZM200.114 64.3177L197.418 70.5357H196.302L199.028 64.4341H195.439V63.4931H200.114V64.3177ZM205.62 64.4147H202.37V66.3451C202.506 66.164 202.707 66.012 202.972 65.8892C203.243 65.7663 203.531 65.7049 203.835 65.7049C204.378 65.7049 204.818 65.8213 205.154 66.0541C205.497 66.2869 205.74 66.5811 205.882 66.9368C206.031 67.2925 206.105 67.6676 206.105 68.0621C206.105 68.5407 206.011 68.9675 205.824 69.3426C205.643 69.7112 205.368 70.0022 204.999 70.2156C204.637 70.429 204.191 70.5357 203.661 70.5357C202.956 70.5357 202.39 70.3611 201.963 70.0119C201.536 69.6627 201.281 69.2003 201.197 68.6247H202.273C202.344 68.9287 202.503 69.1712 202.749 69.3523C202.994 69.5269 203.302 69.6142 203.67 69.6142C204.129 69.6142 204.472 69.4751 204.698 69.1971C204.931 68.919 205.048 68.5504 205.048 68.0912C205.048 67.6256 204.931 67.2699 204.698 67.0241C204.466 66.7719 204.123 66.6458 203.67 66.6458C203.353 66.6458 203.085 66.7267 202.865 66.8883C202.652 67.0435 202.496 67.257 202.399 67.5286H201.352V63.4446H205.62V64.4147Z" fill="white"/>
<path d="M184.443 84.0559H182.483V86.0639H181.455V84.0559H179.495V83.1246H181.455V81.1166H182.483V83.1246H184.443V84.0559ZM186.013 83.4641C186.013 82.3453 186.2 81.4723 186.576 80.845C186.957 80.2112 187.61 79.8943 188.535 79.8943C189.46 79.8943 190.11 80.2112 190.485 80.845C190.866 81.4723 191.057 82.3453 191.057 83.4641C191.057 84.5959 190.866 85.4818 190.485 86.1221C190.11 86.7558 189.46 87.0727 188.535 87.0727C187.61 87.0727 186.957 86.7558 186.576 86.1221C186.2 85.4818 186.013 84.5959 186.013 83.4641ZM189.971 83.4641C189.971 82.9403 189.935 82.4973 189.864 82.1352C189.799 81.773 189.664 81.4788 189.457 81.2524C189.25 81.0196 188.943 80.9032 188.535 80.9032C188.128 80.9032 187.82 81.0196 187.614 81.2524C187.407 81.4788 187.268 81.773 187.196 82.1352C187.132 82.4973 187.099 82.9403 187.099 83.4641C187.099 84.0074 187.132 84.4633 187.196 84.8319C187.261 85.2005 187.397 85.498 187.604 85.7244C187.817 85.9507 188.128 86.0639 188.535 86.0639C188.943 86.0639 189.25 85.9507 189.457 85.7244C189.67 85.498 189.809 85.2005 189.874 84.8319C189.938 84.4633 189.971 84.0074 189.971 83.4641ZM193.585 85.7632L192.412 88.4405H191.694L192.383 85.7632H193.585ZM198.209 81.6598C198.138 81.3623 198.008 81.1392 197.821 80.9905C197.633 80.8417 197.371 80.7674 197.035 80.7674C196.524 80.7674 196.143 80.9646 195.89 81.3591C195.638 81.7471 195.506 82.3938 195.493 83.2992C195.661 83.0147 195.907 82.7948 196.23 82.6396C196.553 82.4844 196.902 82.4068 197.278 82.4068C197.704 82.4068 198.079 82.5005 198.403 82.6881C198.733 82.8692 198.988 83.1343 199.169 83.4835C199.357 83.8328 199.45 84.2499 199.45 84.7349C199.45 85.1876 199.36 85.5918 199.179 85.9475C199.004 86.3032 198.742 86.5845 198.393 86.7914C198.044 86.9919 197.624 87.0921 197.132 87.0921C196.466 87.0921 195.942 86.9466 195.561 86.6556C195.185 86.3581 194.92 85.941 194.765 85.4042C194.616 84.8675 194.542 84.1981 194.542 83.3962C194.542 81.0293 195.376 79.8458 197.045 79.8458C197.691 79.8458 198.199 80.0204 198.568 80.3697C198.943 80.7189 199.163 81.1489 199.227 81.6598H198.209ZM197.035 83.338C196.641 83.338 196.304 83.4577 196.026 83.6969C195.755 83.9298 195.619 84.2693 195.619 84.7155C195.619 85.1617 195.745 85.5174 195.997 85.7826C196.256 86.0412 196.615 86.1706 197.074 86.1706C197.481 86.1706 197.801 86.0445 198.034 85.7923C198.273 85.54 198.393 85.2038 198.393 84.7834C198.393 84.3436 198.277 83.9944 198.044 83.7357C197.818 83.4706 197.481 83.338 197.035 83.338ZM205.189 80.9711H201.94V82.9015C202.075 82.7204 202.276 82.5684 202.541 82.4456C202.813 82.3227 203.1 82.2613 203.404 82.2613C203.948 82.2613 204.387 82.3777 204.724 82.6105C205.066 82.8433 205.309 83.1375 205.451 83.4932C205.6 83.8489 205.674 84.224 205.674 84.6185C205.674 85.0971 205.581 85.5239 205.393 85.899C205.212 86.2676 204.937 86.5586 204.568 86.772C204.206 86.9854 203.76 87.0921 203.23 87.0921C202.525 87.0921 201.959 86.9175 201.532 86.5683C201.105 86.2191 200.85 85.7567 200.766 85.1811H201.843C201.914 85.4851 202.072 85.7276 202.318 85.9087C202.564 86.0833 202.871 86.1706 203.24 86.1706C203.699 86.1706 204.041 86.0315 204.268 85.7535C204.501 85.4754 204.617 85.1068 204.617 84.6476C204.617 84.182 204.501 83.8263 204.268 83.5805C204.035 83.3283 203.692 83.2022 203.24 83.2022C202.923 83.2022 202.654 83.2831 202.434 83.4447C202.221 83.5999 202.066 83.8133 201.969 84.085H200.921V80.001H205.189V80.9711Z" fill="#23B66F"/>
<g clip-path="url(#clip1)">
<path d="M231.329 78.5596C231.296 78.5377 231.046 78.3604 230.796 77.8241C230.337 76.8391 230.241 75.4517 230.241 74.4611C230.241 74.4568 230.241 74.4526 230.24 74.4483C230.235 73.1392 229.462 72.0107 228.356 71.5044V70.73C228.356 70.0273 227.793 69.4556 227.101 69.4556H226.997C226.306 69.4556 225.743 70.0273 225.743 70.73V71.5043C224.633 72.0123 223.858 73.1465 223.858 74.4611C223.858 75.4517 223.762 76.8391 223.303 77.8241C223.053 78.3604 222.803 78.5377 222.77 78.5596C222.63 78.6252 222.562 78.7766 222.594 78.9302C222.626 79.0852 222.769 79.1921 222.925 79.1921H225.348C225.361 80.1337 226.119 80.8955 227.049 80.8955C227.98 80.8955 228.738 80.1337 228.751 79.1921H231.174C231.33 79.1921 231.473 79.0852 231.505 78.9302C231.537 78.7766 231.468 78.6251 231.329 78.5596ZM226.404 70.73C226.404 70.3975 226.67 70.127 226.998 70.127H227.101C227.429 70.127 227.695 70.3975 227.695 70.73V71.2867C227.487 71.243 227.271 71.22 227.049 71.22C226.828 71.22 226.612 71.243 226.404 71.2867V70.73H226.404ZM227.049 80.2241C226.484 80.2241 226.022 79.7635 226.009 79.1921H228.09C228.077 79.7634 227.615 80.2241 227.049 80.2241ZM228.38 78.5207C228.38 78.5207 223.678 78.5207 223.678 78.5207C223.736 78.4303 223.794 78.328 223.852 78.2124C224.295 77.3266 224.519 76.0645 224.519 74.4611C224.519 73.0442 225.654 71.8914 227.049 71.8914C228.444 71.8914 229.579 73.0442 229.579 74.4623C229.579 74.4664 229.58 74.4705 229.58 74.4746C229.581 76.0716 229.806 77.3291 230.247 78.2124C230.305 78.328 230.363 78.4303 230.421 78.5207H228.38Z" fill="white"/>
</g>
<defs>
<linearGradient id="paint0_linear" x1="146.604" y1="0" x2="146.604" y2="54.4903" gradientUnits="userSpaceOnUse">
<stop stop-color="#26284A"/>
<stop offset="1" stop-color="#1B1D3D" stop-opacity="0.32"/>
</linearGradient>
<linearGradient id="paint1_linear" x1="121.396" y1="47.5097" x2="121.396" y2="102" gradientUnits="userSpaceOnUse">
<stop stop-color="#26284A"/>
<stop offset="0.84375" stop-color="#1C1E3A"/>
</linearGradient>
<clipPath id="clip0">
<rect width="11.6788" height="11.7464" fill="white" transform="translate(246.455 21.535)"/>
</clipPath>
<clipPath id="clip1">
<rect width="11.282" height="11.4399" fill="white" transform="translate(221.409 69.4556)"/>
</clipPath>
</defs>
</svg>
