<svg width="158" height="60" viewBox="0 0 158 60" fill="none" xmlns="http://www.w3.org/2000/svg">
<rect x="14.7939" y="28.5437" width="143.206" height="31.4563" rx="8.24" fill="url(#paint0_linear)"/>
<path d="M21.5337 41.9976C21.2259 41.9976 20.9488 41.9448 20.7025 41.8393C20.4563 41.7293 20.2628 41.5754 20.122 41.3775C19.9813 41.1796 19.9109 40.9487 19.9109 40.6849H20.7157C20.7333 40.8828 20.8103 41.0455 20.9466 41.173C21.0873 41.3005 21.283 41.3643 21.5337 41.3643C21.7932 41.3643 21.9955 41.3027 22.1406 41.1796C22.2857 41.0521 22.3583 40.8893 22.3583 40.6914C22.3583 40.5375 22.3121 40.4122 22.2198 40.3154C22.1318 40.2187 22.0197 40.1439 21.8833 40.0911C21.7514 40.0384 21.5667 39.9812 21.3292 39.9196C21.0302 39.8405 20.7861 39.7613 20.597 39.6822C20.4123 39.5986 20.254 39.4711 20.122 39.2995C19.9901 39.128 19.9241 38.8993 19.9241 38.6135C19.9241 38.3496 19.9901 38.1187 20.122 37.9208C20.254 37.7229 20.4387 37.5712 20.6761 37.4657C20.9136 37.3601 21.1885 37.3073 21.5007 37.3073C21.9449 37.3073 22.3077 37.4195 22.5892 37.6438C22.875 37.8637 23.0334 38.1671 23.0641 38.5541H22.233C22.2198 38.387 22.1406 38.2441 21.9955 38.1253C21.8504 38.0066 21.6591 37.9472 21.4216 37.9472C21.2061 37.9472 21.0302 38.0022 20.8938 38.1121C20.7575 38.2221 20.6893 38.3804 20.6893 38.5871C20.6893 38.7278 20.7311 38.8444 20.8147 38.9367C20.9026 39.0247 21.0126 39.095 21.1445 39.1478C21.2764 39.2006 21.4568 39.2578 21.6854 39.3193C21.9889 39.4029 22.2352 39.4865 22.4243 39.57C22.6178 39.6536 22.7805 39.7833 22.9124 39.9592C23.0488 40.1307 23.1169 40.3616 23.1169 40.6519C23.1169 40.885 23.0532 41.1048 22.9256 41.3115C22.8025 41.5182 22.62 41.6853 22.3781 41.8129C22.1406 41.936 21.8592 41.9976 21.5337 41.9976ZM26.4582 39.5964C26.7045 39.6404 26.9134 39.7701 27.0849 39.9856C27.2564 40.2011 27.3422 40.4452 27.3422 40.7178C27.3422 40.9509 27.2806 41.162 27.1575 41.3511C27.0388 41.5358 26.865 41.6832 26.6364 41.7931C26.4077 41.8986 26.1416 41.9514 25.8382 41.9514H24.0043V37.3667H25.7524C26.0646 37.3667 26.3329 37.4195 26.5572 37.525C26.7815 37.6306 26.9508 37.7735 27.0651 37.9538C27.1795 38.1297 27.2367 38.3276 27.2367 38.5475C27.2367 38.8114 27.1663 39.0313 27.0256 39.2072C26.8848 39.3831 26.6957 39.5128 26.4582 39.5964ZM24.7563 39.293H25.6864C25.9327 39.293 26.124 39.238 26.2603 39.128C26.4011 39.0137 26.4714 38.851 26.4714 38.6399C26.4714 38.4332 26.4011 38.2727 26.2603 38.1583C26.124 38.0396 25.9327 37.9802 25.6864 37.9802H24.7563V39.293ZM25.7722 41.3379C26.0273 41.3379 26.2274 41.2764 26.3725 41.1532C26.5176 41.0301 26.5902 40.8586 26.5902 40.6387C26.5902 40.4144 26.5132 40.2363 26.3593 40.1043C26.2054 39.9724 26.0009 39.9064 25.7458 39.9064H24.7563V41.3379H25.7722ZM28.9048 37.3667V40.2891C28.9048 40.6365 28.995 40.8981 29.1753 41.0741C29.36 41.25 29.6151 41.3379 29.9405 41.3379C30.2704 41.3379 30.5254 41.25 30.7057 41.0741C30.8904 40.8981 30.9828 40.6365 30.9828 40.2891V37.3667H31.7348V40.2759C31.7348 40.6497 31.6535 40.9663 31.4907 41.2258C31.328 41.4853 31.1103 41.6788 30.8377 41.8063C30.565 41.9338 30.2638 41.9976 29.9339 41.9976C29.6041 41.9976 29.3028 41.9338 29.0302 41.8063C28.7619 41.6788 28.5486 41.4853 28.3903 41.2258C28.232 40.9663 28.1528 40.6497 28.1528 40.2759V37.3667H28.9048ZM34.8183 39.6624L36.2432 41.9514H35.3988L34.3631 40.2891L33.3934 41.9514H32.5556L33.9805 39.6624L32.549 37.3667H33.3934L34.4357 39.0423L35.412 37.3667H36.2498L34.8183 39.6624Z" fill="white"/>
<path opacity="0.7" d="M21.2624 51.2095C20.9946 51.2095 20.754 51.163 20.5406 51.0698C20.3311 50.9728 20.1662 50.8409 20.0459 50.674C19.9256 50.5033 19.8635 50.3073 19.8596 50.0862H20.4242C20.4436 50.2763 20.5212 50.4373 20.657 50.5693C20.7967 50.6973 20.9985 50.7614 21.2624 50.7614C21.5146 50.7614 21.7125 50.6993 21.8561 50.5751C22.0035 50.447 22.0773 50.2841 22.0773 50.0862C22.0773 49.9309 22.0346 49.8048 21.9492 49.7078C21.8638 49.6108 21.7571 49.5371 21.6291 49.4866C21.501 49.4362 21.3283 49.3819 21.111 49.3237C20.8433 49.2538 20.6279 49.184 20.4649 49.1141C20.3059 49.0443 20.1681 48.9356 20.0517 48.7882C19.9392 48.6368 19.8829 48.435 19.8829 48.1828C19.8829 47.9616 19.9392 47.7657 20.0517 47.5949C20.1642 47.4242 20.3214 47.2923 20.5232 47.1991C20.7288 47.106 20.9636 47.0594 21.2274 47.0594C21.6077 47.0594 21.9182 47.1545 22.1587 47.3447C22.4032 47.5348 22.541 47.787 22.572 48.1013H21.9899C21.9705 47.9461 21.8891 47.8103 21.7455 47.6939C21.6019 47.5736 21.4118 47.5135 21.1751 47.5135C20.9539 47.5135 20.7734 47.5717 20.6337 47.6881C20.4941 47.8006 20.4242 47.9597 20.4242 48.1654C20.4242 48.3128 20.4649 48.4331 20.5464 48.5262C20.6318 48.6194 20.7346 48.6912 20.8549 48.7416C20.9791 48.7882 21.1518 48.8425 21.373 48.9046C21.6407 48.9783 21.8561 49.052 22.0191 49.1258C22.182 49.1956 22.3217 49.3062 22.4381 49.4575C22.5545 49.605 22.6128 49.8068 22.6128 50.0629C22.6128 50.2608 22.5604 50.447 22.4556 50.6217C22.3508 50.7963 22.1956 50.9379 21.9899 51.0466C21.7843 51.1552 21.5418 51.2095 21.2624 51.2095ZM24.0383 48.4156V50.2957C24.0383 50.4509 24.0713 50.5615 24.1373 50.6275C24.2032 50.6896 24.3177 50.7206 24.4807 50.7206H24.8706V51.1688H24.3934C24.0984 51.1688 23.8773 51.1009 23.7298 50.9651C23.5824 50.8293 23.5086 50.6061 23.5086 50.2957V48.4156H23.0954V47.9791H23.5086V47.1759H24.0383V47.9791H24.8706V48.4156H24.0383ZM25.3145 49.5623C25.3145 49.2364 25.3805 48.9511 25.5124 48.7067C25.6444 48.4583 25.8248 48.2662 26.0537 48.1304C26.2866 47.9946 26.5446 47.9267 26.8279 47.9267C27.1073 47.9267 27.3498 47.9869 27.5555 48.1072C27.7611 48.2274 27.9144 48.3788 28.0153 48.5612V47.9791H28.5508V51.1688H28.0153V50.5751C27.9105 50.7614 27.7534 50.9166 27.5438 51.0407C27.3381 51.161 27.0976 51.2212 26.8221 51.2212C26.5388 51.2212 26.2827 51.1513 26.0537 51.0116C25.8248 50.8719 25.6444 50.676 25.5124 50.4238C25.3805 50.1715 25.3145 49.8844 25.3145 49.5623ZM28.0153 49.5681C28.0153 49.3275 27.9668 49.118 27.8698 48.9395C27.7728 48.761 27.6408 48.6252 27.474 48.5321C27.311 48.435 27.1305 48.3865 26.9326 48.3865C26.7347 48.3865 26.5543 48.4331 26.3913 48.5262C26.2284 48.6194 26.0984 48.7552 26.0013 48.9337C25.9043 49.1122 25.8558 49.3217 25.8558 49.5623C25.8558 49.8068 25.9043 50.0202 26.0013 50.2026C26.0984 50.3811 26.2284 50.5188 26.3913 50.6158C26.5543 50.709 26.7347 50.7555 26.9326 50.7555C27.1305 50.7555 27.311 50.709 27.474 50.6158C27.6408 50.5188 27.7728 50.3811 27.8698 50.2026C27.9668 50.0202 28.0153 49.8087 28.0153 49.5681ZM29.9755 48.4971C30.0687 48.3148 30.2006 48.1731 30.3713 48.0722C30.546 47.9713 30.7575 47.9209 31.0058 47.9209V48.468H30.8661C30.2724 48.468 29.9755 48.7901 29.9755 49.4343V51.1688H29.4459V47.9791H29.9755V48.4971ZM32.1469 48.5728C32.2556 48.3827 32.4147 48.2274 32.6242 48.1072C32.8337 47.9869 33.0724 47.9267 33.3401 47.9267C33.6273 47.9267 33.8853 47.9946 34.1143 48.1304C34.3432 48.2662 34.5237 48.4583 34.6556 48.7067C34.7875 48.9511 34.8535 49.2364 34.8535 49.5623C34.8535 49.8844 34.7875 50.1715 34.6556 50.4238C34.5237 50.676 34.3413 50.8719 34.1085 51.0116C33.8795 51.1513 33.6234 51.2212 33.3401 51.2212C33.0646 51.2212 32.8221 51.161 32.6126 51.0407C32.4069 50.9204 32.2517 50.7672 32.1469 50.5809V51.1688H31.6172V46.8615H32.1469V48.5728ZM34.3122 49.5623C34.3122 49.3217 34.2637 49.1122 34.1667 48.9337C34.0696 48.7552 33.9377 48.6194 33.7709 48.5262C33.6079 48.4331 33.4274 48.3865 33.2295 48.3865C33.0355 48.3865 32.8551 48.435 32.6882 48.5321C32.5252 48.6252 32.3933 48.7629 32.2924 48.9453C32.1954 49.1238 32.1469 49.3314 32.1469 49.5681C32.1469 49.8087 32.1954 50.0202 32.2924 50.2026C32.3933 50.3811 32.5252 50.5188 32.6882 50.6158C32.8551 50.709 33.0355 50.7555 33.2295 50.7555C33.4274 50.7555 33.6079 50.709 33.7709 50.6158C33.9377 50.5188 34.0696 50.3811 34.1667 50.2026C34.2637 50.0202 34.3122 49.8068 34.3122 49.5623ZM38.3795 47.9791V51.1688H37.8498V50.6973C37.7489 50.8603 37.6073 50.9884 37.4249 51.0815C37.2464 51.1707 37.0485 51.2154 36.8312 51.2154C36.5829 51.2154 36.3598 51.1649 36.1619 51.064C35.964 50.9593 35.8068 50.804 35.6904 50.5984C35.5779 50.3927 35.5216 50.1424 35.5216 49.8475V47.9791H36.0454V49.7777C36.0454 50.092 36.125 50.3345 36.2841 50.5052C36.4432 50.6721 36.6605 50.7555 36.936 50.7555C37.2193 50.7555 37.4424 50.6682 37.6054 50.4936C37.7683 50.319 37.8498 50.0648 37.8498 49.7311V47.9791H38.3795ZM39.0759 49.5681C39.0759 49.2383 39.1419 48.9511 39.2738 48.7067C39.4058 48.4583 39.5881 48.2662 39.821 48.1304C40.0577 47.9946 40.3274 47.9267 40.63 47.9267C41.022 47.9267 41.344 48.0218 41.5963 48.2119C41.8524 48.4021 42.0212 48.6659 42.1026 49.0035H41.5322C41.4779 48.8095 41.3712 48.6562 41.2121 48.5437C41.0569 48.4312 40.8629 48.3749 40.63 48.3749C40.3274 48.3749 40.0829 48.4797 39.8966 48.6892C39.7104 48.8949 39.6172 49.1878 39.6172 49.5681C39.6172 49.9523 39.7104 50.2491 39.8966 50.4587C40.0829 50.6682 40.3274 50.773 40.63 50.773C40.8629 50.773 41.0569 50.7187 41.2121 50.61C41.3673 50.5014 41.474 50.3461 41.5322 50.1444H42.1026C42.0173 50.4703 41.8465 50.7322 41.5904 50.9301C41.3343 51.1242 41.0142 51.2212 40.63 51.2212C40.3274 51.2212 40.0577 51.1533 39.821 51.0175C39.5881 50.8816 39.4058 50.6896 39.2738 50.4412C39.1419 50.1929 39.0759 49.9018 39.0759 49.5681ZM44.5905 51.1688L43.3391 49.7602V51.1688H42.8094V46.8615H43.3391V49.3935L44.5672 47.9791H45.3064L43.8047 49.5681L45.3123 51.1688H44.5905ZM46.9342 51.2212C46.6897 51.2212 46.4705 51.1804 46.2764 51.0989C46.0824 51.0136 45.9291 50.8972 45.8166 50.7497C45.7041 50.5984 45.642 50.4257 45.6303 50.2317H46.1775C46.193 50.3908 46.2667 50.5208 46.3987 50.6217C46.5345 50.7225 46.711 50.773 46.9283 50.773C47.1301 50.773 47.2892 50.7284 47.4056 50.6391C47.522 50.5499 47.5802 50.4373 47.5802 50.3015C47.5802 50.1618 47.5182 50.059 47.394 49.993C47.2698 49.9232 47.0777 49.8553 46.8177 49.7893C46.581 49.7272 46.387 49.6651 46.2357 49.603C46.0882 49.5371 45.9602 49.442 45.8515 49.3178C45.7468 49.1898 45.6944 49.0229 45.6944 48.8173C45.6944 48.6543 45.7429 48.5049 45.8399 48.3691C45.9369 48.2333 46.0747 48.1266 46.2532 48.0489C46.4316 47.9675 46.6354 47.9267 46.8643 47.9267C47.2174 47.9267 47.5026 48.016 47.7199 48.1945C47.9372 48.373 48.0537 48.6174 48.0692 48.9279H47.5395C47.5279 48.761 47.46 48.6271 47.3358 48.5262C47.2155 48.4253 47.0525 48.3749 46.8469 48.3749C46.6567 48.3749 46.5054 48.4156 46.3928 48.4971C46.2803 48.5786 46.224 48.6853 46.224 48.8173C46.224 48.922 46.257 49.0093 46.323 49.0792C46.3928 49.1452 46.4782 49.1995 46.5791 49.2422C46.6839 49.281 46.8275 49.3256 47.0098 49.376C47.2388 49.4381 47.425 49.5002 47.5686 49.5623C47.7122 49.6205 47.8344 49.7098 47.9353 49.8301C48.0401 49.9503 48.0944 50.1075 48.0983 50.3015C48.0983 50.4761 48.0498 50.6333 47.9528 50.773C47.8558 50.9127 47.718 51.0233 47.5395 51.1048C47.3649 51.1824 47.1631 51.2212 46.9342 51.2212ZM50.1999 49.1374C50.1999 48.7416 50.2891 48.3865 50.4676 48.0722C50.6461 47.754 50.8887 47.5057 51.1952 47.3272C51.5056 47.1487 51.8491 47.0594 52.2255 47.0594C52.6678 47.0594 53.0539 47.1662 53.3838 47.3796C53.7136 47.593 53.9542 47.8957 54.1055 48.2876H53.4711C53.3585 48.0431 53.1956 47.8549 52.9821 47.723C52.7726 47.5911 52.5204 47.5251 52.2255 47.5251C51.9422 47.5251 51.688 47.5911 51.463 47.723C51.2379 47.8549 51.0613 48.0431 50.9333 48.2876C50.8052 48.5282 50.7412 48.8114 50.7412 49.1374C50.7412 49.4595 50.8052 49.7427 50.9333 49.9872C51.0613 50.2278 51.2379 50.4141 51.463 50.546C51.688 50.6779 51.9422 50.7439 52.2255 50.7439C52.5204 50.7439 52.7726 50.6799 52.9821 50.5518C53.1956 50.4199 53.3585 50.2317 53.4711 49.9872H54.1055C53.9542 50.3752 53.7136 50.676 53.3838 50.8894C53.0539 51.0989 52.6678 51.2037 52.2255 51.2037C51.8491 51.2037 51.5056 51.1164 51.1952 50.9418C50.8887 50.7633 50.6461 50.5169 50.4676 50.2026C50.2891 49.8883 50.1999 49.5332 50.1999 49.1374ZM56.2851 51.2212C55.9863 51.2212 55.7147 51.1533 55.4702 51.0175C55.2296 50.8816 55.0395 50.6896 54.8998 50.4412C54.764 50.189 54.6961 49.898 54.6961 49.5681C54.6961 49.2422 54.7659 48.955 54.9056 48.7067C55.0492 48.4544 55.2432 48.2624 55.4877 48.1304C55.7321 47.9946 56.0057 47.9267 56.3084 47.9267C56.6111 47.9267 56.8846 47.9946 57.1291 48.1304C57.3736 48.2624 57.5656 48.4525 57.7053 48.7009C57.8489 48.9492 57.9207 49.2383 57.9207 49.5681C57.9207 49.898 57.847 50.189 57.6995 50.4412C57.5559 50.6896 57.36 50.8816 57.1116 51.0175C56.8633 51.1533 56.5878 51.2212 56.2851 51.2212ZM56.2851 50.7555C56.4752 50.7555 56.6537 50.7109 56.8206 50.6217C56.9875 50.5324 57.1213 50.3985 57.2222 50.22C57.327 50.0415 57.3794 49.8242 57.3794 49.5681C57.3794 49.312 57.3289 49.0947 57.228 48.9162C57.1271 48.7377 56.9952 48.6058 56.8322 48.5204C56.6693 48.4312 56.4927 48.3865 56.3026 48.3865C56.1085 48.3865 55.93 48.4312 55.7671 48.5204C55.608 48.6058 55.4799 48.7377 55.3829 48.9162C55.2859 49.0947 55.2374 49.312 55.2374 49.5681C55.2374 49.8281 55.284 50.0474 55.3771 50.2259C55.4741 50.4044 55.6021 50.5382 55.7612 50.6275C55.9203 50.7128 56.095 50.7555 56.2851 50.7555ZM59.1468 48.4971C59.2399 48.3148 59.3719 48.1731 59.5426 48.0722C59.7172 47.9713 59.9287 47.9209 60.177 47.9209V48.468H60.0373C59.4436 48.468 59.1468 48.7901 59.1468 49.4343V51.1688H58.6171V47.9791H59.1468V48.4971ZM61.3182 48.567C61.4229 48.3846 61.5781 48.2333 61.7838 48.113C61.9933 47.9888 62.2359 47.9267 62.5114 47.9267C62.7947 47.9267 63.0508 47.9946 63.2797 48.1304C63.5125 48.2662 63.6949 48.4583 63.8268 48.7067C63.9588 48.9511 64.0247 49.2364 64.0247 49.5623C64.0247 49.8844 63.9588 50.1715 63.8268 50.4238C63.6949 50.676 63.5125 50.8719 63.2797 51.0116C63.0508 51.1513 62.7947 51.2212 62.5114 51.2212C62.2398 51.2212 61.9992 51.161 61.7896 51.0407C61.584 50.9166 61.4268 50.7633 61.3182 50.5809V52.6822H60.7885V47.9791H61.3182V48.567ZM63.4834 49.5623C63.4834 49.3217 63.4349 49.1122 63.3379 48.9337C63.2409 48.7552 63.109 48.6194 62.9421 48.5262C62.7791 48.4331 62.5987 48.3865 62.4008 48.3865C62.2068 48.3865 62.0263 48.435 61.8595 48.5321C61.6965 48.6252 61.5646 48.7629 61.4637 48.9453C61.3667 49.1238 61.3182 49.3314 61.3182 49.5681C61.3182 49.8087 61.3667 50.0202 61.4637 50.2026C61.5646 50.3811 61.6965 50.5188 61.8595 50.6158C62.0263 50.709 62.2068 50.7555 62.4008 50.7555C62.5987 50.7555 62.7791 50.709 62.9421 50.6158C63.109 50.5188 63.2409 50.3811 63.3379 50.2026C63.4349 50.0202 63.4834 49.8068 63.4834 49.5623ZM66.1131 51.2212C65.8143 51.2212 65.5426 51.1533 65.2982 51.0175C65.0576 50.8816 64.8675 50.6896 64.7278 50.4412C64.5919 50.189 64.524 49.898 64.524 49.5681C64.524 49.2422 64.5939 48.955 64.7336 48.7067C64.8772 48.4544 65.0712 48.2624 65.3156 48.1304C65.5601 47.9946 65.8337 47.9267 66.1363 47.9267C66.439 47.9267 66.7126 47.9946 66.9571 48.1304C67.2015 48.2624 67.3936 48.4525 67.5333 48.7009C67.6769 48.9492 67.7487 49.2383 67.7487 49.5681C67.7487 49.898 67.6749 50.189 67.5275 50.4412C67.3839 50.6896 67.1879 50.8816 66.9396 51.0175C66.6912 51.1533 66.4157 51.2212 66.1131 51.2212ZM66.1131 50.7555C66.3032 50.7555 66.4817 50.7109 66.6486 50.6217C66.8154 50.5324 66.9493 50.3985 67.0502 50.22C67.155 50.0415 67.2073 49.8242 67.2073 49.5681C67.2073 49.312 67.1569 49.0947 67.056 48.9162C66.9551 48.7377 66.8232 48.6058 66.6602 48.5204C66.4972 48.4312 66.3207 48.3865 66.1305 48.3865C65.9365 48.3865 65.758 48.4312 65.595 48.5204C65.4359 48.6058 65.3079 48.7377 65.2109 48.9162C65.1139 49.0947 65.0654 49.312 65.0654 49.5681C65.0654 49.8281 65.1119 50.0474 65.205 50.2259C65.3021 50.4044 65.4301 50.5382 65.5892 50.6275C65.7483 50.7128 65.9229 50.7555 66.1131 50.7555ZM68.9748 48.4971C69.0679 48.3148 69.1998 48.1731 69.3706 48.0722C69.5452 47.9713 69.7567 47.9209 70.005 47.9209V48.468H69.8653C69.2716 48.468 68.9748 48.7901 68.9748 49.4343V51.1688H68.4451V47.9791H68.9748V48.4971ZM70.4185 49.5623C70.4185 49.2364 70.4845 48.9511 70.6164 48.7067C70.7484 48.4583 70.9288 48.2662 71.1578 48.1304C71.3906 47.9946 71.6486 47.9267 71.9319 47.9267C72.2113 47.9267 72.4538 47.9869 72.6595 48.1072C72.8651 48.2274 73.0184 48.3788 73.1193 48.5612V47.9791H73.6548V51.1688H73.1193V50.5751C73.0145 50.7614 72.8574 50.9166 72.6478 51.0407C72.4422 51.161 72.2016 51.2212 71.9261 51.2212C71.6428 51.2212 71.3867 51.1513 71.1578 51.0116C70.9288 50.8719 70.7484 50.676 70.6164 50.4238C70.4845 50.1715 70.4185 49.8844 70.4185 49.5623ZM73.1193 49.5681C73.1193 49.3275 73.0708 49.118 72.9738 48.9395C72.8768 48.761 72.7448 48.6252 72.578 48.5321C72.415 48.435 72.2346 48.3865 72.0367 48.3865C71.8388 48.3865 71.6583 48.4331 71.4953 48.5262C71.3324 48.6194 71.2024 48.7552 71.1054 48.9337C71.0084 49.1122 70.9599 49.3217 70.9599 49.5623C70.9599 49.8068 71.0084 50.0202 71.1054 50.2026C71.2024 50.3811 71.3324 50.5188 71.4953 50.6158C71.6583 50.709 71.8388 50.7555 72.0367 50.7555C72.2346 50.7555 72.415 50.709 72.578 50.6158C72.7448 50.5188 72.8768 50.3811 72.9738 50.2026C73.0708 50.0202 73.1193 49.8087 73.1193 49.5681ZM75.196 48.4156V50.2957C75.196 50.4509 75.229 50.5615 75.2949 50.6275C75.3609 50.6896 75.4754 50.7206 75.6383 50.7206H76.0283V51.1688H75.551C75.2561 51.1688 75.0349 51.1009 74.8875 50.9651C74.74 50.8293 74.6663 50.6061 74.6663 50.2957V48.4156H74.253V47.9791H74.6663V47.1759H75.196V47.9791H76.0283V48.4156H75.196ZM76.9437 47.4611C76.8428 47.4611 76.7574 47.4261 76.6876 47.3563C76.6177 47.2864 76.5828 47.2011 76.5828 47.1002C76.5828 46.9993 76.6177 46.9139 76.6876 46.8441C76.7574 46.7742 76.8428 46.7393 76.9437 46.7393C77.0407 46.7393 77.1222 46.7742 77.1881 46.8441C77.258 46.9139 77.2929 46.9993 77.2929 47.1002C77.2929 47.2011 77.258 47.2864 77.1881 47.3563C77.1222 47.4261 77.0407 47.4611 76.9437 47.4611ZM77.1998 47.9791V51.1688H76.6701V47.9791H77.1998ZM79.4936 51.2212C79.1948 51.2212 78.9232 51.1533 78.6788 51.0175C78.4382 50.8816 78.248 50.6896 78.1083 50.4412C77.9725 50.189 77.9046 49.898 77.9046 49.5681C77.9046 49.2422 77.9745 48.955 78.1142 48.7067C78.2577 48.4544 78.4517 48.2624 78.6962 48.1304C78.9407 47.9946 79.2142 47.9267 79.5169 47.9267C79.8196 47.9267 80.0932 47.9946 80.3376 48.1304C80.5821 48.2624 80.7742 48.4525 80.9139 48.7009C81.0574 48.9492 81.1292 49.2383 81.1292 49.5681C81.1292 49.898 81.0555 50.189 80.908 50.4412C80.7645 50.6896 80.5685 50.8816 80.3202 51.0175C80.0718 51.1533 79.7963 51.2212 79.4936 51.2212ZM79.4936 50.7555C79.6838 50.7555 79.8623 50.7109 80.0291 50.6217C80.196 50.5324 80.3299 50.3985 80.4308 50.22C80.5355 50.0415 80.5879 49.8242 80.5879 49.5681C80.5879 49.312 80.5375 49.0947 80.4366 48.9162C80.3357 48.7377 80.2037 48.6058 80.0408 48.5204C79.8778 48.4312 79.7012 48.3865 79.5111 48.3865C79.3171 48.3865 79.1386 48.4312 78.9756 48.5204C78.8165 48.6058 78.6885 48.7377 78.5914 48.9162C78.4944 49.0947 78.4459 49.312 78.4459 49.5681C78.4459 49.8281 78.4925 50.0474 78.5856 50.2259C78.6826 50.4044 78.8107 50.5382 78.9698 50.6275C79.1289 50.7128 79.3035 50.7555 79.4936 50.7555ZM83.3798 47.9209C83.7678 47.9209 84.0821 48.0392 84.3227 48.276C84.5633 48.5088 84.6836 48.8464 84.6836 49.2887V51.1688H84.1597V49.3644C84.1597 49.0462 84.0802 48.8037 83.9211 48.6368C83.762 48.4661 83.5447 48.3807 83.2692 48.3807C82.9898 48.3807 82.7667 48.468 82.5998 48.6426C82.4368 48.8173 82.3553 49.0714 82.3553 49.4051V51.1688H81.8257V47.9791H82.3553V48.4331C82.4601 48.2701 82.6017 48.144 82.7802 48.0548C82.9626 47.9655 83.1625 47.9209 83.3798 47.9209Z" fill="white"/>
<path d="M138.416 39.7338C138.012 39.532 137.81 39.2138 137.81 38.7792C137.81 38.5697 137.863 38.3776 137.968 38.203C138.072 38.0284 138.229 37.8906 138.439 37.7897C138.649 37.6849 138.905 37.6326 139.207 37.6326C139.506 37.6326 139.76 37.6849 139.97 37.7897C140.183 37.8906 140.342 38.0284 140.447 38.203C140.552 38.3776 140.604 38.5697 140.604 38.7792C140.604 38.9965 140.548 39.1886 140.436 39.3555C140.327 39.5184 140.181 39.6445 139.999 39.7338C140.22 39.8153 140.395 39.9492 140.523 40.1354C140.651 40.3178 140.715 40.5332 140.715 40.7815C140.715 41.0337 140.651 41.2569 140.523 41.4509C140.395 41.6449 140.216 41.7943 139.987 41.8991C139.758 42.0038 139.498 42.0562 139.207 42.0562C138.916 42.0562 138.656 42.0038 138.427 41.8991C138.202 41.7943 138.026 41.6449 137.898 41.4509C137.77 41.2569 137.706 41.0337 137.706 40.7815C137.706 40.5293 137.77 40.312 137.898 40.1296C138.026 39.9472 138.198 39.8153 138.416 39.7338ZM139.97 38.8607C139.97 38.6434 139.902 38.4765 139.766 38.3601C139.63 38.2437 139.444 38.1855 139.207 38.1855C138.975 38.1855 138.79 38.2437 138.654 38.3601C138.519 38.4765 138.451 38.6453 138.451 38.8665C138.451 39.0605 138.521 39.2196 138.66 39.3438C138.804 39.4641 138.986 39.5243 139.207 39.5243C139.429 39.5243 139.611 39.4622 139.754 39.338C139.898 39.2138 139.97 39.0547 139.97 38.8607ZM139.207 40.0248C138.951 40.0248 138.742 40.0889 138.579 40.2169C138.42 40.3411 138.34 40.5215 138.34 40.7582C138.34 40.9794 138.418 41.1598 138.573 41.2995C138.728 41.4354 138.94 41.5033 139.207 41.5033C139.471 41.5033 139.679 41.4334 139.83 41.2937C139.985 41.154 140.063 40.9755 140.063 40.7582C140.063 40.5254 139.983 40.345 139.824 40.2169C139.669 40.0889 139.463 40.0248 139.207 40.0248ZM142.128 39.7338C141.724 39.532 141.522 39.2138 141.522 38.7792C141.522 38.5697 141.575 38.3776 141.679 38.203C141.784 38.0284 141.941 37.8906 142.151 37.7897C142.36 37.6849 142.616 37.6326 142.919 37.6326C143.218 37.6326 143.472 37.6849 143.682 37.7897C143.895 37.8906 144.054 38.0284 144.159 38.203C144.264 38.3776 144.316 38.5697 144.316 38.7792C144.316 38.9965 144.26 39.1886 144.147 39.3555C144.039 39.5184 143.893 39.6445 143.711 39.7338C143.932 39.8153 144.107 39.9492 144.235 40.1354C144.363 40.3178 144.427 40.5332 144.427 40.7815C144.427 41.0337 144.363 41.2569 144.235 41.4509C144.107 41.6449 143.928 41.7943 143.699 41.8991C143.47 42.0038 143.21 42.0562 142.919 42.0562C142.628 42.0562 142.368 42.0038 142.139 41.8991C141.914 41.7943 141.738 41.6449 141.609 41.4509C141.481 41.2569 141.417 41.0337 141.417 40.7815C141.417 40.5293 141.481 40.312 141.609 40.1296C141.738 39.9472 141.91 39.8153 142.128 39.7338ZM143.682 38.8607C143.682 38.6434 143.614 38.4765 143.478 38.3601C143.342 38.2437 143.156 38.1855 142.919 38.1855C142.686 38.1855 142.502 38.2437 142.366 38.3601C142.23 38.4765 142.162 38.6453 142.162 38.8665C142.162 39.0605 142.232 39.2196 142.372 39.3438C142.516 39.4641 142.698 39.5243 142.919 39.5243C143.14 39.5243 143.323 39.4622 143.466 39.338C143.61 39.2138 143.682 39.0547 143.682 38.8607ZM142.919 40.0248C142.663 40.0248 142.453 40.0889 142.291 40.2169C142.131 40.3411 142.052 40.5215 142.052 40.7582C142.052 40.9794 142.129 41.1598 142.285 41.2995C142.44 41.4354 142.651 41.5033 142.919 41.5033C143.183 41.5033 143.391 41.4334 143.542 41.2937C143.697 41.154 143.775 40.9755 143.775 40.7582C143.775 40.5254 143.695 40.345 143.536 40.2169C143.381 40.0889 143.175 40.0248 142.919 40.0248ZM145.938 41.154L145.234 42.7605H144.803L145.216 41.154H145.938ZM146.419 38.7559C146.442 38.3951 146.58 38.1137 146.832 37.9119C147.088 37.7102 147.414 37.6093 147.81 37.6093C148.082 37.6093 148.317 37.6578 148.515 37.7548C148.712 37.8518 148.862 37.9837 148.963 38.1506C149.064 38.3174 149.114 38.5056 149.114 38.7152C149.114 38.9558 149.05 39.1614 148.922 39.3322C148.794 39.5029 148.641 39.6174 148.462 39.6756V39.6989C148.691 39.7687 148.87 39.8968 148.998 40.083C149.126 40.2654 149.19 40.5002 149.19 40.7873C149.19 41.0163 149.137 41.22 149.033 41.3985C148.928 41.577 148.773 41.7186 148.567 41.8234C148.361 41.9243 148.115 41.9747 147.828 41.9747C147.409 41.9747 147.063 41.868 146.792 41.6546C146.524 41.4373 146.38 41.1269 146.361 40.7233H147.001C147.017 40.929 147.096 41.0978 147.24 41.2297C147.383 41.3577 147.577 41.4218 147.822 41.4218C148.059 41.4218 148.241 41.3577 148.369 41.2297C148.497 41.0978 148.561 40.929 148.561 40.7233C148.561 40.4517 148.474 40.2596 148.299 40.1471C148.128 40.0306 147.865 39.9724 147.508 39.9724H147.356V39.4253H147.513C147.828 39.4214 148.066 39.369 148.229 39.2681C148.396 39.1673 148.48 39.0082 148.48 38.7909C148.48 38.6046 148.419 38.4571 148.299 38.3485C148.179 38.236 148.008 38.1797 147.787 38.1797C147.57 38.1797 147.401 38.236 147.281 38.3485C147.16 38.4571 147.088 38.593 147.065 38.7559H146.419ZM150.603 39.7338C150.199 39.532 149.997 39.2138 149.997 38.7792C149.997 38.5697 150.05 38.3776 150.154 38.203C150.259 38.0284 150.416 37.8906 150.626 37.7897C150.835 37.6849 151.092 37.6326 151.394 37.6326C151.693 37.6326 151.947 37.6849 152.157 37.7897C152.37 37.8906 152.529 38.0284 152.634 38.203C152.739 38.3776 152.791 38.5697 152.791 38.7792C152.791 38.9965 152.735 39.1886 152.622 39.3555C152.514 39.5184 152.368 39.6445 152.186 39.7338C152.407 39.8153 152.582 39.9492 152.71 40.1354C152.838 40.3178 152.902 40.5332 152.902 40.7815C152.902 41.0337 152.838 41.2569 152.71 41.4509C152.582 41.6449 152.403 41.7943 152.174 41.8991C151.945 42.0038 151.685 42.0562 151.394 42.0562C151.103 42.0562 150.843 42.0038 150.614 41.8991C150.389 41.7943 150.213 41.6449 150.085 41.4509C149.957 41.2569 149.893 41.0337 149.893 40.7815C149.893 40.5293 149.957 40.312 150.085 40.1296C150.213 39.9472 150.385 39.8153 150.603 39.7338ZM152.157 38.8607C152.157 38.6434 152.089 38.4765 151.953 38.3601C151.817 38.2437 151.631 38.1855 151.394 38.1855C151.161 38.1855 150.977 38.2437 150.841 38.3601C150.705 38.4765 150.638 38.6453 150.638 38.8665C150.638 39.0605 150.707 39.2196 150.847 39.3438C150.991 39.4641 151.173 39.5243 151.394 39.5243C151.615 39.5243 151.798 39.4622 151.941 39.338C152.085 39.2138 152.157 39.0547 152.157 38.8607ZM151.394 40.0248C151.138 40.0248 150.929 40.0889 150.766 40.2169C150.607 40.3411 150.527 40.5215 150.527 40.7582C150.527 40.9794 150.605 41.1598 150.76 41.2995C150.915 41.4354 151.127 41.5033 151.394 41.5033C151.658 41.5033 151.866 41.4334 152.017 41.2937C152.172 41.154 152.25 40.9755 152.25 40.7582C152.25 40.5254 152.17 40.345 152.011 40.2169C151.856 40.0889 151.65 40.0248 151.394 40.0248Z" fill="white"/>
<path d="M140.523 49.3469H139.347V50.5518H138.73V49.3469H137.555V48.7881H138.73V47.5833H139.347V48.7881H140.523V49.3469ZM141.465 48.9919C141.465 48.3205 141.578 47.7967 141.803 47.4203C142.032 47.04 142.424 46.8499 142.979 46.8499C143.534 46.8499 143.924 47.04 144.149 47.4203C144.378 47.7967 144.492 48.3205 144.492 48.9919C144.492 49.6709 144.378 50.2025 144.149 50.5867C143.924 50.967 143.534 51.1571 142.979 51.1571C142.424 51.1571 142.032 50.967 141.803 50.5867C141.578 50.2025 141.465 49.6709 141.465 48.9919ZM143.84 48.9919C143.84 48.6775 143.819 48.4117 143.776 48.1944C143.737 47.9771 143.656 47.8006 143.532 47.6648C143.407 47.5251 143.223 47.4552 142.979 47.4552C142.734 47.4552 142.55 47.5251 142.426 47.6648C142.302 47.8006 142.218 47.9771 142.175 48.1944C142.137 48.4117 142.117 48.6775 142.117 48.9919C142.117 49.3178 142.137 49.5914 142.175 49.8126C142.214 50.0337 142.296 50.2122 142.42 50.3481C142.548 50.4839 142.734 50.5518 142.979 50.5518C143.223 50.5518 143.407 50.4839 143.532 50.3481C143.66 50.2122 143.743 50.0337 143.782 49.8126C143.821 49.5914 143.84 49.3178 143.84 48.9919ZM146.009 50.3713L145.305 51.9778H144.874L145.287 50.3713H146.009ZM148.783 47.9092C148.74 47.7307 148.663 47.5968 148.55 47.5076C148.438 47.4184 148.281 47.3737 148.079 47.3737C147.772 47.3737 147.543 47.4921 147.392 47.7288C147.241 47.9616 147.161 48.3496 147.153 48.8929C147.254 48.7222 147.402 48.5902 147.596 48.4971C147.79 48.404 147.999 48.3574 148.224 48.3574C148.481 48.3574 148.706 48.4137 148.9 48.5262C149.097 48.6349 149.251 48.794 149.359 49.0035C149.472 49.213 149.528 49.4633 149.528 49.7544C149.528 50.026 149.474 50.2685 149.365 50.4819C149.26 50.6954 149.103 50.8642 148.894 50.9883C148.684 51.1086 148.432 51.1688 148.137 51.1688C147.737 51.1688 147.423 51.0815 147.194 50.9068C146.969 50.7283 146.81 50.4781 146.717 50.156C146.628 49.8339 146.583 49.4323 146.583 48.9511C146.583 47.5309 147.084 46.8208 148.085 46.8208C148.473 46.8208 148.777 46.9255 148.999 47.1351C149.224 47.3446 149.356 47.6027 149.394 47.9092H148.783ZM148.079 48.9162C147.842 48.9162 147.64 48.988 147.474 49.1315C147.311 49.2712 147.229 49.475 147.229 49.7427C147.229 50.0105 147.305 50.2239 147.456 50.383C147.611 50.5382 147.827 50.6158 148.102 50.6158C148.347 50.6158 148.539 50.5401 148.678 50.3888C148.822 50.2375 148.894 50.0357 148.894 49.7835C148.894 49.5196 148.824 49.31 148.684 49.1548C148.548 48.9957 148.347 48.9162 148.079 48.9162ZM152.925 47.4378L151.307 51.1688H150.638L152.273 47.5076H150.12V46.943H152.925V47.4378Z" fill="#23B66F"/>
<path d="M92.0947 47.9284L95.606 40.8537L96.5814 42.8751L97.5567 42.4708L99.1173 45.3007L101.848 40.4495L103.604 40.0452L104.384 38.0239L105.36 40.0452L106.335 38.6303L107.115 40.0452H107.896L108.871 38.6303L109.846 40.0452C110.822 39.1019 113.045 38.0643 114.138 41.4601C114.593 40.1126 115.776 38.0239 116.869 40.4495L117.649 38.0239H119.6L120.185 40.0452L121.16 40.4495L121.941 44.4921L122.916 42.8751L124.477 45.3007L125.647 42.8751L126.427 44.8964" stroke="#23B66F" stroke-width="0.776081" stroke-linecap="round" stroke-linejoin="round"/>
<path opacity="0.3" d="M95.6055 41.2378L92.0942 48.3125V49.9295H126.427V45.2805L125.647 43.2591L124.476 45.6847L122.916 43.2591L121.94 44.8762L121.16 40.8335L120.185 40.4293L119.599 38.4079H117.649L116.868 40.8335C115.776 38.4079 114.592 40.4966 114.137 41.8442C113.045 38.4484 110.821 39.486 109.846 40.4293L108.87 39.0143L107.895 40.4293H107.115L106.334 39.0143L105.359 40.4293L104.384 38.4079L103.603 40.4293L101.848 40.8335L99.1168 45.6847L97.5562 42.8549L96.5809 43.2591L95.6055 41.2378Z" fill="url(#paint1_linear)"/>
<path d="M92.0942 48.3933H126.427" stroke="#23B66F" stroke-width="0.38804" stroke-dasharray="1.55 1.94"/>
<rect width="143.206" height="31.4563" rx="8.24" fill="url(#paint2_linear)"/>
<path d="M8.99584 13.4078H8.24381L5.98115 9.98409V13.4078H5.22913V8.81648H5.98115L8.24381 12.2336V8.81648H8.99584V13.4078ZM12.5099 13.4078L10.7354 11.3562V13.4078H9.98338V8.82308H10.7354V10.9142L12.5165 8.82308H13.4598L11.4676 11.1187L13.4928 13.4078H12.5099ZM14.9099 9.42997V10.7757H16.4931V11.3892H14.9099V12.7943H16.691V13.4078H14.1578V8.81648H16.691V9.42997H14.9099Z" fill="white"/>
<path opacity="0.7" d="M8.37177 22.625H7.84209L5.71175 19.3946V22.625H5.18207V18.5622H5.71175L7.84209 21.7869V18.5622H8.37177V22.625ZM9.80436 18.5681V22.625H9.27469V18.5681H9.80436ZM12.9073 22.625L11.2368 20.7741V22.625H10.7071V18.5681H11.2368V20.4481L12.9131 18.5681H13.5825L11.7432 20.5995L13.5999 22.625H12.9073ZM14.7212 18.9988V20.355H16.1996V20.7915H14.7212V22.1885H16.3742V22.625H14.1915V18.5622H16.3742V18.9988H14.7212ZM17.7228 21.8916L17.0709 23.4574H16.7159L17.1408 21.8916H17.7228ZM20.4111 18.5681V22.625H19.8814V18.5681H20.4111ZM22.8679 19.3771C23.2559 19.3771 23.5703 19.4955 23.8108 19.7322C24.0514 19.965 24.1717 20.3026 24.1717 20.745V22.625H23.6479V20.8206C23.6479 20.5024 23.5683 20.2599 23.4092 20.0931C23.2501 19.9223 23.0328 19.837 22.7573 19.837C22.4779 19.837 22.2548 19.9243 22.0879 20.0989C21.925 20.2735 21.8435 20.5277 21.8435 20.8614V22.625H21.3138V19.4353H21.8435V19.8893C21.9482 19.7264 22.0899 19.6003 22.2684 19.511C22.4508 19.4218 22.6506 19.3771 22.8679 19.3771ZM24.839 21.0244C24.839 20.6945 24.905 20.4074 25.0369 20.1629C25.1689 19.9146 25.3513 19.7225 25.5841 19.5867C25.8208 19.4509 26.0905 19.383 26.3931 19.383C26.7851 19.383 27.1071 19.478 27.3594 19.6682C27.6155 19.8583 27.7843 20.1222 27.8658 20.4598H27.2953C27.241 20.2657 27.1343 20.1125 26.9752 19.9999C26.82 19.8874 26.626 19.8311 26.3931 19.8311C26.0905 19.8311 25.846 19.9359 25.6597 20.1455C25.4735 20.3511 25.3804 20.6441 25.3804 21.0244C25.3804 21.4085 25.4735 21.7054 25.6597 21.9149C25.846 22.1245 26.0905 22.2292 26.3931 22.2292C26.626 22.2292 26.82 22.1749 26.9752 22.0663C27.1304 21.9576 27.2371 21.8024 27.2953 21.6006H27.8658C27.7804 21.9266 27.6096 22.1885 27.3535 22.3864C27.0974 22.5804 26.7773 22.6774 26.3931 22.6774C26.0905 22.6774 25.8208 22.6095 25.5841 22.4737C25.3513 22.3379 25.1689 22.1458 25.0369 21.8975C24.905 21.6491 24.839 21.3581 24.839 21.0244ZM28.7413 22.66C28.6404 22.66 28.555 22.625 28.4852 22.5552C28.4153 22.4853 28.3804 22.4 28.3804 22.2991C28.3804 22.1982 28.4153 22.1128 28.4852 22.043C28.555 21.9731 28.6404 21.9382 28.7413 21.9382C28.8383 21.9382 28.9198 21.9731 28.9858 22.043C29.0556 22.1128 29.0905 22.1982 29.0905 22.2991C29.0905 22.4 29.0556 22.4853 28.9858 22.5552C28.9198 22.625 28.8383 22.66 28.7413 22.66Z" fill="white"/>
<path d="M122.038 10.1539V9.54859H123.249V13.7918H122.58V10.1539H122.038ZM124.073 10.1539V9.54859H125.284V13.7918H124.615V10.1539H124.073ZM126.911 11.5742C126.508 11.3724 126.306 11.0542 126.306 10.6196C126.306 10.41 126.358 10.218 126.463 10.0433C126.568 9.86872 126.725 9.73097 126.935 9.63007C127.144 9.5253 127.4 9.47292 127.703 9.47292C128.002 9.47292 128.256 9.5253 128.466 9.63007C128.679 9.73097 128.838 9.86872 128.943 10.0433C129.048 10.218 129.1 10.41 129.1 10.6196C129.1 10.8369 129.044 11.029 128.931 11.1958C128.823 11.3588 128.677 11.4849 128.495 11.5742C128.716 11.6556 128.89 11.7895 129.018 11.9758C129.147 12.1582 129.211 12.3735 129.211 12.6219C129.211 12.8741 129.147 13.0972 129.018 13.2912C128.89 13.4853 128.712 13.6347 128.483 13.7394C128.254 13.8442 127.994 13.8966 127.703 13.8966C127.412 13.8966 127.152 13.8442 126.923 13.7394C126.698 13.6347 126.521 13.4853 126.393 13.2912C126.265 13.0972 126.201 12.8741 126.201 12.6219C126.201 12.3696 126.265 12.1523 126.393 11.97C126.521 11.7876 126.694 11.6556 126.911 11.5742ZM128.466 10.7011C128.466 10.4838 128.398 10.3169 128.262 10.2005C128.126 10.0841 127.94 10.0259 127.703 10.0259C127.47 10.0259 127.286 10.0841 127.15 10.2005C127.014 10.3169 126.946 10.4857 126.946 10.7069C126.946 10.9009 127.016 11.06 127.156 11.1842C127.299 11.3045 127.482 11.3646 127.703 11.3646C127.924 11.3646 128.107 11.3025 128.25 11.1784C128.394 11.0542 128.466 10.8951 128.466 10.7011ZM127.703 11.8652C127.447 11.8652 127.237 11.9292 127.074 12.0573C126.915 12.1814 126.836 12.3619 126.836 12.5986C126.836 12.8198 126.913 13.0002 127.069 13.1399C127.224 13.2757 127.435 13.3436 127.703 13.3436C127.967 13.3436 128.174 13.2738 128.326 13.1341C128.481 12.9944 128.559 12.8159 128.559 12.5986C128.559 12.3658 128.479 12.1853 128.32 12.0573C128.165 11.9292 127.959 11.8652 127.703 11.8652ZM130.722 12.9944L130.018 14.6009H129.587L130 12.9944H130.722ZM133.95 10.119H132V11.2773C132.082 11.1687 132.202 11.0775 132.361 11.0037C132.524 10.93 132.697 10.8931 132.879 10.8931C133.205 10.8931 133.469 10.963 133.671 11.1027C133.877 11.2424 134.022 11.4189 134.107 11.6324C134.197 11.8458 134.241 12.0708 134.241 12.3076C134.241 12.5947 134.185 12.8508 134.073 13.0759C133.964 13.2971 133.799 13.4717 133.578 13.5997C133.36 13.7278 133.093 13.7918 132.775 13.7918C132.352 13.7918 132.012 13.687 131.756 13.4775C131.5 13.268 131.347 12.9905 131.296 12.6451H131.942C131.985 12.8275 132.08 12.973 132.227 13.0817C132.375 13.1865 132.559 13.2389 132.78 13.2389C133.056 13.2389 133.262 13.1554 133.397 12.9886C133.537 12.8217 133.607 12.6005 133.607 12.325C133.607 12.0456 133.537 11.8322 133.397 11.6847C133.258 11.5334 133.052 11.4577 132.78 11.4577C132.59 11.4577 132.429 11.5063 132.297 11.6033C132.169 11.6964 132.076 11.8244 132.018 11.9874H131.389V9.53695H133.95V10.119ZM135.759 12.6393C135.797 12.8333 135.881 12.9808 136.009 13.0817C136.137 13.1826 136.31 13.233 136.527 13.233C136.802 13.233 137.004 13.1244 137.132 12.9071C137.26 12.6898 137.324 12.3192 137.324 11.7953C137.231 11.9273 137.099 12.0301 136.929 12.1038C136.762 12.1737 136.579 12.2086 136.381 12.2086C136.129 12.2086 135.9 12.1582 135.695 12.0573C135.489 11.9525 135.326 11.7992 135.206 11.5974C135.089 11.3918 135.031 11.1434 135.031 10.8524C135.031 10.4256 135.155 10.086 135.404 9.8338C135.656 9.57769 136.001 9.44964 136.44 9.44964C136.967 9.44964 137.342 9.62619 137.563 9.97931C137.788 10.3285 137.901 10.866 137.901 11.5916C137.901 12.0922 137.858 12.5016 137.773 12.8198C137.691 13.138 137.547 13.3785 137.342 13.5415C137.136 13.7045 136.851 13.786 136.486 13.786C136.071 13.786 135.751 13.6773 135.526 13.46C135.301 13.2427 135.175 12.9692 135.147 12.6393H135.759ZM136.498 11.6498C136.731 11.6498 136.913 11.578 137.045 11.4345C137.181 11.287 137.249 11.093 137.249 10.8524C137.249 10.5847 137.177 10.3771 137.033 10.2296C136.894 10.0783 136.702 10.0026 136.457 10.0026C136.213 10.0026 136.019 10.0802 135.875 10.2354C135.735 10.3868 135.665 10.5866 135.665 10.8349C135.665 11.0716 135.733 11.2676 135.869 11.4228C136.009 11.5742 136.218 11.6498 136.498 11.6498Z" fill="white"/>
<path d="M125.455 20.6227V21.1815H123.063V20.6227H125.455ZM126.31 20.8322C126.31 20.1609 126.423 19.6371 126.648 19.2607C126.877 18.8804 127.269 18.6902 127.824 18.6902C128.378 18.6902 128.768 18.8804 128.994 19.2607C129.222 19.6371 129.337 20.1609 129.337 20.8322C129.337 21.5113 129.222 22.0429 128.994 22.4271C128.768 22.8073 128.378 22.9975 127.824 22.9975C127.269 22.9975 126.877 22.8073 126.648 22.4271C126.423 22.0429 126.31 21.5113 126.31 20.8322ZM128.685 20.8322C128.685 20.5179 128.664 20.2521 128.621 20.0348C128.582 19.8175 128.501 19.6409 128.377 19.5051C128.252 19.3654 128.068 19.2956 127.824 19.2956C127.579 19.2956 127.395 19.3654 127.271 19.5051C127.146 19.6409 127.063 19.8175 127.02 20.0348C126.982 20.2521 126.962 20.5179 126.962 20.8322C126.962 21.1582 126.982 21.4317 127.02 21.6529C127.059 21.8741 127.141 22.0526 127.265 22.1884C127.393 22.3242 127.579 22.3921 127.824 22.3921C128.068 22.3921 128.252 22.3242 128.377 22.1884C128.505 22.0526 128.588 21.8741 128.627 21.6529C128.666 21.4317 128.685 21.1582 128.685 20.8322ZM130.854 22.2117L130.15 23.8182H129.719L130.132 22.2117H130.854ZM133.628 19.7496C133.585 19.5711 133.508 19.4372 133.395 19.348C133.283 19.2587 133.126 19.2141 132.924 19.2141C132.617 19.2141 132.388 19.3324 132.237 19.5691C132.086 19.802 132.006 20.19 131.998 20.7333C132.099 20.5625 132.247 20.4306 132.441 20.3375C132.635 20.2443 132.844 20.1978 133.069 20.1978C133.325 20.1978 133.55 20.254 133.744 20.3666C133.942 20.4752 134.096 20.6343 134.204 20.8439C134.317 21.0534 134.373 21.3037 134.373 21.5947C134.373 21.8663 134.319 22.1089 134.21 22.3223C134.105 22.5357 133.948 22.7045 133.739 22.8287C133.529 22.949 133.277 23.0091 132.982 23.0091C132.582 23.0091 132.268 22.9218 132.039 22.7472C131.814 22.5687 131.655 22.3184 131.562 21.9963C131.473 21.6743 131.428 21.2726 131.428 20.7915C131.428 19.3712 131.928 18.6611 132.93 18.6611C133.318 18.6611 133.622 18.7659 133.843 18.9754C134.069 19.185 134.2 19.443 134.239 19.7496H133.628ZM132.924 20.7565C132.687 20.7565 132.485 20.8283 132.318 20.9719C132.155 21.1116 132.074 21.3153 132.074 21.5831C132.074 21.8508 132.15 22.0642 132.301 22.2233C132.456 22.3786 132.672 22.4562 132.947 22.4562C133.192 22.4562 133.384 22.3805 133.523 22.2292C133.667 22.0778 133.739 21.876 133.739 21.6238C133.739 21.36 133.669 21.1504 133.529 20.9952C133.393 20.8361 133.192 20.7565 132.924 20.7565ZM135.797 20.7915C135.393 20.5897 135.192 20.2715 135.192 19.8369C135.192 19.6274 135.244 19.4353 135.349 19.2607C135.453 19.086 135.611 18.9483 135.82 18.8474C136.03 18.7426 136.286 18.6902 136.588 18.6902C136.887 18.6902 137.141 18.7426 137.351 18.8474C137.564 18.9483 137.723 19.086 137.828 19.2607C137.933 19.4353 137.985 19.6274 137.985 19.8369C137.985 20.0542 137.929 20.2463 137.817 20.4131C137.708 20.5761 137.562 20.7022 137.38 20.7915C137.601 20.873 137.776 21.0068 137.904 21.1931C138.032 21.3755 138.096 21.5908 138.096 21.8392C138.096 22.0914 138.032 22.3145 137.904 22.5086C137.776 22.7026 137.597 22.852 137.368 22.9567C137.139 23.0615 136.879 23.1139 136.588 23.1139C136.297 23.1139 136.037 23.0615 135.808 22.9567C135.583 22.852 135.407 22.7026 135.279 22.5086C135.151 22.3145 135.087 22.0914 135.087 21.8392C135.087 21.587 135.151 21.3697 135.279 21.1873C135.407 21.0049 135.58 20.873 135.797 20.7915ZM137.351 19.9184C137.351 19.7011 137.283 19.5342 137.147 19.4178C137.011 19.3014 136.825 19.2432 136.588 19.2432C136.356 19.2432 136.171 19.3014 136.035 19.4178C135.9 19.5342 135.832 19.703 135.832 19.9242C135.832 20.1182 135.902 20.2773 136.041 20.4015C136.185 20.5218 136.367 20.5819 136.588 20.5819C136.81 20.5819 136.992 20.5198 137.136 20.3957C137.279 20.2715 137.351 20.1124 137.351 19.9184ZM136.588 21.0825C136.332 21.0825 136.123 21.1465 135.96 21.2746C135.801 21.3988 135.721 21.5792 135.721 21.8159C135.721 22.0371 135.799 22.2175 135.954 22.3572C136.109 22.493 136.321 22.5609 136.588 22.5609C136.852 22.5609 137.06 22.4911 137.211 22.3514C137.366 22.2117 137.444 22.0332 137.444 21.8159C137.444 21.5831 137.365 21.4026 137.205 21.2746C137.05 21.1465 136.845 21.0825 136.588 21.0825Z" fill="#CF252F"/>
<path d="M77.4985 13.3793L79.669 10.4501C80.3925 11.6869 81.8789 14.3166 82.0367 14.9415C82.1946 15.5664 83.0233 15.2019 83.4179 14.9415L84.9965 11.6218L86.7723 12.9887L87.7588 12.4029L88.1535 12.9887L89.3373 12.0123L90.3239 13.9651C90.8501 13.5746 92.0997 12.9106 92.889 13.3793L93.8756 11.6218L94.8621 13.9651L97.4272 14.9415L98.2165 13.9651L99.0057 15.5274L100.782 12.4029L101.965 12.9887L102.755 10.4501L103.939 9.86423L105.32 12.0123L106.306 11.2312L107.293 13.9651L108.082 12.9887L109.858 15.5274L110.845 12.4029L111.634 14.551" stroke="#CF252F" stroke-width="0.776081" stroke-linecap="round" stroke-linejoin="round"/>
<path d="M79.6685 10.8407L77.3008 13.7699V21.3859H111.633V14.7463L110.844 12.7935L109.858 15.918L108.082 13.3793L107.292 14.3557L106.306 11.6218L105.319 12.4029L103.938 10.2548L102.754 10.8407L101.965 13.3793L100.781 12.7935L99.0053 15.918L98.216 14.3557L97.4268 15.3321L94.8617 14.3557L93.8751 12.0124L92.8886 13.7699C92.0993 13.3012 90.8496 13.9652 90.3235 14.3557L89.3369 12.4029L88.153 13.3793L87.7584 12.7935L86.7718 13.3793L84.996 12.0124L83.4175 15.3321C83.0229 15.5925 82.1942 15.957 82.0363 15.3321C81.8785 14.7072 80.392 12.0774 79.6685 10.8407Z" fill="url(#paint3_linear)" fill-opacity="0.4"/>
<path d="M77.3008 10.6324H111.633" stroke="#CF252F" stroke-width="0.38804" stroke-dasharray="1.55 1.94"/>
<defs>
<linearGradient id="paint0_linear" x1="86.3969" y1="28.5437" x2="86.3969" y2="60" gradientUnits="userSpaceOnUse">
<stop stop-color="#26284A"/>
<stop offset="1" stop-color="#1C1E3A" stop-opacity="0.67"/>
</linearGradient>
<linearGradient id="paint1_linear" x1="109.261" y1="38.4079" x2="109.261" y2="49.9295" gradientUnits="userSpaceOnUse">
<stop stop-color="#06BFA1"/>
<stop offset="1" stop-color="#06BFA1" stop-opacity="0"/>
</linearGradient>
<linearGradient id="paint2_linear" x1="71.603" y1="0" x2="71.603" y2="31.4563" gradientUnits="userSpaceOnUse">
<stop stop-color="#26284A"/>
<stop offset="1" stop-color="#1E2040" stop-opacity="0.31"/>
</linearGradient>
<linearGradient id="paint3_linear" x1="94.4671" y1="10.2548" x2="94.4671" y2="21.3859" gradientUnits="userSpaceOnUse">
<stop stop-color="#F1424D"/>
<stop offset="1" stop-color="#F1424D" stop-opacity="0"/>
</linearGradient>
</defs>
</svg>
