<svg width="158" height="60" viewBox="0 0 158 60" fill="none" xmlns="http://www.w3.org/2000/svg">
<rect x="14.8618" width="143.139" height="32.0531" rx="8.23529" fill="url(#paint0_linear)"/>
<path d="M24.7194 10.7084C24.603 10.4842 24.4413 10.3161 24.2344 10.204C24.0274 10.0876 23.7881 10.0294 23.5165 10.0294C23.219 10.0294 22.9539 10.0962 22.7211 10.2299C22.4883 10.3635 22.305 10.5532 22.1714 10.799C22.042 11.0447 21.9774 11.3293 21.9774 11.6526C21.9774 11.976 22.042 12.2627 22.1714 12.5127C22.305 12.7585 22.4883 12.9482 22.7211 13.0818C22.9539 13.2155 23.219 13.2823 23.5165 13.2823C23.9175 13.2823 24.243 13.1702 24.493 12.946C24.7431 12.7218 24.8962 12.4179 24.9522 12.0342H23.2643V11.4457H25.7412V12.0212C25.6938 12.3705 25.5687 12.6916 25.3661 12.9848C25.1678 13.278 24.9069 13.513 24.5836 13.6897C24.2645 13.8622 23.9089 13.9484 23.5165 13.9484C23.094 13.9484 22.7081 13.8514 22.3589 13.6574C22.0097 13.4591 21.7316 13.1853 21.5247 12.8361C21.322 12.4869 21.2207 12.0924 21.2207 11.6526C21.2207 11.2129 21.322 10.8184 21.5247 10.4691C21.7316 10.1199 22.0097 9.84831 22.3589 9.6543C22.7125 9.45598 23.0983 9.35682 23.5165 9.35682C23.9951 9.35682 24.4197 9.47538 24.7905 9.71251C25.1656 9.94532 25.4372 10.2773 25.6054 10.7084H24.7194ZM27.2056 10.01V11.3293H28.7576V11.9307H27.2056V13.3082H28.9517V13.9096H26.4683V9.40855H28.9517V10.01H27.2056Z" fill="white"/>
<path opacity="0.7" d="M24.4337 19.2978C24.3234 19.0658 24.1636 18.887 23.9544 18.7615C23.7451 18.6321 23.5017 18.5674 23.224 18.5674C22.9463 18.5674 22.6952 18.6321 22.4708 18.7615C22.2501 18.887 22.0751 19.0696 21.9458 19.3092C21.8203 19.5451 21.7575 19.819 21.7575 20.1309C21.7575 20.4429 21.8203 20.7168 21.9458 20.9526C22.0751 21.1885 22.2501 21.3711 22.4708 21.5004C22.6952 21.626 22.9463 21.6887 23.224 21.6887C23.612 21.6887 23.9316 21.5727 24.1826 21.3407C24.4337 21.1086 24.5802 20.7948 24.622 20.3991H23.0357V19.9769H25.1755V20.3763C25.1451 20.7035 25.0424 21.004 24.8674 21.2779C24.6924 21.548 24.4622 21.7629 24.1769 21.9227C23.8916 22.0787 23.574 22.1566 23.224 22.1566C22.855 22.1566 22.5183 22.0711 22.214 21.8999C21.9097 21.7249 21.6681 21.4833 21.4893 21.1752C21.3143 20.867 21.2268 20.519 21.2268 20.1309C21.2268 19.7429 21.3143 19.3948 21.4893 19.0867C21.6681 18.7748 21.9097 18.5332 22.214 18.362C22.5183 18.187 22.855 18.0995 23.224 18.0995C23.6462 18.0995 24.019 18.2041 24.3424 18.4134C24.6696 18.6226 24.9073 18.9174 25.0557 19.2978H24.4337ZM28.7152 20.4391C28.7152 20.538 28.7095 20.6426 28.6981 20.7529H26.1987C26.2178 21.0611 26.3224 21.3026 26.5126 21.4776C26.7066 21.6488 26.9405 21.7344 27.2144 21.7344C27.4389 21.7344 27.6253 21.683 27.7737 21.5803C27.9258 21.4738 28.0323 21.333 28.0932 21.1581H28.6524C28.5687 21.4586 28.4013 21.704 28.1503 21.8942C27.8992 22.0806 27.5873 22.1738 27.2144 22.1738C26.9177 22.1738 26.6514 22.1072 26.4156 21.974C26.1835 21.8409 26.0009 21.6526 25.8678 21.4091C25.7346 21.1619 25.6681 20.8766 25.6681 20.5532C25.6681 20.2298 25.7327 19.9464 25.8621 19.703C25.9914 19.4595 26.1721 19.2731 26.4042 19.1438C26.64 19.0106 26.9101 18.9441 27.2144 18.9441C27.5112 18.9441 27.7737 19.0087 28.0019 19.1381C28.2301 19.2674 28.4051 19.4462 28.5269 19.6744C28.6524 19.8989 28.7152 20.1538 28.7152 20.4391ZM28.1788 20.3307C28.1788 20.1328 28.135 19.9636 28.0476 19.8228C27.9601 19.6782 27.8402 19.5698 27.6881 19.4976C27.5397 19.4215 27.3742 19.3834 27.1916 19.3834C26.9291 19.3834 26.7047 19.4671 26.5183 19.6345C26.3357 19.8019 26.2311 20.0339 26.2044 20.3307H28.1788ZM30.9241 18.9383C31.3046 18.9383 31.6127 19.0544 31.8485 19.2864C32.0844 19.5147 32.2023 19.8456 32.2023 20.2793V22.1224H31.6888V20.3535C31.6888 20.0415 31.6108 19.8038 31.4548 19.6402C31.2989 19.4728 31.0858 19.3891 30.8157 19.3891C30.5418 19.3891 30.3231 19.4747 30.1595 19.6459C29.9997 19.8171 29.9199 20.0663 29.9199 20.3934V22.1224H29.4006V18.9954H29.9199V19.4405C30.0226 19.2807 30.1614 19.1571 30.3364 19.0696C30.5152 18.9821 30.7111 18.9383 30.9241 18.9383ZM35.9037 20.4391C35.9037 20.538 35.8979 20.6426 35.8865 20.7529H33.3872C33.4062 21.0611 33.5109 21.3026 33.7011 21.4776C33.8951 21.6488 34.129 21.7344 34.4029 21.7344C34.6274 21.7344 34.8138 21.683 34.9621 21.5803C35.1143 21.4738 35.2208 21.333 35.2817 21.1581H35.8409C35.7572 21.4586 35.5898 21.704 35.3387 21.8942C35.0877 22.0806 34.7757 22.1738 34.4029 22.1738C34.1062 22.1738 33.8399 22.1072 33.6041 21.974C33.372 21.8409 33.1894 21.6526 33.0563 21.4091C32.9231 21.1619 32.8565 20.8766 32.8565 20.5532C32.8565 20.2298 32.9212 19.9464 33.0506 19.703C33.1799 19.4595 33.3606 19.2731 33.5926 19.1438C33.8285 19.0106 34.0986 18.9441 34.4029 18.9441C34.6996 18.9441 34.9621 19.0087 35.1904 19.1381C35.4186 19.2674 35.5936 19.4462 35.7153 19.6744C35.8409 19.8989 35.9037 20.1538 35.9037 20.4391ZM35.3673 20.3307C35.3673 20.1328 35.3235 19.9636 35.236 19.8228C35.1485 19.6782 35.0287 19.5698 34.8765 19.4976C34.7282 19.4215 34.5627 19.3834 34.3801 19.3834C34.1176 19.3834 33.8932 19.4671 33.7068 19.6345C33.5242 19.8019 33.4196 20.0339 33.3929 20.3307H35.3673ZM37.1083 19.5033C37.1996 19.3245 37.329 19.1856 37.4964 19.0867C37.6675 18.9878 37.8749 18.9383 38.1183 18.9383V19.4747H37.9814C37.3993 19.4747 37.1083 19.7905 37.1083 20.422V22.1224H36.5891V18.9954H37.1083V19.5033ZM38.5237 20.5475C38.5237 20.2279 38.5884 19.9483 38.7177 19.7087C38.8471 19.4652 39.024 19.2769 39.2484 19.1438C39.4767 19.0106 39.7296 18.9441 40.0073 18.9441C40.2812 18.9441 40.519 19.003 40.7206 19.1209C40.9222 19.2389 41.0725 19.3872 41.1714 19.566V18.9954H41.6964V22.1224H41.1714V21.5404C41.0687 21.723 40.9146 21.8751 40.7092 21.9969C40.5076 22.1148 40.2717 22.1738 40.0016 22.1738C39.7239 22.1738 39.4729 22.1053 39.2484 21.9683C39.024 21.8314 38.8471 21.6393 38.7177 21.392C38.5884 21.1447 38.5237 20.8632 38.5237 20.5475ZM41.1714 20.5532C41.1714 20.3173 41.1239 20.1119 41.0288 19.9369C40.9337 19.7619 40.8043 19.6288 40.6407 19.5375C40.481 19.4424 40.3041 19.3948 40.1101 19.3948C39.916 19.3948 39.7392 19.4405 39.5794 19.5318C39.4196 19.6231 39.2922 19.7562 39.1971 19.9312C39.102 20.1062 39.0544 20.3116 39.0544 20.5475C39.0544 20.7872 39.102 20.9964 39.1971 21.1752C39.2922 21.3502 39.4196 21.4852 39.5794 21.5803C39.7392 21.6716 39.916 21.7173 40.1101 21.7173C40.3041 21.7173 40.481 21.6716 40.6407 21.5803C40.8043 21.4852 40.9337 21.3502 41.0288 21.1752C41.1239 20.9964 41.1714 20.7891 41.1714 20.5532ZM43.0932 17.8998V22.1224H42.5739V17.8998H43.0932ZM46.0187 18.5674V19.897H47.4681V20.325H46.0187V21.6944H47.6393V22.1224H45.4994V18.1395H47.6393V18.5674H46.0187ZM48.9442 17.8998V22.1224H48.425V17.8998H48.9442ZM52.6823 20.4391C52.6823 20.538 52.6766 20.6426 52.6652 20.7529H50.1659C50.1849 21.0611 50.2895 21.3026 50.4797 21.4776C50.6738 21.6488 50.9077 21.7344 51.1816 21.7344C51.406 21.7344 51.5925 21.683 51.7408 21.5803C51.893 21.4738 51.9995 21.333 52.0604 21.1581H52.6196C52.5359 21.4586 52.3685 21.704 52.1174 21.8942C51.8663 22.0806 51.5544 22.1738 51.1816 22.1738C50.8849 22.1738 50.6186 22.1072 50.3827 21.974C50.1507 21.8409 49.9681 21.6526 49.8349 21.4091C49.7018 21.1619 49.6352 20.8766 49.6352 20.5532C49.6352 20.2298 49.6999 19.9464 49.8292 19.703C49.9586 19.4595 50.1393 19.2731 50.3713 19.1438C50.6072 19.0106 50.8773 18.9441 51.1816 18.9441C51.4783 18.9441 51.7408 19.0087 51.9691 19.1381C52.1973 19.2674 52.3723 19.4462 52.494 19.6744C52.6196 19.8989 52.6823 20.1538 52.6823 20.4391ZM52.146 20.3307C52.146 20.1328 52.1022 19.9636 52.0147 19.8228C51.9272 19.6782 51.8074 19.5698 51.6552 19.4976C51.5069 19.4215 51.3414 19.3834 51.1588 19.3834C50.8963 19.3834 50.6719 19.4671 50.4854 19.6345C50.3029 19.8019 50.1982 20.0339 50.1716 20.3307H52.146ZM53.1737 20.5532C53.1737 20.2298 53.2384 19.9483 53.3678 19.7087C53.4971 19.4652 53.6759 19.2769 53.9041 19.1438C54.1362 19.0106 54.4006 18.9441 54.6973 18.9441C55.0815 18.9441 55.3973 19.0373 55.6445 19.2237C55.8956 19.4101 56.0611 19.6687 56.141 19.9997H55.5818C55.5285 19.8095 55.4239 19.6592 55.2679 19.5489C55.1158 19.4386 54.9255 19.3834 54.6973 19.3834C54.4006 19.3834 54.1609 19.4861 53.9783 19.6916C53.7957 19.8932 53.7044 20.1804 53.7044 20.5532C53.7044 20.9298 53.7957 21.2208 53.9783 21.4262C54.1609 21.6317 54.4006 21.7344 54.6973 21.7344C54.9255 21.7344 55.1158 21.6811 55.2679 21.5746C55.4201 21.4681 55.5247 21.3159 55.5818 21.1181H56.141C56.0573 21.4377 55.8899 21.6944 55.6388 21.8885C55.3877 22.0787 55.0739 22.1738 54.6973 22.1738C54.4006 22.1738 54.1362 22.1072 53.9041 21.974C53.6759 21.8409 53.4971 21.6526 53.3678 21.4091C53.2384 21.1657 53.1737 20.8804 53.1737 20.5532ZM57.4672 19.4234V21.2665C57.4672 21.4186 57.4995 21.5271 57.5642 21.5917C57.6289 21.6526 57.7411 21.683 57.9009 21.683H58.2832V22.1224H57.8153C57.5262 22.1224 57.3093 22.0558 57.1648 21.9227C57.0202 21.7895 56.9479 21.5708 56.9479 21.2665V19.4234H56.5428V18.9954H56.9479V18.208H57.4672V18.9954H58.2832V19.4234H57.4672ZM59.4316 19.5033C59.5229 19.3245 59.6523 19.1856 59.8196 19.0867C59.9908 18.9878 60.1981 18.9383 60.4416 18.9383V19.4747H60.3047C59.7226 19.4747 59.4316 19.7905 59.4316 20.422V22.1224H58.9124V18.9954H59.4316V19.5033ZM61.3092 18.4876C61.2103 18.4876 61.1266 18.4533 61.0582 18.3848C60.9897 18.3164 60.9554 18.2327 60.9554 18.1338C60.9554 18.0349 60.9897 17.9512 61.0582 17.8827C61.1266 17.8142 61.2103 17.78 61.3092 17.78C61.4043 17.78 61.4842 17.8142 61.5489 17.8827C61.6174 17.9512 61.6516 18.0349 61.6516 18.1338C61.6516 18.2327 61.6174 18.3164 61.5489 18.3848C61.4842 18.4533 61.4043 18.4876 61.3092 18.4876ZM61.5603 18.9954V22.1224H61.041V18.9954H61.5603ZM62.2513 20.5532C62.2513 20.2298 62.3159 19.9483 62.4453 19.7087C62.5746 19.4652 62.7534 19.2769 62.9817 19.1438C63.2137 19.0106 63.4781 18.9441 63.7748 18.9441C64.1591 18.9441 64.4748 19.0373 64.7221 19.2237C64.9731 19.4101 65.1386 19.6687 65.2185 19.9997H64.6593C64.606 19.8095 64.5014 19.6592 64.3455 19.5489C64.1933 19.4386 64.0031 19.3834 63.7748 19.3834C63.4781 19.3834 63.2385 19.4861 63.0559 19.6916C62.8733 19.8932 62.782 20.1804 62.782 20.5532C62.782 20.9298 62.8733 21.2208 63.0559 21.4262C63.2385 21.6317 63.4781 21.7344 63.7748 21.7344C64.0031 21.7344 64.1933 21.6811 64.3455 21.5746C64.4976 21.4681 64.6022 21.3159 64.6593 21.1181H65.2185C65.1348 21.4377 64.9674 21.6944 64.7164 21.8885C64.4653 22.0787 64.1514 22.1738 63.7748 22.1738C63.4781 22.1738 63.2137 22.1072 62.9817 21.974C62.7534 21.8409 62.5746 21.6526 62.4453 21.4091C62.3159 21.1657 62.2513 20.8804 62.2513 20.5532Z" fill="white"/>
<path d="M126.917 9.71413C126.875 9.53914 126.799 9.4079 126.688 9.32041C126.578 9.23291 126.424 9.18916 126.226 9.18916C125.926 9.18916 125.701 9.30519 125.553 9.53724C125.405 9.76549 125.327 10.1459 125.319 10.6785C125.418 10.5111 125.562 10.3818 125.753 10.2905C125.943 10.1992 126.148 10.1535 126.369 10.1535C126.62 10.1535 126.841 10.2087 127.031 10.319C127.225 10.4255 127.375 10.5815 127.482 10.7869C127.592 10.9923 127.647 11.2377 127.647 11.523C127.647 11.7893 127.594 12.027 127.487 12.2363C127.385 12.4455 127.231 12.611 127.025 12.7327C126.82 12.8506 126.572 12.9096 126.283 12.9096C125.891 12.9096 125.583 12.824 125.359 12.6528C125.138 12.4778 124.982 12.2325 124.891 11.9167C124.803 11.601 124.76 11.2073 124.76 10.7355C124.76 9.34323 125.25 8.64707 126.232 8.64707C126.612 8.64707 126.911 8.74979 127.128 8.95521C127.348 9.16063 127.478 9.41361 127.516 9.71413H126.917ZM126.226 10.7013C125.994 10.7013 125.796 10.7717 125.633 10.9124C125.473 11.0494 125.393 11.2491 125.393 11.5116C125.393 11.7741 125.467 11.9833 125.616 12.1393C125.768 12.2914 125.979 12.3675 126.249 12.3675C126.489 12.3675 126.677 12.2933 126.814 12.145C126.955 11.9966 127.025 11.7988 127.025 11.5515C127.025 11.2928 126.957 11.0874 126.82 10.9353C126.687 10.7793 126.489 10.7013 126.226 10.7013ZM129.14 12.1279L128.449 13.7028H128.027L128.432 12.1279H129.14ZM132.259 9.25193L130.673 12.9096H130.016L131.62 9.32041H129.509V8.7669H132.259V9.25193ZM135.498 9.30899H133.586V10.4445C133.666 10.338 133.784 10.2486 133.94 10.1763C134.1 10.1041 134.269 10.0679 134.448 10.0679C134.767 10.0679 135.026 10.1364 135.224 10.2733C135.425 10.4103 135.568 10.5834 135.652 10.7926C135.739 11.0018 135.783 11.2225 135.783 11.4545C135.783 11.736 135.728 11.9871 135.617 12.2077C135.511 12.4246 135.349 12.5958 135.132 12.7213C134.919 12.8468 134.657 12.9096 134.345 12.9096C133.93 12.9096 133.597 12.8069 133.346 12.6015C133.095 12.396 132.945 12.1241 132.896 11.7855H133.529C133.571 11.9643 133.664 12.1069 133.809 12.2135C133.953 12.3162 134.134 12.3675 134.351 12.3675C134.621 12.3675 134.822 12.2857 134.955 12.1222C135.092 11.9586 135.161 11.7417 135.161 11.4716C135.161 11.1977 135.092 10.9885 134.955 10.844C134.819 10.6956 134.617 10.6214 134.351 10.6214C134.164 10.6214 134.006 10.669 133.877 10.7641C133.751 10.8554 133.66 10.9809 133.603 11.1407H132.987V8.73837H135.498V9.30899Z" fill="white"/>
<path d="M123.293 20.3363H122.14V21.5175H121.536V20.3363H120.383V19.7885H121.536V18.6073H122.14V19.7885H123.293V20.3363ZM124.217 19.9882C124.217 19.3301 124.327 18.8165 124.548 18.4475C124.772 18.0747 125.156 17.8883 125.7 17.8883C126.244 17.8883 126.627 18.0747 126.847 18.4475C127.072 18.8165 127.184 19.3301 127.184 19.9882C127.184 20.6539 127.072 21.1751 126.847 21.5517C126.627 21.9245 126.244 22.1109 125.7 22.1109C125.156 22.1109 124.772 21.9245 124.548 21.5517C124.327 21.1751 124.217 20.6539 124.217 19.9882ZM126.545 19.9882C126.545 19.6801 126.524 19.4195 126.482 19.2064C126.444 18.9934 126.364 18.8203 126.242 18.6872C126.121 18.5502 125.94 18.4818 125.7 18.4818C125.461 18.4818 125.28 18.5502 125.158 18.6872C125.036 18.8203 124.955 18.9934 124.913 19.2064C124.875 19.4195 124.856 19.6801 124.856 19.9882C124.856 20.3077 124.875 20.5759 124.913 20.7928C124.951 21.0096 125.031 21.1846 125.152 21.3177C125.278 21.4509 125.461 21.5175 125.7 21.5175C125.94 21.5175 126.121 21.4509 126.242 21.3177C126.368 21.1846 126.45 21.0096 126.488 20.7928C126.526 20.5759 126.545 20.3077 126.545 19.9882ZM128.671 21.3406L127.981 22.9155H127.558L127.964 21.3406H128.671ZM131.391 18.9268C131.349 18.7519 131.273 18.6206 131.162 18.5331C131.052 18.4456 130.898 18.4019 130.7 18.4019C130.4 18.4019 130.175 18.5179 130.027 18.7499C129.879 18.9782 129.801 19.3586 129.793 19.8912C129.892 19.7238 130.036 19.5945 130.227 19.5032C130.417 19.4119 130.622 19.3662 130.843 19.3662C131.094 19.3662 131.315 19.4214 131.505 19.5317C131.699 19.6382 131.849 19.7942 131.956 19.9996C132.066 20.205 132.121 20.4504 132.121 20.7357C132.121 21.002 132.068 21.2398 131.961 21.449C131.859 21.6582 131.705 21.8237 131.499 21.9454C131.294 22.0634 131.046 22.1223 130.757 22.1223C130.365 22.1223 130.057 22.0367 129.833 21.8655C129.612 21.6905 129.456 21.4452 129.365 21.1294C129.278 20.8137 129.234 20.42 129.234 19.9483C129.234 18.5559 129.724 17.8598 130.706 17.8598C131.086 17.8598 131.385 17.9625 131.602 18.1679C131.822 18.3733 131.952 18.6263 131.99 18.9268H131.391ZM130.7 19.914C130.468 19.914 130.27 19.9844 130.107 20.1251C129.947 20.2621 129.867 20.4618 129.867 20.7243C129.867 20.9868 129.941 21.196 130.09 21.352C130.242 21.5041 130.453 21.5802 130.723 21.5802C130.963 21.5802 131.151 21.506 131.288 21.3577C131.429 21.2093 131.499 21.0115 131.499 20.7642C131.499 20.5056 131.431 20.3001 131.294 20.148C131.161 19.992 130.963 19.914 130.7 19.914ZM135.497 18.5217H133.585V19.6572C133.665 19.5507 133.783 19.4613 133.939 19.389C134.099 19.3168 134.268 19.2806 134.447 19.2806C134.767 19.2806 135.025 19.3491 135.223 19.486C135.425 19.623 135.567 19.7961 135.651 20.0053C135.738 20.2145 135.782 20.4352 135.782 20.6672C135.782 20.9487 135.727 21.1998 135.617 21.4205C135.51 21.6373 135.349 21.8085 135.132 21.934C134.919 22.0595 134.656 22.1223 134.344 22.1223C133.93 22.1223 133.597 22.0196 133.346 21.8142C133.095 21.6088 132.944 21.3368 132.895 20.9982H133.528C133.57 21.177 133.663 21.3196 133.808 21.4262C133.952 21.5289 134.133 21.5802 134.35 21.5802C134.62 21.5802 134.822 21.4984 134.955 21.3349C135.092 21.1713 135.16 20.9544 135.16 20.6844C135.16 20.4105 135.092 20.2012 134.955 20.0567C134.818 19.9083 134.616 19.8341 134.35 19.8341C134.164 19.8341 134.006 19.8817 133.876 19.9768C133.751 20.0681 133.66 20.1936 133.602 20.3534H132.986V17.9511H135.497V18.5217Z" fill="#23B66F"/>
<g clip-path="url(#clip0)">
<path d="M147.789 18.9538C147.951 19.3205 148.316 19.5771 148.741 19.5771C149.166 19.5771 149.531 19.3205 149.693 18.9538H147.789Z" fill="white"/>
<path d="M148.741 13.3278C149.021 13.3278 149.29 13.3774 149.539 13.4682V13.4374C149.539 13.013 149.195 12.6677 148.772 12.6677H148.709C148.286 12.6677 147.942 13.013 147.942 13.4374V13.4679C148.192 13.3773 148.461 13.3278 148.741 13.3278V13.3278Z" fill="white"/>
<path d="M151.261 18.5484H146.219C146.124 18.5484 146.036 18.4838 146.016 18.3902C145.997 18.2974 146.039 18.2059 146.124 18.1663C146.145 18.1531 146.297 18.046 146.45 17.7221C146.731 17.1272 146.789 16.2892 146.789 15.6909C146.789 14.6114 147.665 13.7333 148.74 13.7333C149.813 13.7333 150.687 14.6072 150.691 15.6831C150.691 15.6857 150.691 15.6883 150.691 15.6909C150.691 16.2892 150.75 17.1272 151.03 17.7221C151.183 18.046 151.336 18.1531 151.356 18.1663C151.442 18.2059 151.484 18.2974 151.464 18.3902C151.444 18.4838 151.357 18.5484 151.261 18.5484ZM151.358 18.1677H151.359H151.358Z" fill="white"/>
</g>
<rect y="27.9468" width="143.139" height="32.0531" rx="8.23529" fill="url(#paint1_linear)"/>
<path d="M9.84488 38.697C9.72847 38.4728 9.56679 38.3047 9.35985 38.1926C9.1529 38.0762 8.91362 38.018 8.64201 38.018C8.34453 38.018 8.07938 38.0848 7.84656 38.2185C7.61375 38.3521 7.43052 38.5418 7.29687 38.7876C7.16753 39.0333 7.10286 39.3178 7.10286 39.6412C7.10286 39.9646 7.16753 40.2513 7.29687 40.5013C7.43052 40.7471 7.61375 40.9368 7.84656 41.0704C8.07938 41.2041 8.34453 41.2709 8.64201 41.2709C9.04296 41.2709 9.36847 41.1588 9.61853 40.9346C9.86859 40.7104 10.0216 40.4065 10.0777 40.0228H8.38979V39.4343H10.8667V40.0098C10.8192 40.359 10.6942 40.6802 10.4916 40.9734C10.2933 41.2666 10.0324 41.5015 9.70907 41.6783C9.39003 41.8508 9.03434 41.937 8.64201 41.937C8.2195 41.937 7.83363 41.84 7.48441 41.646C7.13519 41.4477 6.85711 41.1739 6.65016 40.8247C6.44753 40.4754 6.34621 40.081 6.34621 39.6412C6.34621 39.2014 6.44753 38.807 6.65016 38.4577C6.85711 38.1085 7.13519 37.8369 7.48441 37.6429C7.83794 37.4446 8.22381 37.3454 8.64201 37.3454C9.12057 37.3454 9.54524 37.464 9.91601 37.7011C10.2911 37.9339 10.5627 38.2659 10.7309 38.697H9.84488ZM12.331 37.9986V39.3178H13.8831V39.9193H12.331V41.2968H14.0771V41.8982H11.5938V37.3971H14.0771V37.9986H12.331Z" fill="white"/>
<path opacity="0.7" d="M9.36729 47.1001C9.25697 46.8681 9.0972 46.6893 8.88797 46.5637C8.67874 46.4344 8.43528 46.3697 8.15758 46.3697C7.87987 46.3697 7.6288 46.4344 7.40436 46.5637C7.18372 46.6893 7.00873 46.8719 6.87939 47.1115C6.75385 47.3474 6.69108 47.6213 6.69108 47.9332C6.69108 48.2452 6.75385 48.5191 6.87939 48.7549C7.00873 48.9908 7.18372 49.1734 7.40436 49.3027C7.6288 49.4282 7.87987 49.491 8.15758 49.491C8.5456 49.491 8.86515 49.375 9.11622 49.1429C9.36729 48.9109 9.51375 48.597 9.5556 48.2014H7.96927V47.7792H10.1091V48.1786C10.0787 48.5057 9.97595 48.8063 9.80096 49.0802C9.62597 49.3503 9.39582 49.5652 9.11051 49.725C8.8252 49.8809 8.50756 49.9589 8.15758 49.9589C7.78858 49.9589 7.45191 49.8733 7.14758 49.7021C6.84325 49.5272 6.60169 49.2856 6.42289 48.9775C6.2479 48.6693 6.16041 48.3212 6.16041 47.9332C6.16041 47.5452 6.2479 47.1971 6.42289 46.889C6.60169 46.577 6.84325 46.3355 7.14758 46.1643C7.45191 45.9893 7.78858 45.9018 8.15758 45.9018C8.57984 45.9018 8.95264 46.0064 9.27599 46.2157C9.60315 46.4249 9.84091 46.7197 9.98927 47.1001H9.36729ZM13.6488 48.2414C13.6488 48.3403 13.6431 48.4449 13.6317 48.5552H11.1323C11.1514 48.8633 11.256 49.1049 11.4462 49.2799C11.6402 49.4511 11.8741 49.5367 12.148 49.5367C12.3725 49.5367 12.5589 49.4853 12.7072 49.3826C12.8594 49.2761 12.9659 49.1353 13.0268 48.9603H13.586C13.5023 49.2609 13.3349 49.5062 13.0839 49.6964C12.8328 49.8828 12.5208 49.976 12.148 49.976C11.8513 49.976 11.585 49.9095 11.3492 49.7763C11.1171 49.6432 10.9345 49.4549 10.8014 49.2114C10.6682 48.9641 10.6017 48.6788 10.6017 48.3555C10.6017 48.0321 10.6663 47.7487 10.7957 47.5053C10.925 47.2618 11.1057 47.0754 11.3378 46.946C11.5736 46.8129 11.8437 46.7463 12.148 46.7463C12.4448 46.7463 12.7072 46.811 12.9355 46.9403C13.1637 47.0697 13.3387 47.2485 13.4605 47.4767C13.586 47.7012 13.6488 47.956 13.6488 48.2414ZM13.1124 48.1329C13.1124 47.9351 13.0686 47.7658 12.9811 47.6251C12.8936 47.4805 12.7738 47.3721 12.6217 47.2998C12.4733 47.2237 12.3078 47.1857 12.1252 47.1857C11.8627 47.1857 11.6383 47.2694 11.4519 47.4368C11.2693 47.6042 11.1647 47.8362 11.138 48.1329H13.1124ZM15.8577 46.7406C16.2382 46.7406 16.5463 46.8566 16.7821 47.0887C17.018 47.3169 17.1359 47.6479 17.1359 48.0816V49.9247H16.6224V48.1558C16.6224 47.8438 16.5444 47.6061 16.3884 47.4425C16.2324 47.2751 16.0194 47.1914 15.7493 47.1914C15.4754 47.1914 15.2567 47.277 15.0931 47.4482C14.9333 47.6194 14.8534 47.8685 14.8534 48.1957V49.9247H14.3342V46.7977H14.8534V47.2428C14.9562 47.083 15.095 46.9594 15.27 46.8719C15.4488 46.7844 15.6447 46.7406 15.8577 46.7406ZM20.8372 48.2414C20.8372 48.3403 20.8315 48.4449 20.8201 48.5552H18.3208C18.3398 48.8633 18.4444 49.1049 18.6347 49.2799C18.8287 49.4511 19.0626 49.5367 19.3365 49.5367C19.561 49.5367 19.7474 49.4853 19.8957 49.3826C20.0479 49.2761 20.1544 49.1353 20.2153 48.9603H20.7745C20.6908 49.2609 20.5234 49.5062 20.2723 49.6964C20.0213 49.8828 19.7093 49.976 19.3365 49.976C19.0398 49.976 18.7735 49.9095 18.5376 49.7763C18.3056 49.6432 18.123 49.4549 17.9899 49.2114C17.8567 48.9641 17.7901 48.6788 17.7901 48.3555C17.7901 48.0321 17.8548 47.7487 17.9841 47.5053C18.1135 47.2618 18.2942 47.0754 18.5262 46.946C18.7621 46.8129 19.0322 46.7463 19.3365 46.7463C19.6332 46.7463 19.8957 46.811 20.124 46.9403C20.3522 47.0697 20.5272 47.2485 20.6489 47.4767C20.7745 47.7012 20.8372 47.956 20.8372 48.2414ZM20.3009 48.1329C20.3009 47.9351 20.2571 47.7658 20.1696 47.6251C20.0821 47.4805 19.9623 47.3721 19.8101 47.2998C19.6618 47.2237 19.4963 47.1857 19.3137 47.1857C19.0512 47.1857 18.8268 47.2694 18.6404 47.4368C18.4578 47.6042 18.3531 47.8362 18.3265 48.1329H20.3009ZM22.0419 47.3055C22.1332 47.1267 22.2626 46.9879 22.4299 46.889C22.6011 46.7901 22.8085 46.7406 23.0519 46.7406V47.277H22.915C22.3329 47.277 22.0419 47.5927 22.0419 48.2242V49.9247H21.5227V46.7977H22.0419V47.3055ZM23.4573 48.3498C23.4573 48.0302 23.522 47.7506 23.6513 47.511C23.7807 47.2675 23.9576 47.0792 24.182 46.946C24.4103 46.8129 24.6632 46.7463 24.9409 46.7463C25.2148 46.7463 25.4526 46.8053 25.6542 46.9232C25.8558 47.0411 26.0061 47.1895 26.105 47.3683V46.7977H26.63V49.9247H26.105V49.3427C26.0023 49.5252 25.8482 49.6774 25.6428 49.7991C25.4412 49.9171 25.2053 49.976 24.9352 49.976C24.6575 49.976 24.4065 49.9076 24.182 49.7706C23.9576 49.6337 23.7807 49.4416 23.6513 49.1943C23.522 48.947 23.4573 48.6655 23.4573 48.3498ZM26.105 48.3555C26.105 48.1196 26.0575 47.9142 25.9624 47.7392C25.8672 47.5642 25.7379 47.4311 25.5743 47.3398C25.4146 47.2447 25.2377 47.1971 25.0437 47.1971C24.8496 47.1971 24.6728 47.2428 24.513 47.3341C24.3532 47.4254 24.2258 47.5585 24.1307 47.7335C24.0356 47.9085 23.988 48.1139 23.988 48.3498C23.988 48.5894 24.0356 48.7987 24.1307 48.9775C24.2258 49.1524 24.3532 49.2875 24.513 49.3826C24.6728 49.4739 24.8496 49.5195 25.0437 49.5195C25.2377 49.5195 25.4146 49.4739 25.5743 49.3826C25.7379 49.2875 25.8672 49.1524 25.9624 48.9775C26.0575 48.7987 26.105 48.5913 26.105 48.3555ZM28.0267 45.7021V49.9247H27.5075V45.7021H28.0267ZM30.9523 46.3697V47.6993H32.4017V48.1272H30.9523V49.4967H32.5729V49.9247H30.433V45.9418H32.5729V46.3697H30.9523ZM33.8778 45.7021V49.9247H33.3586V45.7021H33.8778ZM37.6159 48.2414C37.6159 48.3403 37.6102 48.4449 37.5988 48.5552H35.0995C35.1185 48.8633 35.2231 49.1049 35.4133 49.2799C35.6073 49.4511 35.8413 49.5367 36.1152 49.5367C36.3396 49.5367 36.526 49.4853 36.6744 49.3826C36.8266 49.2761 36.9331 49.1353 36.994 48.9603H37.5532C37.4695 49.2609 37.3021 49.5062 37.051 49.6964C36.7999 49.8828 36.488 49.976 36.1152 49.976C35.8185 49.976 35.5522 49.9095 35.3163 49.7763C35.0843 49.6432 34.9017 49.4549 34.7685 49.2114C34.6354 48.9641 34.5688 48.6788 34.5688 48.3555C34.5688 48.0321 34.6335 47.7487 34.7628 47.5053C34.8922 47.2618 35.0729 47.0754 35.3049 46.946C35.5408 46.8129 35.8109 46.7463 36.1152 46.7463C36.4119 46.7463 36.6744 46.811 36.9027 46.9403C37.1309 47.0697 37.3059 47.2485 37.4276 47.4767C37.5532 47.7012 37.6159 47.956 37.6159 48.2414ZM37.0795 48.1329C37.0795 47.9351 37.0358 47.7658 36.9483 47.6251C36.8608 47.4805 36.741 47.3721 36.5888 47.2998C36.4405 47.2237 36.275 47.1857 36.0924 47.1857C35.8299 47.1857 35.6054 47.2694 35.419 47.4368C35.2364 47.6042 35.1318 47.8362 35.1052 48.1329H37.0795ZM38.1073 48.3555C38.1073 48.0321 38.172 47.7506 38.3013 47.511C38.4307 47.2675 38.6095 47.0792 38.8377 46.946C39.0698 46.8129 39.3342 46.7463 39.6309 46.7463C40.0151 46.7463 40.3309 46.8395 40.5781 47.0259C40.8292 47.2123 40.9947 47.471 41.0746 47.802H40.5154C40.4621 47.6118 40.3575 47.4615 40.2015 47.3512C40.0493 47.2409 39.8591 47.1857 39.6309 47.1857C39.3342 47.1857 39.0945 47.2884 38.9119 47.4938C38.7293 47.6955 38.638 47.9827 38.638 48.3555C38.638 48.7321 38.7293 49.0231 38.9119 49.2285C39.0945 49.4339 39.3342 49.5367 39.6309 49.5367C39.8591 49.5367 40.0493 49.4834 40.2015 49.3769C40.3537 49.2704 40.4583 49.1182 40.5154 48.9204H41.0746C40.9909 49.2399 40.8235 49.4967 40.5724 49.6907C40.3213 49.8809 40.0075 49.976 39.6309 49.976C39.3342 49.976 39.0698 49.9095 38.8377 49.7763C38.6095 49.6432 38.4307 49.4549 38.3013 49.2114C38.172 48.9679 38.1073 48.6826 38.1073 48.3555ZM42.4008 47.2256V49.0688C42.4008 49.2209 42.4331 49.3293 42.4978 49.394C42.5625 49.4549 42.6747 49.4853 42.8345 49.4853H43.2168V49.9247H42.7489C42.4598 49.9247 42.2429 49.8581 42.0984 49.725C41.9538 49.5918 41.8815 49.3731 41.8815 49.0688V47.2256H41.4764V46.7977H41.8815V46.0102H42.4008V46.7977H43.2168V47.2256H42.4008ZM44.3652 47.3055C44.4565 47.1267 44.5858 46.9879 44.7532 46.889C44.9244 46.7901 45.1317 46.7406 45.3752 46.7406V47.277H45.2383C44.6562 47.277 44.3652 47.5927 44.3652 48.2242V49.9247H43.8459V46.7977H44.3652V47.3055ZM46.2428 46.2898C46.1439 46.2898 46.0602 46.2556 45.9917 46.1871C45.9233 46.1186 45.889 46.035 45.889 45.936C45.889 45.8371 45.9233 45.7534 45.9917 45.685C46.0602 45.6165 46.1439 45.5823 46.2428 45.5823C46.3379 45.5823 46.4178 45.6165 46.4825 45.685C46.551 45.7534 46.5852 45.8371 46.5852 45.936C46.5852 46.035 46.551 46.1186 46.4825 46.1871C46.4178 46.2556 46.3379 46.2898 46.2428 46.2898ZM46.4939 46.7977V49.9247H45.9746V46.7977H46.4939ZM47.1849 48.3555C47.1849 48.0321 47.2495 47.7506 47.3789 47.511C47.5082 47.2675 47.687 47.0792 47.9153 46.946C48.1473 46.8129 48.4117 46.7463 48.7084 46.7463C49.0926 46.7463 49.4084 46.8395 49.6557 47.0259C49.9067 47.2123 50.0722 47.471 50.1521 47.802H49.5929C49.5396 47.6118 49.435 47.4615 49.279 47.3512C49.1269 47.2409 48.9367 47.1857 48.7084 47.1857C48.4117 47.1857 48.172 47.2884 47.9894 47.4938C47.8068 47.6955 47.7155 47.9827 47.7155 48.3555C47.7155 48.7321 47.8068 49.0231 47.9894 49.2285C48.172 49.4339 48.4117 49.5367 48.7084 49.5367C48.9367 49.5367 49.1269 49.4834 49.279 49.3769C49.4312 49.2704 49.5358 49.1182 49.5929 48.9204H50.1521C50.0684 49.2399 49.901 49.4967 49.65 49.6907C49.3989 49.8809 49.085 49.976 48.7084 49.976C48.4117 49.976 48.1473 49.9095 47.9153 49.7763C47.687 49.6432 47.5082 49.4549 47.3789 49.2114C47.2495 48.9679 47.1849 48.6826 47.1849 48.3555Z" fill="white"/>
<path d="M112.645 37.8256C112.603 37.6506 112.527 37.5194 112.417 37.4319C112.306 37.3444 112.152 37.3006 111.954 37.3006C111.654 37.3006 111.43 37.4166 111.281 37.6487C111.133 37.8769 111.055 38.2574 111.047 38.7899C111.146 38.6226 111.291 38.4932 111.481 38.4019C111.671 38.3106 111.877 38.265 112.097 38.265C112.348 38.265 112.569 38.3201 112.759 38.4304C112.953 38.537 113.103 38.6929 113.21 38.8984C113.32 39.1038 113.375 39.3491 113.375 39.6345C113.375 39.9007 113.322 40.1385 113.216 40.3477C113.113 40.557 112.959 40.7224 112.753 40.8442C112.548 40.9621 112.301 41.0211 112.012 41.0211C111.62 41.0211 111.312 40.9355 111.087 40.7643C110.867 40.5893 110.711 40.3439 110.619 40.0282C110.532 39.7124 110.488 39.3187 110.488 38.847C110.488 37.4547 110.979 36.7585 111.96 36.7585C112.341 36.7585 112.639 36.8612 112.856 37.0667C113.077 37.2721 113.206 37.5251 113.244 37.8256H112.645ZM111.954 38.8128C111.722 38.8128 111.525 38.8831 111.361 39.0239C111.201 39.1608 111.121 39.3606 111.121 39.623C111.121 39.8855 111.196 40.0948 111.344 40.2507C111.496 40.4029 111.707 40.479 111.977 40.479C112.217 40.479 112.405 40.4048 112.542 40.2564C112.683 40.1081 112.753 39.9102 112.753 39.663C112.753 39.4043 112.685 39.1989 112.548 39.0467C112.415 38.8907 112.217 38.8128 111.954 38.8128ZM114.868 40.2393L114.178 41.8142H113.755L114.161 40.2393H114.868ZM117.987 37.3634L116.401 41.0211H115.745L117.348 37.4319H115.237V36.8784H117.987V37.3634ZM121.226 37.4204H119.314V38.556C119.394 38.4495 119.512 38.3601 119.668 38.2878C119.828 38.2155 119.997 38.1794 120.176 38.1794C120.495 38.1794 120.754 38.2478 120.952 38.3848C121.154 38.5217 121.296 38.6948 121.38 38.9041C121.467 39.1133 121.511 39.3339 121.511 39.566C121.511 39.8475 121.456 40.0986 121.346 40.3192C121.239 40.536 121.077 40.7072 120.861 40.8328C120.648 40.9583 120.385 41.0211 120.073 41.0211C119.659 41.0211 119.326 40.9183 119.075 40.7129C118.824 40.5075 118.673 40.2355 118.624 39.8969H119.257C119.299 40.0757 119.392 40.2184 119.537 40.3249C119.681 40.4276 119.862 40.479 120.079 40.479C120.349 40.479 120.551 40.3972 120.684 40.2336C120.821 40.07 120.889 39.8532 120.889 39.5831C120.889 39.3092 120.821 39.1 120.684 38.9554C120.547 38.8071 120.345 38.7329 120.079 38.7329C119.892 38.7329 119.735 38.7804 119.605 38.8755C119.48 38.9668 119.388 39.0924 119.331 39.2521H118.715V36.8498H121.226V37.4204Z" fill="white"/>
<path d="M108.768 48.9741H107.615V50.1552H107.01V48.9741H105.858V48.4263H107.01V47.2451H107.615V48.4263H108.768V48.9741ZM109.692 48.626C109.692 47.9679 109.802 47.4543 110.023 47.0853C110.247 46.7125 110.631 46.5261 111.175 46.5261C111.719 46.5261 112.102 46.7125 112.322 47.0853C112.547 47.4543 112.659 47.9679 112.659 48.626C112.659 49.2917 112.547 49.8129 112.322 50.1895C112.102 50.5623 111.719 50.7487 111.175 50.7487C110.631 50.7487 110.247 50.5623 110.023 50.1895C109.802 49.8129 109.692 49.2917 109.692 48.626ZM112.02 48.626C112.02 48.3178 111.999 48.0573 111.957 47.8442C111.919 47.6312 111.839 47.4581 111.717 47.325C111.596 47.188 111.415 47.1195 111.175 47.1195C110.936 47.1195 110.755 47.188 110.633 47.325C110.511 47.4581 110.43 47.6312 110.388 47.8442C110.35 48.0573 110.331 48.3178 110.331 48.626C110.331 48.9455 110.35 49.2137 110.388 49.4306C110.426 49.6474 110.506 49.8224 110.627 49.9555C110.753 50.0887 110.936 50.1552 111.175 50.1552C111.415 50.1552 111.596 50.0887 111.717 49.9555C111.843 49.8224 111.925 49.6474 111.963 49.4306C112.001 49.2137 112.02 48.9455 112.02 48.626ZM114.146 49.9784L113.456 51.5533H113.033L113.438 49.9784H114.146ZM116.866 47.5646C116.824 47.3896 116.748 47.2584 116.637 47.1709C116.527 47.0834 116.373 47.0397 116.175 47.0397C115.875 47.0397 115.65 47.1557 115.502 47.3877C115.353 47.616 115.276 47.9964 115.268 48.529C115.367 48.3616 115.511 48.2323 115.702 48.141C115.892 48.0497 116.097 48.004 116.318 48.004C116.569 48.004 116.79 48.0592 116.98 48.1695C117.174 48.276 117.324 48.432 117.431 48.6374C117.541 48.8428 117.596 49.0882 117.596 49.3735C117.596 49.6398 117.543 49.8775 117.436 50.0868C117.334 50.296 117.179 50.4615 116.974 50.5832C116.769 50.7011 116.521 50.7601 116.232 50.7601C115.84 50.7601 115.532 50.6745 115.308 50.5033C115.087 50.3283 114.931 50.083 114.84 49.7672C114.752 49.4515 114.709 49.0578 114.709 48.586C114.709 47.1937 115.199 46.4976 116.181 46.4976C116.561 46.4976 116.86 46.6003 117.077 46.8057C117.297 47.0111 117.427 47.2641 117.465 47.5646H116.866ZM116.175 48.5518C115.943 48.5518 115.745 48.6222 115.582 48.7629C115.422 48.8999 115.342 49.0996 115.342 49.3621C115.342 49.6246 115.416 49.8338 115.565 49.9898C115.717 50.1419 115.928 50.218 116.198 50.218C116.438 50.218 116.626 50.1438 116.763 49.9955C116.904 49.8471 116.974 49.6493 116.974 49.402C116.974 49.1433 116.906 48.9379 116.769 48.7858C116.635 48.6298 116.438 48.5518 116.175 48.5518ZM120.972 47.1595H119.06V48.295C119.14 48.1885 119.258 48.0991 119.414 48.0268C119.574 47.9546 119.743 47.9184 119.922 47.9184C120.241 47.9184 120.5 47.9869 120.698 48.1238C120.9 48.2608 121.042 48.4339 121.126 48.6431C121.213 48.8523 121.257 49.073 121.257 49.305C121.257 49.5865 121.202 49.8376 121.092 50.0582C120.985 50.2751 120.823 50.4463 120.607 50.5718C120.394 50.6973 120.131 50.7601 119.819 50.7601C119.405 50.7601 119.072 50.6574 118.821 50.452C118.57 50.2465 118.419 49.9745 118.37 49.636H119.003C119.045 49.8148 119.138 49.9574 119.283 50.0639C119.427 50.1667 119.608 50.218 119.825 50.218C120.095 50.218 120.297 50.1362 120.43 49.9726C120.567 49.8091 120.635 49.5922 120.635 49.3221C120.635 49.0482 120.567 48.839 120.43 48.6945C120.293 48.5461 120.091 48.4719 119.825 48.4719C119.638 48.4719 119.481 48.5195 119.351 48.6146C119.226 48.7059 119.134 48.8314 119.077 48.9912H118.461V46.5889H120.972V47.1595Z" fill="#23B66F"/>
<g clip-path="url(#clip1)">
<path d="M136.379 46.2115C136.359 46.1987 136.212 46.0944 136.065 45.7789C135.794 45.1995 135.738 44.3833 135.738 43.8007C135.738 43.7981 135.737 43.7956 135.737 43.7931C135.734 43.023 135.279 42.3592 134.626 42.0614V41.6059C134.626 41.1925 134.295 40.8562 133.887 40.8562H133.825C133.418 40.8562 133.086 41.1925 133.086 41.6059V42.0614C132.431 42.3601 131.975 43.0274 131.975 43.8007C131.975 44.3833 131.918 45.1995 131.647 45.7789C131.5 46.0943 131.353 46.1986 131.333 46.2115C131.251 46.2501 131.21 46.3392 131.229 46.4295C131.248 46.5207 131.333 46.5836 131.425 46.5836H132.853C132.861 47.1374 133.308 47.5856 133.856 47.5856C134.405 47.5856 134.851 47.1374 134.859 46.5836H136.288C136.38 46.5836 136.464 46.5207 136.483 46.4295C136.502 46.3392 136.461 46.2501 136.379 46.2115V46.2115ZM133.475 41.6059C133.475 41.4103 133.632 41.2512 133.825 41.2512H133.887C134.08 41.2512 134.237 41.4103 134.237 41.6059V41.9334C134.114 41.9076 133.986 41.8941 133.856 41.8941C133.726 41.8941 133.598 41.9076 133.475 41.9333V41.6059H133.475ZM133.856 47.1906C133.523 47.1906 133.251 46.9197 133.243 46.5836H134.47C134.462 46.9197 134.19 47.1906 133.856 47.1906V47.1906ZM134.641 46.1886C134.641 46.1886 131.869 46.1886 131.869 46.1886C131.902 46.1355 131.937 46.0753 131.971 46.0073C132.232 45.4862 132.364 44.7438 132.364 43.8007C132.364 42.9671 133.034 42.289 133.856 42.289C134.679 42.289 135.348 42.9671 135.348 43.8013C135.348 43.8037 135.348 43.8062 135.348 43.8086C135.349 44.748 135.481 45.4877 135.741 46.0073C135.775 46.0753 135.81 46.1355 135.844 46.1886H134.641Z" fill="white"/>
</g>
<defs>
<linearGradient id="paint0_linear" x1="86.4311" y1="0" x2="86.4311" y2="32.0531" gradientUnits="userSpaceOnUse">
<stop stop-color="#26284A"/>
<stop offset="1" stop-color="#1B1D3D" stop-opacity="0.32"/>
</linearGradient>
<linearGradient id="paint1_linear" x1="71.5693" y1="27.9468" x2="71.5693" y2="60" gradientUnits="userSpaceOnUse">
<stop stop-color="#26284A"/>
<stop offset="0.84375" stop-color="#1C1E3A"/>
</linearGradient>
<clipPath id="clip0">
<rect width="6.88523" height="6.90962" fill="white" transform="translate(145.298 12.6677)"/>
</clipPath>
<clipPath id="clip1">
<rect width="6.65129" height="6.72935" fill="white" transform="translate(130.53 40.8563)"/>
</clipPath>
</defs>
</svg>
