<svg width="143" height="80" viewBox="0 0 143 80" fill="none" xmlns="http://www.w3.org/2000/svg">
<rect x="0.503418" width="142" height="80" rx="7.30346" fill="url(#paint0_linear)"/>
<rect opacity="0.2" x="6.56396" y="6.09518" width="129.883" height="15.2381" rx="7.61905" fill="#637793"/>
<path opacity="0.8" d="M13.4729 14.9392C13.2466 14.9392 13.0433 14.8998 12.8629 14.8211C12.6858 14.7391 12.5465 14.6276 12.4448 14.4866C12.3431 14.3423 12.2907 14.1767 12.2874 13.9898H12.7645C12.7809 14.1505 12.8465 14.2866 12.9613 14.3981C13.0794 14.5063 13.2499 14.5604 13.4729 14.5604C13.686 14.5604 13.8533 14.5079 13.9746 14.403C14.0992 14.2948 14.1616 14.157 14.1616 13.9898C14.1616 13.8586 14.1255 13.752 14.0533 13.67C13.9812 13.5881 13.891 13.5257 13.7828 13.4831C13.6746 13.4405 13.5286 13.3946 13.345 13.3454C13.1187 13.2864 12.9367 13.2273 12.799 13.1683C12.6645 13.1093 12.5481 13.0174 12.4497 12.8928C12.3546 12.7649 12.3071 12.5944 12.3071 12.3812C12.3071 12.1943 12.3546 12.0287 12.4497 11.8844C12.5448 11.7401 12.6776 11.6286 12.8482 11.5499C13.022 11.4712 13.2204 11.4319 13.4434 11.4319C13.7647 11.4319 14.0271 11.5122 14.2304 11.6729C14.437 11.8336 14.5534 12.0468 14.5797 12.3124H14.0878C14.0714 12.1812 14.0025 12.0664 13.8812 11.968C13.7598 11.8664 13.5991 11.8156 13.3991 11.8156C13.2122 11.8156 13.0597 11.8647 12.9416 11.9631C12.8236 12.0582 12.7645 12.1927 12.7645 12.3665C12.7645 12.4911 12.799 12.5928 12.8678 12.6715C12.94 12.7502 13.0269 12.8108 13.1285 12.8535C13.2335 12.8928 13.3794 12.9387 13.5663 12.9912C13.7926 13.0535 13.9746 13.1158 14.1124 13.1781C14.2501 13.2372 14.3682 13.3306 14.4665 13.4585C14.5649 13.5831 14.6141 13.7537 14.6141 13.9701C14.6141 14.1374 14.5698 14.2948 14.4813 14.4423C14.3927 14.5899 14.2616 14.7096 14.0878 14.8014C13.914 14.8932 13.709 14.9392 13.4729 14.9392ZM17.7324 13.4536C17.7324 13.5389 17.7274 13.629 17.7176 13.7242H15.5631C15.5795 13.9898 15.6696 14.198 15.8336 14.3489C16.0009 14.4964 16.2025 14.5702 16.4387 14.5702C16.6321 14.5702 16.7928 14.526 16.9207 14.4374C17.0519 14.3456 17.1437 14.2243 17.1962 14.0734H17.6783C17.6061 14.3325 17.4618 14.544 17.2454 14.708C17.0289 14.8687 16.76 14.949 16.4387 14.949C16.1829 14.949 15.9533 14.8916 15.75 14.7768C15.5499 14.6621 15.3925 14.4997 15.2778 14.2898C15.163 14.0767 15.1056 13.8307 15.1056 13.552C15.1056 13.2732 15.1613 13.0289 15.2728 12.819C15.3843 12.6092 15.5401 12.4485 15.7401 12.337C15.9435 12.2222 16.1763 12.1648 16.4387 12.1648C16.6944 12.1648 16.9207 12.2206 17.1175 12.3321C17.3142 12.4436 17.4651 12.5977 17.57 12.7944C17.6783 12.9879 17.7324 13.2076 17.7324 13.4536ZM17.27 13.3601C17.27 13.1896 17.2323 13.0437 17.1568 12.9223C17.0814 12.7977 16.9781 12.7043 16.8469 12.642C16.719 12.5764 16.5764 12.5436 16.419 12.5436C16.1927 12.5436 15.9992 12.6157 15.8385 12.76C15.6811 12.9043 15.5909 13.1043 15.568 13.3601H17.27ZM18.156 13.5471C18.156 13.2716 18.2117 13.0306 18.3232 12.824C18.4347 12.6141 18.5872 12.4518 18.7807 12.337C18.9775 12.2222 19.1955 12.1648 19.4349 12.1648C19.671 12.1648 19.876 12.2156 20.0498 12.3173C20.2236 12.419 20.3532 12.5469 20.4384 12.701V12.2091H20.891V14.9047H20.4384V14.403C20.3499 14.5604 20.2171 14.6916 20.04 14.7965C19.8662 14.8982 19.6628 14.949 19.43 14.949C19.1906 14.949 18.9742 14.89 18.7807 14.7719C18.5872 14.6539 18.4347 14.4882 18.3232 14.2751C18.2117 14.0619 18.156 13.8193 18.156 13.5471ZM20.4384 13.552C20.4384 13.3487 20.3974 13.1716 20.3154 13.0207C20.2335 12.8699 20.122 12.7551 19.9809 12.6764C19.8432 12.5944 19.6907 12.5534 19.5235 12.5534C19.3562 12.5534 19.2037 12.5928 19.066 12.6715C18.9283 12.7502 18.8184 12.865 18.7364 13.0158C18.6544 13.1667 18.6135 13.3437 18.6135 13.5471C18.6135 13.7537 18.6544 13.934 18.7364 14.0882C18.8184 14.239 18.9283 14.3554 19.066 14.4374C19.2037 14.5161 19.3562 14.5555 19.5235 14.5555C19.6907 14.5555 19.8432 14.5161 19.9809 14.4374C20.122 14.3554 20.2335 14.239 20.3154 14.0882C20.3974 13.934 20.4384 13.7553 20.4384 13.552ZM22.0951 12.6469C22.1738 12.4927 22.2853 12.373 22.4296 12.2878C22.5771 12.2025 22.7559 12.1599 22.9657 12.1599V12.6223H22.8477C22.3459 12.6223 22.0951 12.8945 22.0951 13.4388V14.9047H21.6474V12.2091H22.0951V12.6469ZM23.3152 13.552C23.3152 13.2732 23.371 13.0306 23.4825 12.824C23.594 12.6141 23.7481 12.4518 23.9449 12.337C24.1449 12.2222 24.3728 12.1648 24.6286 12.1648C24.9598 12.1648 25.232 12.2452 25.4452 12.4058C25.6616 12.5665 25.8043 12.7895 25.8731 13.0748H25.3911C25.3452 12.9109 25.255 12.7813 25.1205 12.6862C24.9893 12.5911 24.8254 12.5436 24.6286 12.5436C24.3728 12.5436 24.1662 12.6321 24.0088 12.8092C23.8514 12.983 23.7727 13.2306 23.7727 13.552C23.7727 13.8766 23.8514 14.1275 24.0088 14.3046C24.1662 14.4817 24.3728 14.5702 24.6286 14.5702C24.8254 14.5702 24.9893 14.5243 25.1205 14.4325C25.2517 14.3407 25.3419 14.2095 25.3911 14.039H25.8731C25.801 14.3144 25.6567 14.5358 25.4403 14.703C25.2238 14.867 24.9533 14.949 24.6286 14.949C24.3728 14.949 24.1449 14.8916 23.9449 14.7768C23.7481 14.6621 23.594 14.4997 23.4825 14.2898C23.371 14.08 23.3152 13.834 23.3152 13.552ZM27.8084 12.1599C28.0117 12.1599 28.1954 12.2042 28.3593 12.2927C28.5233 12.378 28.6512 12.5075 28.743 12.6813C28.8381 12.8551 28.8857 13.0666 28.8857 13.3159V14.9047H28.443V13.3798C28.443 13.1109 28.3757 12.9059 28.2413 12.7649C28.1068 12.6206 27.9232 12.5485 27.6903 12.5485C27.4542 12.5485 27.2657 12.6223 27.1246 12.7699C26.9869 12.9174 26.918 13.1322 26.918 13.4143V14.9047H26.4704V11.2646H26.918V12.5928C27.0066 12.455 27.1279 12.3485 27.2821 12.273C27.4395 12.1976 27.6149 12.1599 27.8084 12.1599Z" fill="white"/>
<g opacity="0.8">
<path d="M128.973 13.5739C128.973 14.7623 128.016 15.7218 126.84 15.7218C125.665 15.7218 124.707 14.7623 124.707 13.5739C124.707 12.3855 125.665 11.426 126.84 11.426C128.016 11.426 128.973 12.3855 128.973 13.5739Z" stroke="white" stroke-width="0.756778"/>
<path d="M128.515 15.2581L129.631 16.3809" stroke="white" stroke-width="0.756778" stroke-linecap="round" stroke-linejoin="round"/>
</g>
<line opacity="0.12" x1="6.56152" y1="51.2393" x2="136.444" y2="51.2393" stroke="white" stroke-width="0.378389"/>
<path d="M10.2801 59.8159C10.1643 59.5929 10.0035 59.4256 9.79762 59.3141C9.59177 59.1983 9.35377 59.1404 9.0836 59.1404C8.7877 59.1404 8.52396 59.2069 8.29238 59.3398C8.06081 59.4728 7.87855 59.6615 7.74561 59.9059C7.61696 60.1504 7.55263 60.4334 7.55263 60.755C7.55263 61.0766 7.61696 61.3618 7.74561 61.6106C7.87855 61.855 8.06081 62.0437 8.29238 62.1766C8.52396 62.3096 8.7877 62.376 9.0836 62.376C9.48242 62.376 9.80619 62.2645 10.0549 62.0415C10.3036 61.8185 10.4559 61.5162 10.5116 61.1345H8.83272V60.5492H11.2964V61.1217C11.2492 61.469 11.1249 61.7885 10.9233 62.0801C10.7261 62.3717 10.4666 62.6055 10.145 62.7813C9.82763 62.9528 9.47384 63.0386 9.0836 63.0386C8.66333 63.0386 8.27952 62.9421 7.93216 62.7491C7.5848 62.5519 7.30819 62.2795 7.10235 61.9322C6.9008 61.5848 6.80002 61.1924 6.80002 60.755C6.80002 60.3176 6.9008 59.9252 7.10235 59.5779C7.30819 59.2305 7.5848 58.9603 7.93216 58.7673C8.28381 58.5701 8.66762 58.4714 9.0836 58.4714C9.55961 58.4714 9.98202 58.5894 10.3508 58.8252C10.7239 59.0568 10.9941 59.387 11.1613 59.8159H10.2801ZM12.753 59.1211V60.4334H14.2968V61.0316H12.753V62.4018H14.4898V63H12.0197V58.5229H14.4898V59.1211H12.753Z" fill="white"/>
<path opacity="0.7" d="M9.9954 68.3333C9.88567 68.1025 9.72675 67.9247 9.51863 67.7998C9.31052 67.6711 9.06835 67.6068 8.79213 67.6068C8.5159 67.6068 8.26617 67.6711 8.04292 67.7998C7.82345 67.9247 7.64939 68.1063 7.52074 68.3447C7.39587 68.5793 7.33344 68.8517 7.33344 69.162C7.33344 69.4723 7.39587 69.7447 7.52074 69.9793C7.64939 70.2139 7.82345 70.3955 8.04292 70.5242C8.26617 70.6491 8.5159 70.7115 8.79213 70.7115C9.17808 70.7115 9.49593 70.5961 9.74567 70.3653C9.9954 70.1344 10.1411 69.8223 10.1827 69.4288H8.60482V69.0087H10.7333V69.406C10.703 69.7315 10.6008 70.0304 10.4268 70.3028C10.2527 70.5715 10.0238 70.7853 9.73999 70.9442C9.4562 71.0993 9.14024 71.1769 8.79213 71.1769C8.42509 71.1769 8.09021 71.0918 7.7875 70.9215C7.48479 70.7474 7.24452 70.5072 7.06667 70.2007C6.89261 69.8942 6.80558 69.5479 6.80558 69.162C6.80558 68.776 6.89261 68.4298 7.06667 68.1233C7.24452 67.813 7.48479 67.5728 7.7875 67.4025C8.09021 67.2284 8.42509 67.1414 8.79213 67.1414C9.21214 67.1414 9.58296 67.2454 9.90459 67.4536C10.23 67.6617 10.4665 67.9549 10.6141 68.3333H9.9954ZM14.2541 69.4685C14.2541 69.5669 14.2484 69.6709 14.2371 69.7807H11.7511C11.77 70.0871 11.874 70.3274 12.0632 70.5015C12.2562 70.6718 12.4889 70.7569 12.7614 70.7569C12.9846 70.7569 13.17 70.7058 13.3176 70.6036C13.4689 70.4977 13.5749 70.3577 13.6354 70.1836H14.1917C14.1084 70.4826 13.9419 70.7266 13.6922 70.9158C13.4425 71.1012 13.1322 71.1939 12.7614 71.1939C12.4662 71.1939 12.2013 71.1277 11.9667 70.9953C11.7359 70.8628 11.5543 70.6755 11.4219 70.4334C11.2894 70.1874 11.2232 69.9036 11.2232 69.582C11.2232 69.2604 11.2875 68.9785 11.4162 68.7363C11.5448 68.4941 11.7246 68.3087 11.9554 68.1801C12.19 68.0476 12.4586 67.9814 12.7614 67.9814C13.0565 67.9814 13.3176 68.0457 13.5446 68.1744C13.7717 68.303 13.9457 68.4809 14.0668 68.7079C14.1917 68.9312 14.2541 69.1847 14.2541 69.4685ZM13.7206 69.3606C13.7206 69.1639 13.6771 68.9955 13.59 68.8555C13.503 68.7117 13.3838 68.6039 13.2324 68.532C13.0849 68.4563 12.9203 68.4185 12.7386 68.4185C12.4776 68.4185 12.2543 68.5017 12.0689 68.6682C11.8873 68.8347 11.7832 69.0655 11.7567 69.3606H13.7206ZM16.4513 67.9757C16.8297 67.9757 17.1362 68.0911 17.3708 68.322C17.6054 68.549 17.7227 68.8782 17.7227 69.3096V71.1429H17.2119V69.3833C17.2119 69.0731 17.1343 68.8366 16.9792 68.6739C16.824 68.5074 16.6121 68.4241 16.3435 68.4241C16.071 68.4241 15.8535 68.5093 15.6907 68.6795C15.5318 68.8498 15.4524 69.0977 15.4524 69.4231V71.1429H14.9359V68.0325H15.4524V68.4752C15.5545 68.3163 15.6926 68.1933 15.8667 68.1063C16.0445 68.0193 16.2394 67.9757 16.4513 67.9757ZM21.4043 69.4685C21.4043 69.5669 21.3986 69.6709 21.3873 69.7807H18.9013C18.9202 70.0871 19.0243 70.3274 19.2134 70.5015C19.4064 70.6718 19.6391 70.7569 19.9116 70.7569C20.1348 70.7569 20.3202 70.7058 20.4678 70.6036C20.6192 70.4977 20.7251 70.3577 20.7857 70.1836H21.3419C21.2586 70.4826 21.0921 70.7266 20.8424 70.9158C20.5927 71.1012 20.2824 71.1939 19.9116 71.1939C19.6164 71.1939 19.3516 71.1277 19.117 70.9953C18.8861 70.8628 18.7045 70.6755 18.5721 70.4334C18.4396 70.1874 18.3734 69.9036 18.3734 69.582C18.3734 69.2604 18.4377 68.9785 18.5664 68.7363C18.6951 68.4941 18.8748 68.3087 19.1056 68.1801C19.3402 68.0476 19.6089 67.9814 19.9116 67.9814C20.2067 67.9814 20.4678 68.0457 20.6948 68.1744C20.9219 68.303 21.0959 68.4809 21.217 68.7079C21.3419 68.9312 21.4043 69.1847 21.4043 69.4685ZM20.8708 69.3606C20.8708 69.1639 20.8273 68.9955 20.7402 68.8555C20.6532 68.7117 20.534 68.6039 20.3827 68.532C20.2351 68.4563 20.0705 68.4185 19.8889 68.4185C19.6278 68.4185 19.4045 68.5017 19.2191 68.6682C19.0375 68.8347 18.9334 69.0655 18.9069 69.3606H20.8708ZM22.6026 68.5376C22.6934 68.3598 22.822 68.2217 22.9885 68.1233C23.1588 68.0249 23.365 67.9757 23.6072 67.9757V68.5093H23.471C22.892 68.5093 22.6026 68.8233 22.6026 69.4515V71.1429H22.0861V68.0325H22.6026V68.5376ZM24.0105 69.5763C24.0105 69.2585 24.0748 68.9804 24.2034 68.742C24.3321 68.4998 24.508 68.3125 24.7313 68.1801C24.9583 68.0476 25.2099 67.9814 25.4862 67.9814C25.7586 67.9814 25.9951 68.0401 26.1957 68.1574C26.3962 68.2747 26.5457 68.4222 26.644 68.6001V68.0325H27.1662V71.1429H26.644V70.5639C26.5419 70.7455 26.3886 70.8969 26.1843 71.018C25.9838 71.1353 25.7492 71.1939 25.4805 71.1939C25.2043 71.1939 24.9545 71.1258 24.7313 70.9896C24.508 70.8534 24.3321 70.6623 24.2034 70.4163C24.0748 70.1704 24.0105 69.8904 24.0105 69.5763ZM26.644 69.582C26.644 69.3474 26.5967 69.1431 26.5021 68.969C26.4075 68.7949 26.2789 68.6625 26.1162 68.5717C25.9573 68.4771 25.7813 68.4298 25.5883 68.4298C25.3954 68.4298 25.2194 68.4752 25.0605 68.566C24.9016 68.6568 24.7748 68.7893 24.6802 68.9633C24.5856 69.1374 24.5383 69.3417 24.5383 69.5763C24.5383 69.8147 24.5856 70.0228 24.6802 70.2007C24.7748 70.3747 24.9016 70.5091 25.0605 70.6036C25.2194 70.6945 25.3954 70.7399 25.5883 70.7399C25.7813 70.7399 25.9573 70.6945 26.1162 70.6036C26.2789 70.5091 26.4075 70.3747 26.5021 70.2007C26.5967 70.0228 26.644 69.8166 26.644 69.582ZM28.5556 66.9427V71.1429H28.0391V66.9427H28.5556ZM31.4655 67.6068V68.9293H32.9072V69.355H31.4655V70.7172H33.0775V71.1429H30.949V67.1811H33.0775V67.6068H31.4655ZM34.3755 66.9427V71.1429H33.859V66.9427H34.3755ZM38.0937 69.4685C38.0937 69.5669 38.088 69.6709 38.0767 69.7807H35.5907C35.6096 70.0871 35.7136 70.3274 35.9028 70.5015C36.0958 70.6718 36.3285 70.7569 36.601 70.7569C36.8242 70.7569 37.0096 70.7058 37.1572 70.6036C37.3085 70.4977 37.4145 70.3577 37.475 70.1836H38.0313C37.948 70.4826 37.7815 70.7266 37.5318 70.9158C37.2821 71.1012 36.9718 71.1939 36.601 71.1939C36.3058 71.1939 36.0409 71.1277 35.8063 70.9953C35.5755 70.8628 35.3939 70.6755 35.2615 70.4334C35.129 70.1874 35.0628 69.9036 35.0628 69.582C35.0628 69.2604 35.1271 68.9785 35.2558 68.7363C35.3844 68.4941 35.5642 68.3087 35.795 68.1801C36.0296 68.0476 36.2983 67.9814 36.601 67.9814C36.8961 67.9814 37.1572 68.0457 37.3842 68.1744C37.6113 68.303 37.7853 68.4809 37.9064 68.7079C38.0313 68.9312 38.0937 69.1847 38.0937 69.4685ZM37.5602 69.3606C37.5602 69.1639 37.5167 68.9955 37.4296 68.8555C37.3426 68.7117 37.2234 68.6039 37.0721 68.532C36.9245 68.4563 36.7599 68.4185 36.5783 68.4185C36.3172 68.4185 36.0939 68.5017 35.9085 68.6682C35.7269 68.8347 35.6228 69.0655 35.5963 69.3606H37.5602ZM38.5825 69.582C38.5825 69.2604 38.6468 68.9804 38.7755 68.742C38.9041 68.4998 39.082 68.3125 39.309 68.1801C39.5398 68.0476 39.8028 67.9814 40.0979 67.9814C40.4801 67.9814 40.7942 68.0741 41.0401 68.2595C41.2899 68.4449 41.4545 68.7022 41.5339 69.0314H40.9777C40.9247 68.8422 40.8207 68.6928 40.6655 68.5831C40.5142 68.4733 40.325 68.4185 40.0979 68.4185C39.8028 68.4185 39.5644 68.5206 39.3828 68.7249C39.2012 68.9255 39.1103 69.2112 39.1103 69.582C39.1103 69.9566 39.2012 70.2461 39.3828 70.4504C39.5644 70.6547 39.8028 70.7569 40.0979 70.7569C40.325 70.7569 40.5142 70.7039 40.6655 70.598C40.8169 70.492 40.9209 70.3407 40.9777 70.1439H41.5339C41.4507 70.4618 41.2842 70.7172 41.0345 70.9101C40.7847 71.0993 40.4725 71.1939 40.0979 71.1939C39.8028 71.1939 39.5398 71.1277 39.309 70.9953C39.082 70.8628 38.9041 70.6755 38.7755 70.4334C38.6468 70.1912 38.5825 69.9074 38.5825 69.582ZM42.8531 68.4582V70.2915C42.8531 70.4428 42.8853 70.5507 42.9496 70.615C43.0139 70.6755 43.1256 70.7058 43.2845 70.7058H43.6648V71.1429H43.1993C42.9118 71.1429 42.6961 71.0766 42.5523 70.9442C42.4085 70.8118 42.3366 70.5942 42.3366 70.2915V68.4582H41.9336V68.0325H42.3366V67.2492H42.8531V68.0325H43.6648V68.4582H42.8531ZM44.8071 68.5376C44.8979 68.3598 45.0265 68.2217 45.193 68.1233C45.3633 68.0249 45.5695 67.9757 45.8117 67.9757V68.5093H45.6755C45.0965 68.5093 44.8071 68.8233 44.8071 69.4515V71.1429H44.2906V68.0325H44.8071V68.5376ZM46.6747 67.5273C46.5763 67.5273 46.4931 67.4933 46.4249 67.4252C46.3568 67.3571 46.3228 67.2738 46.3228 67.1754C46.3228 67.0771 46.3568 66.9938 46.4249 66.9257C46.4931 66.8576 46.5763 66.8235 46.6747 66.8235C46.7693 66.8235 46.8487 66.8576 46.9131 66.9257C46.9812 66.9938 47.0152 67.0771 47.0152 67.1754C47.0152 67.2738 46.9812 67.3571 46.9131 67.4252C46.8487 67.4933 46.7693 67.5273 46.6747 67.5273ZM46.9244 68.0325V71.1429H46.4079V68.0325H46.9244ZM47.6117 69.582C47.6117 69.2604 47.6761 68.9804 47.8047 68.742C47.9334 68.4998 48.1112 68.3125 48.3382 68.1801C48.569 68.0476 48.832 67.9814 49.1272 67.9814C49.5093 67.9814 49.8234 68.0741 50.0694 68.2595C50.3191 68.4449 50.4837 68.7022 50.5632 69.0314H50.0069C49.954 68.8422 49.8499 68.6928 49.6948 68.5831C49.5434 68.4733 49.3542 68.4185 49.1272 68.4185C48.832 68.4185 48.5936 68.5206 48.412 68.7249C48.2304 68.9255 48.1396 69.2112 48.1396 69.582C48.1396 69.9566 48.2304 70.2461 48.412 70.4504C48.5936 70.6547 48.832 70.7569 49.1272 70.7569C49.3542 70.7569 49.5434 70.7039 49.6948 70.598C49.8461 70.492 49.9502 70.3407 50.0069 70.1439H50.5632C50.4799 70.4618 50.3134 70.7172 50.0637 70.9101C49.8139 71.0993 49.5018 71.1939 49.1272 71.1939C48.832 71.1939 48.569 71.1277 48.3382 70.9953C48.1112 70.8628 47.9334 70.6755 47.8047 70.4334C47.6761 70.1912 47.6117 69.9074 47.6117 69.582Z" fill="white"/>
<path d="M127.293 58.8215C127.251 58.6474 127.175 58.5169 127.066 58.4298C126.956 58.3428 126.803 58.2993 126.606 58.2993C126.307 58.2993 126.084 58.4147 125.936 58.6455C125.789 58.8726 125.711 59.2509 125.703 59.7807C125.802 59.6142 125.946 59.4855 126.135 59.3947C126.324 59.3039 126.528 59.2585 126.748 59.2585C126.998 59.2585 127.217 59.3134 127.406 59.4231C127.599 59.5291 127.749 59.6842 127.855 59.8885C127.964 60.0929 128.019 60.3369 128.019 60.6207C128.019 60.8856 127.966 61.1221 127.86 61.3302C127.758 61.5383 127.605 61.7029 127.401 61.824C127.196 61.9413 126.95 61.9999 126.663 61.9999C126.273 61.9999 125.966 61.9148 125.743 61.7445C125.524 61.5705 125.369 61.3264 125.278 61.0123C125.191 60.6983 125.147 60.3066 125.147 59.8374C125.147 58.4525 125.635 57.7601 126.612 57.7601C126.99 57.7601 127.287 57.8623 127.503 58.0666C127.722 58.2709 127.851 58.5225 127.889 58.8215H127.293ZM126.606 59.8034C126.375 59.8034 126.178 59.8734 126.016 60.0134C125.857 60.1496 125.777 60.3483 125.777 60.6094C125.777 60.8704 125.851 61.0786 125.999 61.2337C126.15 61.3851 126.36 61.4607 126.629 61.4607C126.867 61.4607 127.054 61.3869 127.191 61.2394C127.331 61.0918 127.401 60.895 127.401 60.6491C127.401 60.3918 127.332 60.1875 127.196 60.0361C127.064 59.881 126.867 59.8034 126.606 59.8034ZM129.504 61.2223L128.817 62.7889H128.397L128.8 61.2223H129.504ZM132.606 58.3617L131.029 61.9999H130.376L131.971 58.4298H129.871V57.8793H132.606V58.3617ZM135.828 58.4185H133.927V59.548C134.006 59.442 134.123 59.3531 134.278 59.2812C134.437 59.2093 134.606 59.1734 134.784 59.1734C135.101 59.1734 135.359 59.2415 135.555 59.3777C135.756 59.5139 135.898 59.6861 135.981 59.8942C136.068 60.1023 136.112 60.3218 136.112 60.5526C136.112 60.8326 136.057 61.0823 135.947 61.3018C135.841 61.5175 135.68 61.6878 135.465 61.8126C135.253 61.9375 134.992 61.9999 134.681 61.9999C134.269 61.9999 133.938 61.8978 133.688 61.6934C133.438 61.4891 133.289 61.2186 133.24 60.8818H133.87C133.911 61.0596 134.004 61.2015 134.148 61.3075C134.292 61.4097 134.471 61.4607 134.687 61.4607C134.956 61.4607 135.156 61.3794 135.289 61.2167C135.425 61.054 135.493 60.8383 135.493 60.5696C135.493 60.2972 135.425 60.0891 135.289 59.9453C135.152 59.7977 134.952 59.7239 134.687 59.7239C134.502 59.7239 134.345 59.7712 134.216 59.8658C134.091 59.9566 134 60.0815 133.944 60.2404H133.331V57.8509H135.828V58.4185Z" fill="white"/>
<path d="M123.688 69.3663H122.542V70.5412H121.94V69.3663H120.793V68.8214H121.94V67.6465H122.542V68.8214H123.688V69.3663ZM124.607 69.02C124.607 68.3654 124.717 67.8546 124.936 67.4876C125.159 67.1167 125.541 66.9313 126.083 66.9313C126.624 66.9313 127.004 67.1167 127.223 67.4876C127.447 67.8546 127.558 68.3654 127.558 69.02C127.558 69.6822 127.447 70.2006 127.223 70.5752C127.004 70.946 126.624 71.1314 126.083 71.1314C125.541 71.1314 125.159 70.946 124.936 70.5752C124.717 70.2006 124.607 69.6822 124.607 69.02ZM126.923 69.02C126.923 68.7135 126.902 68.4543 126.86 68.2424C126.822 68.0305 126.743 67.8584 126.622 67.7259C126.501 67.5897 126.321 67.5216 126.083 67.5216C125.844 67.5216 125.664 67.5897 125.543 67.7259C125.422 67.8584 125.341 68.0305 125.299 68.2424C125.261 68.4543 125.242 68.7135 125.242 69.02C125.242 69.3379 125.261 69.6046 125.299 69.8203C125.337 70.036 125.417 70.2101 125.538 70.3425C125.663 70.4749 125.844 70.5412 126.083 70.5412C126.321 70.5412 126.501 70.4749 126.622 70.3425C126.747 70.2101 126.828 70.036 126.866 69.8203C126.904 69.6046 126.923 69.3379 126.923 69.02ZM129.038 70.3652L128.351 71.9317H127.931L128.334 70.3652H129.038ZM131.743 67.9643C131.701 67.7903 131.625 67.6597 131.516 67.5727C131.406 67.4857 131.253 67.4421 131.056 67.4421C130.757 67.4421 130.534 67.5576 130.386 67.7884C130.239 68.0154 130.161 68.3938 130.153 68.9235C130.252 68.757 130.396 68.6284 130.585 68.5376C130.774 68.4468 130.978 68.4014 131.198 68.4014C131.448 68.4014 131.667 68.4562 131.856 68.566C132.049 68.6719 132.199 68.8271 132.305 69.0314C132.414 69.2357 132.469 69.4798 132.469 69.7636C132.469 70.0284 132.416 70.2649 132.31 70.473C132.208 70.6812 132.055 70.8458 131.85 70.9668C131.646 71.0841 131.4 71.1428 131.113 71.1428C130.723 71.1428 130.416 71.0577 130.193 70.8874C129.974 70.7133 129.819 70.4693 129.728 70.1552C129.641 69.8411 129.597 69.4495 129.597 68.9803C129.597 67.5954 130.085 66.9029 131.062 66.9029C131.44 66.9029 131.737 67.0051 131.953 67.2094C132.172 67.4138 132.301 67.6654 132.339 67.9643H131.743ZM131.056 68.9462C130.825 68.9462 130.628 69.0162 130.466 69.1562C130.307 69.2925 130.227 69.4911 130.227 69.7522C130.227 70.0133 130.301 70.2214 130.449 70.3766C130.6 70.5279 130.81 70.6036 131.079 70.6036C131.317 70.6036 131.504 70.5298 131.64 70.3822C131.78 70.2347 131.85 70.0379 131.85 69.7919C131.85 69.5346 131.782 69.3303 131.646 69.179C131.514 69.0238 131.317 68.9462 131.056 68.9462ZM135.827 67.5613H133.926V68.6908C134.005 68.5849 134.122 68.496 134.277 68.4241C134.436 68.3522 134.605 68.3162 134.783 68.3162C135.1 68.3162 135.358 68.3843 135.555 68.5206C135.755 68.6568 135.897 68.8289 135.98 69.0371C136.067 69.2452 136.111 69.4646 136.111 69.6955C136.111 69.9755 136.056 70.2252 135.946 70.4447C135.84 70.6603 135.679 70.8306 135.464 70.9555C135.252 71.0804 134.991 71.1428 134.68 71.1428C134.268 71.1428 133.937 71.0406 133.687 70.8363C133.437 70.632 133.288 70.3614 133.239 70.0247H133.869C133.91 70.2025 134.003 70.3444 134.147 70.4503C134.291 70.5525 134.47 70.6036 134.686 70.6036C134.955 70.6036 135.155 70.5222 135.288 70.3595C135.424 70.1968 135.492 69.9811 135.492 69.7125C135.492 69.44 135.424 69.2319 135.288 69.0881C135.152 68.9406 134.951 68.8668 134.686 68.8668C134.501 68.8668 134.344 68.9141 134.215 69.0087C134.09 69.0995 133.999 69.2244 133.943 69.3833H133.33V66.9938H135.827V67.5613Z" fill="#23B66F"/>
<path d="M76.9941 68.8721L80.4021 61.8546L81.3488 63.8596L82.2955 63.4586L83.8101 66.2656L86.4608 61.4536L88.1648 61.0526L88.9221 59.0476L89.8688 61.0526L90.8155 59.6491L91.5728 61.0526H92.3301L93.2768 59.6491L94.2235 61.0526C95.1701 60.1169 97.3285 59.0877 98.3888 62.4561C98.8306 61.1194 99.9792 59.0476 101.039 61.4536L101.797 59.0476H103.69L104.258 61.0526L105.205 61.4536L105.962 65.4636L106.909 63.8596L108.423 66.2656L109.559 63.8596L110.317 65.8646" stroke="#23B66F" stroke-width="0.756778" stroke-linecap="round" stroke-linejoin="round"/>
<path opacity="0.3" d="M80.4012 62.2356L76.9932 69.2531V70.8572H110.316V66.2456L109.558 64.2406L108.422 66.6466L106.908 64.2406L105.961 65.8446L105.204 61.8346L104.257 61.4336L103.689 59.4286H101.796L101.038 61.8346C99.9782 59.4286 98.8296 61.5004 98.3878 62.8371C97.3276 59.4687 95.1692 60.4979 94.2225 61.4336L93.2758 60.0301L92.3292 61.4336H91.5718L90.8145 60.0301L89.8678 61.4336L88.9212 59.4286L88.1638 61.4336L86.4598 61.8346L83.8092 66.6466L82.2945 63.8396L81.3478 64.2406L80.4012 62.2356Z" fill="url(#paint1_linear)"/>
<path d="M76.9932 69.3333H110.316" stroke="#23B66F" stroke-width="0.378389" stroke-dasharray="1.51 1.89"/>
<path d="M124.868 46.325C124.868 46.5444 124.792 46.7273 124.641 46.8736C124.492 47.0174 124.264 47.0893 123.956 47.0893H123.449V48.1904H123.105V45.5531H123.956C124.254 45.5531 124.48 45.625 124.634 45.7687C124.79 45.9125 124.868 46.0979 124.868 46.325ZM123.956 46.8055C124.148 46.8055 124.289 46.7639 124.38 46.6807C124.471 46.5974 124.516 46.4789 124.516 46.325C124.516 45.9996 124.33 45.8369 123.956 45.8369H123.449V46.8055H123.956ZM126.685 48.1904L126.057 47.112H125.64V48.1904H125.296V45.5531H126.147C126.347 45.5531 126.515 45.5871 126.651 45.6552C126.789 45.7233 126.893 45.8154 126.961 45.9314C127.029 46.0475 127.063 46.1799 127.063 46.3288C127.063 46.5104 127.01 46.6706 126.904 46.8093C126.801 46.9481 126.644 47.0401 126.435 47.0855L127.097 48.1904H126.685ZM125.64 46.8358H126.147C126.334 46.8358 126.474 46.7904 126.567 46.6996C126.661 46.6062 126.707 46.4826 126.707 46.3288C126.707 46.1724 126.661 46.0513 126.567 45.9655C126.477 45.8797 126.337 45.8369 126.147 45.8369H125.64V46.8358ZM127.943 45.5531V48.1904H127.598V45.5531H127.943ZM128.401 46.8699C128.401 46.6125 128.459 46.3817 128.575 46.1774C128.691 45.9705 128.849 45.8091 129.048 45.6931C129.25 45.577 129.473 45.519 129.718 45.519C130.005 45.519 130.256 45.5884 130.471 45.7271C130.685 45.8659 130.841 46.0626 130.94 46.3174H130.527C130.454 46.1585 130.348 46.0361 130.209 45.9504C130.073 45.8646 129.909 45.8217 129.718 45.8217C129.533 45.8217 129.368 45.8646 129.222 45.9504C129.076 46.0361 128.961 46.1585 128.878 46.3174C128.794 46.4738 128.753 46.658 128.753 46.8699C128.753 47.0792 128.794 47.2634 128.878 47.4223C128.961 47.5787 129.076 47.6998 129.222 47.7856C129.368 47.8713 129.533 47.9142 129.718 47.9142C129.909 47.9142 130.073 47.8726 130.209 47.7893C130.348 47.7036 130.454 47.5812 130.527 47.4223H130.94C130.841 47.6746 130.685 47.8701 130.471 48.0088C130.256 48.145 130.005 48.2131 129.718 48.2131C129.473 48.2131 129.25 48.1564 129.048 48.0429C128.849 47.9268 128.691 47.7666 128.575 47.5623C128.459 47.358 128.401 47.1272 128.401 46.8699ZM131.797 45.8331V46.7147H132.758V46.9985H131.797V47.9066H132.871V48.1904H131.452V45.5493H132.871V45.8331H131.797Z" fill="white"/>
<path d="M8.17346 46.832C8.26932 46.8471 8.35635 46.8862 8.43455 46.9493C8.51527 47.0124 8.57834 47.0906 8.62374 47.1839C8.67167 47.2773 8.69564 47.3769 8.69564 47.4828C8.69564 47.6165 8.66158 47.7376 8.59347 47.8461C8.52536 47.952 8.42572 48.0366 8.29454 48.0996C8.16589 48.1602 8.01328 48.1904 7.83669 48.1904H6.85288V45.5531H7.79886C7.97796 45.5531 8.13058 45.5833 8.25671 45.6439C8.38284 45.7019 8.47743 45.7814 8.5405 45.8823C8.60356 45.9832 8.63509 46.0967 8.63509 46.2228C8.63509 46.3792 8.59221 46.5091 8.50644 46.6125C8.4232 46.7135 8.3122 46.7866 8.17346 46.832ZM7.19722 46.692H7.77615C7.9376 46.692 8.06247 46.6542 8.15076 46.5785C8.23905 46.5028 8.28319 46.3981 8.28319 46.2644C8.28319 46.1307 8.23905 46.026 8.15076 45.9504C8.06247 45.8747 7.93508 45.8369 7.76858 45.8369H7.19722V46.692ZM7.80642 47.9066C7.97796 47.9066 8.11166 47.8663 8.20752 47.7856C8.30337 47.7048 8.3513 47.5926 8.3513 47.4488C8.3513 47.3025 8.30085 47.1877 8.19995 47.1045C8.09904 47.0187 7.96408 46.9758 7.79507 46.9758H7.19722V47.9066H7.80642ZM11.02 45.5531L10.1611 47.1953V48.1904H9.81673V47.1953L8.95401 45.5531H9.33618L9.98701 46.8888L10.6378 45.5531H11.02ZM14.1553 46.325C14.1553 46.5444 14.0796 46.7273 13.9283 46.8736C13.7794 47.0174 13.5511 47.0893 13.2434 47.0893H12.7363V48.1904H12.392V45.5531H13.2434C13.541 45.5531 13.7668 45.625 13.9207 45.7687C14.0771 45.9125 14.1553 46.0979 14.1553 46.325ZM13.2434 46.8055C13.4351 46.8055 13.5764 46.7639 13.6672 46.6807C13.758 46.5974 13.8034 46.4789 13.8034 46.325C13.8034 45.9996 13.6167 45.8369 13.2434 45.8369H12.7363V46.8055H13.2434ZM15.779 48.2169C15.5343 48.2169 15.311 48.1602 15.1092 48.0466C14.9074 47.9306 14.7472 47.7704 14.6287 47.5661C14.5126 47.3592 14.4546 47.1272 14.4546 46.8699C14.4546 46.6125 14.5126 46.3817 14.6287 46.1774C14.7472 45.9705 14.9074 45.8104 15.1092 45.6968C15.311 45.5808 15.5343 45.5228 15.779 45.5228C16.0262 45.5228 16.2507 45.5808 16.4525 45.6968C16.6543 45.8104 16.8132 45.9693 16.9293 46.1736C17.0453 46.3779 17.1033 46.61 17.1033 46.8699C17.1033 47.1297 17.0453 47.3618 16.9293 47.5661C16.8132 47.7704 16.6543 47.9306 16.4525 48.0466C16.2507 48.1602 16.0262 48.2169 15.779 48.2169ZM15.779 47.918C15.9631 47.918 16.1283 47.8751 16.2746 47.7893C16.4235 47.7036 16.5395 47.5812 16.6228 47.4223C16.7085 47.2634 16.7514 47.0792 16.7514 46.8699C16.7514 46.658 16.7085 46.4738 16.6228 46.3174C16.5395 46.1585 16.4247 46.0361 16.2784 45.9504C16.1321 45.8646 15.9656 45.8217 15.779 45.8217C15.5923 45.8217 15.4258 45.8646 15.2795 45.9504C15.1332 46.0361 15.0171 46.1585 14.9314 46.3174C14.8481 46.4738 14.8065 46.658 14.8065 46.8699C14.8065 47.0792 14.8481 47.2634 14.9314 47.4223C15.0171 47.5812 15.1332 47.7036 15.2795 47.7893C15.4283 47.8751 15.5948 47.918 15.779 47.918ZM19.3212 46.325C19.3212 46.5444 19.2455 46.7273 19.0941 46.8736C18.9453 47.0174 18.717 47.0893 18.4093 47.0893H17.9022V48.1904H17.5579V45.5531H18.4093C18.7069 45.5531 18.9327 45.625 19.0866 45.7687C19.243 45.9125 19.3212 46.0979 19.3212 46.325ZM18.4093 46.8055C18.601 46.8055 18.7422 46.7639 18.8331 46.6807C18.9239 46.5974 18.9693 46.4789 18.9693 46.325C18.9693 45.9996 18.7826 45.8369 18.4093 45.8369H17.9022V46.8055H18.4093ZM20.0859 45.5531V47.2218C20.0859 47.4564 20.1427 47.6304 20.2562 47.7439C20.3722 47.8574 20.5324 47.9142 20.7367 47.9142C20.9385 47.9142 21.0962 47.8574 21.2097 47.7439C21.3258 47.6304 21.3838 47.4564 21.3838 47.2218V45.5531H21.7281V47.218C21.7281 47.4374 21.684 47.6228 21.5957 47.7742C21.5074 47.923 21.3876 48.034 21.2362 48.1072C21.0874 48.1803 20.9196 48.2169 20.733 48.2169C20.5463 48.2169 20.3773 48.1803 20.2259 48.1072C20.0771 48.034 19.9585 47.923 19.8702 47.7742C19.7845 47.6228 19.7416 47.4374 19.7416 47.218V45.5531H20.0859ZM22.6469 47.9104H23.5701V48.1904H22.3025V45.5531H22.6469V47.9104ZM25.4948 47.6039H24.3445L24.1326 48.1904H23.7693L24.7229 45.5682H25.1202L26.0699 48.1904H25.7067L25.4948 47.6039ZM25.3964 47.3239L24.9196 45.992L24.4429 47.3239H25.3964ZM27.8742 48.1904L27.2461 47.112H26.8298V48.1904H26.4855V45.5531H27.3369C27.5362 45.5531 27.7039 45.5871 27.8401 45.6552C27.9789 45.7233 28.0823 45.8154 28.1504 45.9314C28.2185 46.0475 28.2526 46.1799 28.2526 46.3288C28.2526 46.5104 28.1996 46.6706 28.0937 46.8093C27.9902 46.9481 27.8338 47.0401 27.6245 47.0855L28.2866 48.1904H27.8742ZM26.8298 46.8358H27.3369C27.5235 46.8358 27.6636 46.7904 27.7569 46.6996C27.8502 46.6062 27.8969 46.4826 27.8969 46.3288C27.8969 46.1724 27.8502 46.0513 27.7569 45.9655C27.6661 45.8797 27.5261 45.8369 27.3369 45.8369H26.8298V46.8358ZM29.1319 45.5531V48.1904H28.7876V45.5531H29.1319ZM31.3421 45.5531V45.8331H30.6232V48.1904H30.2788V45.8331H29.5561V45.5531H31.3421ZM33.6125 45.5531L32.7535 47.1953V48.1904H32.4092V47.1953L31.5465 45.5531H31.9287L32.5795 46.8888L33.2303 45.5531H33.6125Z" fill="white"/>
<path d="M134.173 46.8571L135.309 47.619L136.445 46.8571" stroke="white" stroke-width="0.378389" stroke-linecap="round" stroke-linejoin="round"/>
<path d="M35.3403 47.2381L36.4763 46.4762L37.6123 47.2381" stroke="white" stroke-width="0.378389" stroke-linecap="round" stroke-linejoin="round"/>
<rect x="6.56152" y="25.9048" width="32.5653" height="12.1905" rx="6.09524" fill="#261F70"/>
<path d="M13.0883 30.3712V32.9734C13.0883 33.2357 13.008 33.4472 12.8473 33.6079C12.6866 33.7653 12.4718 33.844 12.2029 33.844C11.9242 33.844 11.7012 33.7604 11.5339 33.5932C11.3699 33.4226 11.288 33.1931 11.288 32.9045H11.6372C11.6405 33.0914 11.6864 33.2439 11.7749 33.362C11.8668 33.48 12.0094 33.5391 12.2029 33.5391C12.3866 33.5391 12.5226 33.4849 12.6112 33.3767C12.6997 33.2685 12.744 33.1341 12.744 32.9734V30.3712H13.0883ZM13.7968 32.4618C13.7968 32.1863 13.8509 31.9453 13.9591 31.7387C14.0706 31.5288 14.2231 31.3681 14.4166 31.2566C14.6134 31.1418 14.8347 31.0844 15.0807 31.0844C15.3365 31.0844 15.5562 31.1435 15.7398 31.2615C15.9267 31.3796 16.0612 31.5304 16.1432 31.7141V31.1238H16.4875V33.8096H16.1432V33.2144C16.0579 33.398 15.9218 33.5505 15.7349 33.6719C15.5513 33.7899 15.3315 33.849 15.0758 33.849C14.8331 33.849 14.6134 33.7916 14.4166 33.6768C14.2231 33.562 14.0706 33.3997 13.9591 33.1898C13.8509 32.9799 13.7968 32.7372 13.7968 32.4618ZM16.1432 32.4667C16.1432 32.2503 16.0989 32.0601 16.0104 31.8961C15.9218 31.7321 15.8005 31.6059 15.6464 31.5173C15.4955 31.4288 15.3283 31.3845 15.1446 31.3845C14.9544 31.3845 14.7839 31.4271 14.633 31.5124C14.4822 31.5977 14.3625 31.7223 14.2739 31.8862C14.1887 32.0469 14.146 32.2388 14.146 32.4618C14.146 32.6815 14.1887 32.875 14.2739 33.0422C14.3625 33.2062 14.4822 33.3325 14.633 33.421C14.7839 33.5063 14.9544 33.5489 15.1446 33.5489C15.3283 33.5489 15.4955 33.5046 15.6464 33.4161C15.8005 33.3275 15.9218 33.2013 16.0104 33.0373C16.0989 32.8733 16.1432 32.6831 16.1432 32.4667ZM17.613 31.7141C17.6983 31.5337 17.8327 31.3845 18.0164 31.2664C18.2033 31.1451 18.4247 31.0844 18.6805 31.0844C18.9231 31.0844 19.1412 31.1418 19.3347 31.2566C19.5315 31.3681 19.6839 31.5288 19.7922 31.7387C19.9037 31.9453 19.9594 32.1863 19.9594 32.4618C19.9594 32.7372 19.9037 32.9799 19.7922 33.1898C19.6839 33.3997 19.5315 33.562 19.3347 33.6768C19.1412 33.7916 18.9231 33.849 18.6805 33.849C18.4279 33.849 18.2082 33.7899 18.0213 33.6719C17.8344 33.5505 17.6983 33.3997 17.613 33.2193V35.0787H17.2736V31.1238H17.613V31.7141ZM19.6102 32.4618C19.6102 32.2388 19.5659 32.0469 19.4773 31.8862C19.3921 31.7223 19.274 31.5977 19.1232 31.5124C18.9723 31.4271 18.8018 31.3845 18.6116 31.3845C18.4279 31.3845 18.2591 31.4288 18.1049 31.5173C17.9541 31.6059 17.8344 31.7321 17.7458 31.8961C17.6573 32.0601 17.613 32.2503 17.613 32.4667C17.613 32.6831 17.6573 32.8733 17.7458 33.0373C17.8344 33.2013 17.9541 33.3275 18.1049 33.4161C18.2591 33.5046 18.4279 33.5489 18.6116 33.5489C18.8018 33.5489 18.9723 33.5063 19.1232 33.421C19.274 33.3325 19.3921 33.2062 19.4773 33.0422C19.5659 32.875 19.6102 32.6815 19.6102 32.4618ZM20.4356 32.4618C20.4356 32.1863 20.4897 31.9453 20.5979 31.7387C20.7094 31.5288 20.8619 31.3681 21.0554 31.2566C21.2522 31.1418 21.4735 31.0844 21.7195 31.0844C21.9753 31.0844 22.195 31.1435 22.3786 31.2615C22.5656 31.3796 22.7 31.5304 22.782 31.7141V31.1238H23.1263V33.8096H22.782V33.2144C22.6967 33.398 22.5606 33.5505 22.3737 33.6719C22.1901 33.7899 21.9703 33.849 21.7146 33.849C21.4719 33.849 21.2522 33.7916 21.0554 33.6768C20.8619 33.562 20.7094 33.3997 20.5979 33.1898C20.4897 32.9799 20.4356 32.7372 20.4356 32.4618ZM22.782 32.4667C22.782 32.2503 22.7377 32.0601 22.6492 31.8961C22.5606 31.7321 22.4393 31.6059 22.2852 31.5173C22.1343 31.4288 21.9671 31.3845 21.7834 31.3845C21.5932 31.3845 21.4227 31.4271 21.2718 31.5124C21.121 31.5977 21.0013 31.7223 20.9127 31.8862C20.8275 32.0469 20.7849 32.2388 20.7849 32.4618C20.7849 32.6815 20.8275 32.875 20.9127 33.0422C21.0013 33.2062 21.121 33.3325 21.2718 33.421C21.4227 33.5063 21.5932 33.5489 21.7834 33.5489C21.9671 33.5489 22.1343 33.5046 22.2852 33.4161C22.4393 33.3275 22.5606 33.2013 22.6492 33.0373C22.7377 32.8733 22.782 32.6831 22.782 32.4667ZM25.1717 31.0746C25.4931 31.0746 25.7554 31.1746 25.9587 31.3747C26.1621 31.5714 26.2637 31.8584 26.2637 32.2355V33.8096H25.9243V32.2749C25.9243 31.983 25.8505 31.76 25.7029 31.6059C25.5587 31.4517 25.3603 31.3747 25.1077 31.3747C24.8487 31.3747 24.6421 31.4567 24.4879 31.6206C24.3338 31.7846 24.2567 32.0256 24.2567 32.3437V33.8096H23.9124V31.1238H24.2567V31.5813C24.342 31.4173 24.465 31.2927 24.6257 31.2074C24.7864 31.1189 24.9684 31.0746 25.1717 31.0746Z" fill="white"/>
<path opacity="0.6" d="M31.5547 30.4762L34.584 33.5238M31.5547 33.5238L34.584 30.4762" stroke="white" stroke-width="0.378389" stroke-linecap="round" stroke-linejoin="round"/>
<rect x="43.6719" y="25.9048" width="49.2267" height="12.1905" rx="6.09524" fill="#261F70"/>
<path d="M55.8469 30.3712C56.2273 30.3712 56.5536 30.44 56.8257 30.5778C57.0979 30.7155 57.3062 30.9139 57.4505 31.173C57.5948 31.4321 57.6669 31.7403 57.6669 32.0978C57.6669 32.4519 57.5948 32.7586 57.4505 33.0176C57.3062 33.2734 57.0979 33.4702 56.8257 33.6079C56.5536 33.7424 56.2273 33.8096 55.8469 33.8096H54.8286V30.3712H55.8469ZM55.8469 33.5243C56.3256 33.5243 56.6897 33.3997 56.9389 33.1504C57.1914 32.8979 57.3177 32.547 57.3177 32.0978C57.3177 31.6452 57.1914 31.2927 56.9389 31.0402C56.6897 30.7844 56.3256 30.6565 55.8469 30.6565H55.1729V33.5243H55.8469ZM59.4774 33.849C59.2249 33.849 58.997 33.7932 58.7936 33.6817C58.5936 33.5669 58.4345 33.4062 58.3165 33.1996C58.2017 32.9898 58.1443 32.7454 58.1443 32.4667C58.1443 32.188 58.2033 31.9453 58.3214 31.7387C58.4395 31.5288 58.6002 31.3681 58.8035 31.2566C59.0068 31.1418 59.2347 31.0844 59.4872 31.0844C59.7397 31.0844 59.9677 31.1418 60.171 31.2566C60.3776 31.3681 60.5383 31.5288 60.653 31.7387C60.7711 31.9453 60.8301 32.188 60.8301 32.4667C60.8301 32.7422 60.7711 32.9848 60.653 33.1947C60.535 33.4046 60.3727 33.5669 60.1661 33.6817C59.9595 33.7932 59.7299 33.849 59.4774 33.849ZM59.4774 33.5489C59.6545 33.5489 59.8184 33.5095 59.9693 33.4308C60.1201 33.3488 60.2415 33.2275 60.3333 33.0668C60.4284 32.9029 60.476 32.7028 60.476 32.4667C60.476 32.2306 60.43 32.0322 60.3382 31.8715C60.2464 31.7075 60.1251 31.5862 59.9742 31.5075C59.8234 31.4255 59.6594 31.3845 59.4823 31.3845C59.3052 31.3845 59.1412 31.4255 58.9904 31.5075C58.8395 31.5862 58.7182 31.7075 58.6264 31.8715C58.5378 32.0322 58.4936 32.2306 58.4936 32.4667C58.4936 32.7028 58.5378 32.9029 58.6264 33.0668C58.7182 33.2275 58.8379 33.3488 58.9855 33.4308C59.1363 33.5095 59.3003 33.5489 59.4774 33.5489ZM64.9995 31.1238L64.1584 33.8096H63.814L63.0713 31.5567L62.3285 33.8096H61.9792L61.1381 31.1238H61.4873L62.1563 33.4603L62.9089 31.1238H63.2533L63.996 33.4653L64.6601 31.1238H64.9995ZM66.7282 31.0746C67.0496 31.0746 67.312 31.1746 67.5153 31.3747C67.7186 31.5714 67.8203 31.8584 67.8203 32.2355V33.8096H67.4808V32.2749C67.4808 31.983 67.4071 31.76 67.2595 31.6059C67.1152 31.4517 66.9168 31.3747 66.6643 31.3747C66.4052 31.3747 66.1986 31.4567 66.0445 31.6206C65.8903 31.7846 65.8133 32.0256 65.8133 32.3437V33.8096H65.4689V31.1238H65.8133V31.5813C65.8985 31.4173 66.0215 31.2927 66.1822 31.2074C66.3429 31.1189 66.5249 31.0746 66.7282 31.0746ZM72.1235 31.1238L71.2823 33.8096H70.938L70.1952 31.5567L69.4525 33.8096H69.1032L68.262 31.1238H68.6113L69.2803 33.4603L70.0329 31.1238H70.3772L71.12 33.4653L71.7841 31.1238H72.1235ZM72.4355 32.4618C72.4355 32.1863 72.4896 31.9453 72.5978 31.7387C72.7093 31.5288 72.8618 31.3681 73.0553 31.2566C73.2521 31.1418 73.4734 31.0844 73.7194 31.0844C73.9752 31.0844 74.1949 31.1435 74.3785 31.2615C74.5655 31.3796 74.6999 31.5304 74.7819 31.7141V31.1238H75.1262V33.8096H74.7819V33.2144C74.6966 33.398 74.5606 33.5505 74.3736 33.6719C74.19 33.7899 73.9703 33.849 73.7145 33.849C73.4718 33.849 73.2521 33.7916 73.0553 33.6768C72.8618 33.562 72.7093 33.3997 72.5978 33.1898C72.4896 32.9799 72.4355 32.7372 72.4355 32.4618ZM74.7819 32.4667C74.7819 32.2503 74.7376 32.0601 74.6491 31.8961C74.5606 31.7321 74.4392 31.6059 74.2851 31.5173C74.1342 31.4288 73.967 31.3845 73.7833 31.3845C73.5931 31.3845 73.4226 31.4271 73.2718 31.5124C73.1209 31.5977 73.0012 31.7223 72.9127 31.8862C72.8274 32.0469 72.7848 32.2388 72.7848 32.4618C72.7848 32.6815 72.8274 32.875 72.9127 33.0422C73.0012 33.2062 73.1209 33.3325 73.2718 33.421C73.4226 33.5063 73.5931 33.5489 73.7833 33.5489C73.967 33.5489 74.1342 33.5046 74.2851 33.4161C74.4392 33.3275 74.5606 33.2013 74.6491 33.0373C74.7376 32.8733 74.7819 32.6831 74.7819 32.4667ZM76.2567 31.6009C76.3321 31.4337 76.4469 31.3042 76.601 31.2123C76.7584 31.1205 76.9503 31.0746 77.1765 31.0746V31.4337H77.0831C76.8338 31.4337 76.6338 31.5009 76.4829 31.6354C76.3321 31.7698 76.2567 31.9945 76.2567 32.3093V33.8096H75.9123V31.1238H76.2567V31.6009ZM77.5371 32.4618C77.5371 32.1863 77.5929 31.9453 77.7044 31.7387C77.8159 31.5288 77.9684 31.3681 78.1618 31.2566C78.3586 31.1418 78.58 31.0844 78.8259 31.0844C79.062 31.0844 79.2752 31.1418 79.4654 31.2566C79.6556 31.3714 79.795 31.5206 79.8835 31.7042V30.1695H80.2278V33.8096H79.8835V33.2095C79.8015 33.3964 79.6671 33.5505 79.4801 33.6719C79.2932 33.7899 79.0735 33.849 78.821 33.849C78.575 33.849 78.3537 33.7916 78.1569 33.6768C77.9634 33.562 77.8109 33.3997 77.6994 33.1898C77.5912 32.9799 77.5371 32.7372 77.5371 32.4618ZM79.8835 32.4667C79.8835 32.2503 79.8392 32.0601 79.7507 31.8961C79.6622 31.7321 79.5408 31.6059 79.3867 31.5173C79.2358 31.4288 79.0686 31.3845 78.8849 31.3845C78.6947 31.3845 78.5242 31.4271 78.3734 31.5124C78.2225 31.5977 78.1028 31.7223 78.0143 31.8862C77.929 32.0469 77.8864 32.2388 77.8864 32.4618C77.8864 32.6815 77.929 32.875 78.0143 33.0422C78.1028 33.2062 78.2225 33.3325 78.3734 33.421C78.5242 33.5063 78.6947 33.5489 78.8849 33.5489C79.0686 33.5489 79.2358 33.5046 79.3867 33.4161C79.5408 33.3275 79.6622 33.2013 79.7507 33.0373C79.8392 32.8733 79.8835 32.6831 79.8835 32.4667Z" fill="white"/>
<path d="M49.8628 34.4195C49.7889 34.4934 49.6691 34.4934 49.5952 34.4195L48.3912 33.2154C48.3173 33.1416 48.3173 33.0218 48.3912 32.9479C48.4651 32.874 48.5849 32.874 48.6588 32.9479L49.729 34.0181L50.7992 32.9479C50.8731 32.874 50.9929 32.874 51.0668 32.9479C51.1407 33.0218 51.1407 33.1416 51.0668 33.2154L49.8628 34.4195ZM49.9182 29.7143L49.9182 34.2857L49.5398 34.2857L49.5398 29.7143L49.9182 29.7143Z" fill="white"/>
<path opacity="0.6" d="M85.3252 30.4762L88.3545 33.5238M85.3252 33.5238L88.3545 30.4762" stroke="white" stroke-width="0.378389" stroke-linecap="round" stroke-linejoin="round"/>
<defs>
<linearGradient id="paint0_linear" x1="71.5034" y1="0" x2="71.5034" y2="80" gradientUnits="userSpaceOnUse">
<stop stop-color="#26284A"/>
<stop offset="1" stop-color="#1C1E3A" stop-opacity="0.92"/>
</linearGradient>
<linearGradient id="paint1_linear" x1="93.6545" y1="59.4286" x2="93.6545" y2="70.8572" gradientUnits="userSpaceOnUse">
<stop stop-color="#06BFA1"/>
<stop offset="1" stop-color="#06BFA1" stop-opacity="0"/>
</linearGradient>
</defs>
</svg>
